Aikya-Light_b005.ufo
<glyph name="exclam" format="1">
  <advance width="267"/>
  <unicode hex="0021"/>
  <outline>
    <contour>
      <point x="113" y="160" type="line"/>
      <point x="151" y="160" type="line"/>
      <point x="161" y="550" type="line"/>
      <point x="100" y="550" type="line"/>
    </contour>
    <contour>
      <point x="90" y="34" type="curve" smooth="yes"/>
      <point x="90" y="10"/>
      <point x="108" y="-8"/>
      <point x="132" y="-8" type="curve" smooth="yes"/>
      <point x="157" y="-8"/>
      <point x="176" y="10"/>
      <point x="176" y="34" type="curve" smooth="yes"/>
      <point x="176" y="59"/>
      <point x="157" y="78"/>
      <point x="132" y="78" type="curve" smooth="yes"/>
      <point x="108" y="78"/>
      <point x="90" y="59"/>
    </contour>
  </outline>
</glyph>
<glyph name="quotedbl" format="1">
  <advance width="404"/>
  <unicode hex="0022"/>
  <outline>
    <contour>
      <point x="256" y="367" type="line"/>
      <point x="295" y="367" type="line"/>
      <point x="307" y="589" type="line"/>
      <point x="245" y="589" type="line"/>
    </contour>
    <contour>
      <point x="109" y="367" type="line"/>
      <point x="148" y="367" type="line"/>
      <point x="160" y="589" type="line"/>
      <point x="98" y="589" type="line"/>
    </contour>
  </outline>
</glyph>
<glyph name="numbersign" format="1">
  <advance width="551"/>
  <unicode hex="0023"/>
  <outline>
    <contour>
      <point x="131" y="0" type="line"/>
      <point x="181" y="0" type="line"/>
      <point x="193" y="132" type="line"/>
      <point x="328" y="132" type="line"/>
      <point x="317" y="0" type="line"/>
      <point x="366" y="0" type="line"/>
      <point x="377" y="132" type="line"/>
      <point x="472" y="132" type="line"/>
      <point x="472" y="170" type="line"/>
      <point x="381" y="170" type="line"/>
      <point x="396" y="333" type="line"/>
      <point x="488" y="333" type="line"/>
      <point x="488" y="371" type="line"/>
      <point x="399" y="371" type="line"/>
      <point x="410" y="496" type="line"/>
      <point x="361" y="496" type="line"/>
      <point x="350" y="371" type="line"/>
      <point x="216" y="371" type="line"/>
      <point x="227" y="496" type="line"/>
      <point x="178" y="496" type="line"/>
      <point x="167" y="371" type="line"/>
      <point x="76" y="371" type="line"/>
      <point x="76" y="333" type="line"/>
      <point x="164" y="333" type="line"/>
      <point x="149" y="170" type="line"/>
      <point x="63" y="170" type="line"/>
      <point x="63" y="132" type="line"/>
      <point x="144" y="132" type="line"/>
    </contour>
    <contour>
      <point x="198" y="170" type="line"/>
      <point x="213" y="333" type="line"/>
      <point x="347" y="333" type="line"/>
      <point x="330" y="170" type="line"/>
    </contour>
  </outline>
</glyph>
<glyph name="dollar" format="1">
  <advance width="496"/>
  <unicode hex="0024"/>
  <outline>
    <contour>
      <point x="421" y="137" type="curve" smooth="yes"/>
      <point x="421" y="224"/>
      <point x="357" y="255"/>
      <point x="259" y="310" type="curve"/>
      <point x="201" y="342"/>
      <point x="141" y="370"/>
      <point x="141" y="435" type="curve" smooth="yes"/>
      <point x="141" y="498"/>
      <point x="193" y="521"/>
      <point x="251" y="521" type="curve" smooth="yes"/>
      <point x="293" y="522"/>
      <point x="319" y="512"/>
      <point x="336" y="499" type="curve"/>
      <point x="353" y="411" type="line"/>
      <point x="388" y="411" type="line"/>
      <point x="392" y="528" type="line"/>
      <point x="373" y="536"/>
      <point x="333" y="553"/>
      <point x="275" y="556" type="curve"/>
      <point x="275" y="637" type="line"/>
      <point x="227" y="637" type="line"/>
      <point x="227" y="556" type="line"/>
      <point x="150" y="547"/>
      <point x="84" y="501"/>
      <point x="84" y="426" type="curve" smooth="yes"/>
      <point x="84" y="341"/>
      <point x="135" y="304"/>
      <point x="220" y="259" type="curve" smooth="yes"/>
      <point x="293" y="221"/>
      <point x="361" y="190"/>
      <point x="361" y="127" type="curve" smooth="yes"/>
      <point x="361" y="60"/>
      <point x="319" y="27"/>
      <point x="243" y="27" type="curve" smooth="yes"/>
      <point x="194" y="27"/>
      <point x="156" y="39"/>
      <point x="133" y="57" type="curve"/>
      <point x="119" y="150" type="line"/>
      <point x="81" y="150" type="line"/>
      <point x="76" y="25" type="line"/>
      <point x="95" y="16"/>
      <point x="153" y="-3"/>
      <point x="216" y="-7" type="curve"/>
      <point x="215" y="-93" type="line"/>
      <point x="261" y="-93" type="line"/>
      <point x="262" y="-7" type="line"/>
      <point x="362" y="0"/>
      <point x="421" y="56"/>
    </contour>
  </outline>
</glyph>
<glyph name="ampersand" format="1">
  <advance width="558"/>
  <unicode hex="0026"/>
  <outline>
    <contour>
      <point x="370" y="264" type="line"/>
      <point x="432" y="256" type="line"/>
      <point x="436" y="211"/>
      <point x="427" y="147"/>
      <point x="393" y="105" type="curve"/>
      <point x="372" y="125" type="line"/>
      <point x="336" y="162"/>
      <point x="268" y="237"/>
      <point x="233" y="279" type="curve"/>
      <point x="296" y="327"/>
      <point x="361" y="364"/>
      <point x="361" y="456" type="curve" smooth="yes"/>
      <point x="361" y="503"/>
      <point x="321" y="557"/>
      <point x="235" y="557" type="curve" smooth="yes"/>
      <point x="155" y="557"/>
      <point x="96" y="499"/>
      <point x="96" y="432" type="curve" smooth="yes"/>
      <point x="96" y="377"/>
      <point x="127" y="318"/>
      <point x="161" y="275" type="curve"/>
      <point x="110" y="244"/>
      <point x="50" y="202"/>
      <point x="50" y="134" type="curve" smooth="yes"/>
      <point x="50" y="44"/>
      <point x="127" y="-6"/>
      <point x="241" y="-6" type="curve" smooth="yes"/>
      <point x="278" y="-6"/>
      <point x="336" y="5"/>
      <point x="379" y="42" type="curve"/>
      <point x="414" y="11"/>
      <point x="439" y="-4"/>
      <point x="473" y="-4" type="curve" smooth="yes"/>
      <point x="483" y="-4"/>
      <point x="508" y="-2"/>
      <point x="518" y="2" type="curve"/>
      <point x="518" y="30" type="line"/>
      <point x="477" y="32"/>
      <point x="452" y="49"/>
      <point x="420" y="79" type="curve"/>
      <point x="458" y="119"/>
      <point x="481" y="185"/>
      <point x="480" y="256" type="curve"/>
      <point x="543" y="264" type="line"/>
      <point x="543" y="300" type="line"/>
      <point x="370" y="300" type="line"/>
    </contour>
    <contour>
      <point x="244" y="31" type="curve" smooth="yes"/>
      <point x="154" y="31"/>
      <point x="110" y="81"/>
      <point x="110" y="140" type="curve" smooth="yes"/>
      <point x="110" y="187"/>
      <point x="145" y="222"/>
      <point x="182" y="250" type="curve"/>
      <point x="227" y="199"/>
      <point x="301" y="113"/>
      <point x="351" y="67" type="curve"/>
      <point x="321" y="42"/>
      <point x="278" y="31"/>
    </contour>
    <contour>
      <point x="154" y="436" type="curve" smooth="yes"/>
      <point x="154" y="486"/>
      <point x="189" y="527"/>
      <point x="233" y="527" type="curve" smooth="yes"/>
      <point x="295" y="527"/>
      <point x="307" y="480"/>
      <point x="307" y="452" type="curve" smooth="yes"/>
      <point x="307" y="384"/>
      <point x="278" y="354"/>
      <point x="213" y="304" type="curve"/>
      <point x="188" y="333"/>
      <point x="154" y="376"/>
    </contour>
  </outline>
</glyph>
<glyph name="quotesingle" format="1">
  <advance width="258"/>
  <unicode hex="0027"/>
  <outline>
    <contour>
      <point x="109" y="367" type="line"/>
      <point x="148" y="367" type="line"/>
      <point x="160" y="589" type="line"/>
      <point x="98" y="589" type="line"/>
    </contour>
  </outline>
</glyph>
<glyph name="parenleft" format="1">
  <advance width="313"/>
  <unicode hex="0028"/>
  <outline>
    <contour>
      <point x="54" y="247" type="curve" smooth="yes"/>
      <point x="54" y="3"/>
      <point x="199" y="-115"/>
      <point x="233" y="-135" type="curve"/>
      <point x="262" y="-115" type="line"/>
      <point x="228" y="-90"/>
      <point x="109" y="35"/>
      <point x="114" y="261" type="curve" smooth="yes"/>
      <point x="118" y="461"/>
      <point x="229" y="575"/>
      <point x="259" y="595" type="curve"/>
      <point x="233" y="612" type="line"/>
      <point x="193" y="590"/>
      <point x="54" y="459"/>
    </contour>
  </outline>
</glyph>
<glyph name="parenright" format="1">
  <advance width="313"/>
  <unicode hex="0029"/>
  <outline>
    <contour>
      <point x="259" y="231" type="curve" smooth="yes"/>
      <point x="259" y="475"/>
      <point x="114" y="593"/>
      <point x="80" y="613" type="curve"/>
      <point x="51" y="593" type="line"/>
      <point x="85" y="568"/>
      <point x="204" y="443"/>
      <point x="199" y="217" type="curve" smooth="yes"/>
      <point x="195" y="17"/>
      <point x="84" y="-97"/>
      <point x="54" y="-117" type="curve"/>
      <point x="80" y="-134" type="line"/>
      <point x="120" y="-112"/>
      <point x="259" y="19"/>
    </contour>
  </outline>
</glyph>
<glyph name="asterisk" format="1">
  <advance width="469"/>
  <unicode hex="002A"/>
  <outline>
    <contour>
      <point x="90" y="299" type="line"/>
      <point x="183" y="365" type="line"/>
      <point x="227" y="405" type="line"/>
      <point x="216" y="347" type="line"/>
      <point x="207" y="232" type="line"/>
      <point x="266" y="233" type="line"/>
      <point x="253" y="347" type="line"/>
      <point x="241" y="405" type="line"/>
      <point x="287" y="367" type="line"/>
      <point x="380" y="301" type="line"/>
      <point x="410" y="353" type="line"/>
      <point x="305" y="399" type="line"/>
      <point x="249" y="418" type="line"/>
      <point x="305" y="438" type="line"/>
      <point x="407" y="487" type="line"/>
      <point x="379" y="536" type="line"/>
      <point x="285" y="470" type="line"/>
      <point x="241" y="430" type="line"/>
      <point x="253" y="489" type="line"/>
      <point x="262" y="602" type="line"/>
      <point x="203" y="602" type="line"/>
      <point x="215" y="488" type="line"/>
      <point x="227" y="430" type="line"/>
      <point x="181" y="468" type="line"/>
      <point x="88" y="534" type="line"/>
      <point x="60" y="484" type="line"/>
      <point x="164" y="436" type="line"/>
      <point x="220" y="418" type="line"/>
      <point x="164" y="399" type="line"/>
      <point x="61" y="349" type="line"/>
    </contour>
  </outline>
</glyph>
<glyph name="plus" format="1">
  <advance width="490"/>
  <unicode hex="002B"/>
  <outline>
    <contour>
      <point x="79" y="197" type="line"/>
      <point x="159" y="197" type="line"/>
      <point x="223" y="199" type="line"/>
      <point x="221" y="136" type="line"/>
      <point x="221" y="48" type="line"/>
      <point x="269" y="48" type="line"/>
      <point x="269" y="136" type="line"/>
      <point x="266" y="199" type="line"/>
      <point x="321" y="197" type="line"/>
      <point x="410" y="197" type="line"/>
      <point x="410" y="245" type="line"/>
      <point x="321" y="245" type="line"/>
      <point x="266" y="241" type="line"/>
      <point x="269" y="307" type="line"/>
      <point x="269" y="389" type="line"/>
      <point x="221" y="389" type="line"/>
      <point x="221" y="307" type="line"/>
      <point x="223" y="241" type="line"/>
      <point x="159" y="245" type="line"/>
      <point x="79" y="245" type="line"/>
    </contour>
  </outline>
</glyph>
<glyph name="comma" format="1">
  <advance width="248"/>
  <unicode hex="002C"/>
  <outline>
    <contour>
      <point x="126" y="93" type="curve" smooth="yes"/>
      <point x="107" y="93"/>
      <point x="90" y="80"/>
      <point x="90" y="56" type="curve" smooth="yes"/>
      <point x="90" y="21"/>
      <point x="125" y="21"/>
      <point x="125" y="-35" type="curve" smooth="yes"/>
      <point x="125" y="-80"/>
      <point x="102" y="-106"/>
      <point x="89" y="-117" type="curve"/>
      <point x="89" y="-124" type="line"/>
      <point x="108" y="-139" type="line"/>
      <point x="109" y="-139" type="line"/>
      <point x="141" y="-120"/>
      <point x="176" y="-63"/>
      <point x="176" y="11" type="curve" smooth="yes"/>
      <point x="176" y="62"/>
      <point x="159" y="93"/>
    </contour>
  </outline>
</glyph>
<glyph name="hyphen" format="1">
  <advance width="464"/>
  <unicode hex="002D"/>
  <outline>
    <contour>
      <point x="83" y="201" type="line"/>
      <point x="381" y="201" type="line"/>
      <point x="381" y="245" type="line"/>
      <point x="83" y="245" type="line"/>
    </contour>
  </outline>
</glyph>
<glyph name="period" format="1">
  <advance width="182"/>
  <unicode hex="002E"/>
  <outline>
    <contour>
      <point x="48" y="34" type="curve" smooth="yes"/>
      <point x="48" y="10"/>
      <point x="66" y="-8"/>
      <point x="90" y="-8" type="curve" smooth="yes"/>
      <point x="115" y="-8"/>
      <point x="134" y="10"/>
      <point x="134" y="34" type="curve" smooth="yes"/>
      <point x="134" y="59"/>
      <point x="115" y="78"/>
      <point x="90" y="78" type="curve" smooth="yes"/>
      <point x="66" y="78"/>
      <point x="48" y="59"/>
    </contour>
  </outline>
</glyph>
<glyph name="slash" format="1">
  <advance width="319"/>
  <unicode hex="002F"/>
  <outline>
    <contour>
      <point x="28" y="-131" type="line"/>
      <point x="84" y="-131" type="line"/>
      <point x="291" y="579" type="line"/>
      <point x="236" y="579" type="line"/>
    </contour>
  </outline>
</glyph>
<glyph name="zero" format="1">
  <advance width="470"/>
  <unicode hex="0030"/>
  <outline>
    <contour>
      <point x="231" y="-7" type="curve" smooth="yes"/>
      <point x="341" y="-7"/>
      <point x="421" y="96"/>
      <point x="422" y="233" type="curve" smooth="yes"/>
      <point x="423" y="361"/>
      <point x="381" y="467"/>
      <point x="241" y="467" type="curve" smooth="yes"/>
      <point x="137" y="467"/>
      <point x="50" y="376"/>
      <point x="48" y="237" type="curve" smooth="yes"/>
      <point x="47" y="113"/>
      <point x="94" y="-7"/>
    </contour>
    <contour>
      <point x="234" y="27" type="curve" smooth="yes"/>
      <point x="144" y="27"/>
      <point x="113" y="133"/>
      <point x="113" y="240" type="curve" smooth="yes"/>
      <point x="113" y="356"/>
      <point x="149" y="433"/>
      <point x="237" y="433" type="curve" smooth="yes"/>
      <point x="329" y="433"/>
      <point x="357" y="342"/>
      <point x="357" y="230" type="curve" smooth="yes"/>
      <point x="357" y="109"/>
      <point x="323" y="27"/>
    </contour>
  </outline>
</glyph>
<glyph name="one" format="1">
  <advance width="317"/>
  <unicode hex="0031"/>
  <outline>
    <contour>
      <point x="44" y="0" type="line"/>
      <point x="301" y="0" type="line"/>
      <point x="301" y="32" type="line"/>
      <point x="204" y="38" type="line"/>
      <point x="204" y="461" type="line"/>
      <point x="168" y="469" type="line"/>
      <point x="167" y="469" type="line"/>
      <point x="133" y="439"/>
      <point x="80" y="412"/>
      <point x="30" y="401" type="curve"/>
      <point x="37" y="366" type="line"/>
      <point x="69" y="370"/>
      <point x="124" y="386"/>
      <point x="144" y="395" type="curve"/>
      <point x="144" y="38" type="line"/>
      <point x="44" y="32" type="line"/>
    </contour>
  </outline>
</glyph>
<glyph name="two" format="1">
  <advance width="440"/>
  <unicode hex="0032"/>
  <outline>
    <contour>
      <point x="47" y="0" type="line"/>
      <point x="396" y="0" type="line"/>
      <point x="414" y="108" type="line"/>
      <point x="381" y="115" type="line"/>
      <point x="357" y="50" type="line"/>
      <point x="118" y="35" type="line"/>
      <point x="247" y="110"/>
      <point x="367" y="227"/>
      <point x="367" y="334" type="curve" smooth="yes"/>
      <point x="367" y="402"/>
      <point x="321" y="469"/>
      <point x="215" y="469" type="curve" smooth="yes"/>
      <point x="135" y="469"/>
      <point x="71" y="424"/>
      <point x="41" y="390" type="curve"/>
      <point x="62" y="362" type="line"/>
      <point x="87" y="386"/>
      <point x="131" y="424"/>
      <point x="199" y="424" type="curve" smooth="yes"/>
      <point x="264" y="424"/>
      <point x="299" y="385"/>
      <point x="299" y="328" type="curve" smooth="yes"/>
      <point x="299" y="230"/>
      <point x="176" y="101"/>
      <point x="39" y="25" type="curve"/>
    </contour>
  </outline>
</glyph>
<glyph name="three" format="1">
  <advance width="412"/>
  <unicode hex="0033"/>
  <outline>
    <contour>
      <point x="49" y="-78" type="curve"/>
      <point x="49" y="-113" type="line"/>
      <point x="67" y="-117"/>
      <point x="93" y="-119"/>
      <point x="111" y="-119" type="curve" smooth="yes"/>
      <point x="270" y="-119"/>
      <point x="373" y="-40"/>
      <point x="373" y="71" type="curve" smooth="yes"/>
      <point x="372" y="141"/>
      <point x="310" y="201"/>
      <point x="207" y="192" type="curve"/>
      <point x="276" y="216"/>
      <point x="346" y="279"/>
      <point x="346" y="351" type="curve" smooth="yes"/>
      <point x="346" y="436"/>
      <point x="281" y="469"/>
      <point x="201" y="469" type="curve" smooth="yes"/>
      <point x="132" y="469"/>
      <point x="70" y="432"/>
      <point x="47" y="410" type="curve"/>
      <point x="64" y="383" type="line"/>
      <point x="93" y="406"/>
      <point x="138" y="426"/>
      <point x="185" y="426" type="curve" smooth="yes"/>
      <point x="236" y="426"/>
      <point x="280" y="404"/>
      <point x="279" y="339" type="curve" smooth="yes"/>
      <point x="279" y="285"/>
      <point x="230" y="237"/>
      <point x="169" y="212" type="curve" smooth="yes"/>
      <point x="150" y="204"/>
      <point x="130" y="199"/>
      <point x="111" y="195" type="curve"/>
      <point x="122" y="159" type="line"/>
      <point x="170" y="173" type="line"/>
      <point x="264" y="171"/>
      <point x="304" y="128"/>
      <point x="304" y="61" type="curve" smooth="yes"/>
      <point x="304" y="-16"/>
      <point x="231" y="-84"/>
      <point x="101" y="-84" type="curve" smooth="yes"/>
      <point x="88" y="-84"/>
      <point x="64" y="-82"/>
    </contour>
  </outline>
</glyph>
<glyph name="four" format="1">
  <advance width="469"/>
  <unicode hex="0034"/>
  <outline>
    <contour>
      <point x="47" y="0" type="line"/>
      <point x="293" y="0" type="line"/>
      <point x="293" y="-119" type="line"/>
      <point x="346" y="-119" type="line"/>
      <point x="346" y="0" type="line"/>
      <point x="456" y="0" type="line"/>
      <point x="456" y="52" type="line"/>
      <point x="346" y="47" type="line"/>
      <point x="346" y="197" type="line"/>
      <point x="293" y="193" type="line"/>
      <point x="293" y="44" type="line"/>
      <point x="85" y="34" type="line"/>
      <point x="113" y="78" type="line"/>
      <point x="321" y="479" type="line"/>
      <point x="277" y="503" type="line"/>
      <point x="259" y="503" type="line"/>
      <point x="199" y="367"/>
      <point x="100" y="160"/>
      <point x="31" y="30" type="curve"/>
    </contour>
  </outline>
</glyph>
<glyph name="five" format="1">
  <advance width="432"/>
  <unicode hex="0035"/>
  <outline>
    <contour>
      <point x="72" y="-86" type="curve"/>
      <point x="72" y="-114" type="line"/>
      <point x="89" y="-119"/>
      <point x="107" y="-119"/>
      <point x="124" y="-119" type="curve" smooth="yes"/>
      <point x="281" y="-119"/>
      <point x="379" y="-15"/>
      <point x="379" y="93" type="curve" smooth="yes"/>
      <point x="379" y="201"/>
      <point x="317" y="253"/>
      <point x="229" y="253" type="curve" smooth="yes"/>
      <point x="187" y="253"/>
      <point x="141" y="241"/>
      <point x="117" y="227" type="curve"/>
      <point x="153" y="411" type="line"/>
      <point x="345" y="411" type="line"/>
      <point x="357" y="477" type="line"/>
      <point x="314" y="477" type="line"/>
      <point x="307" y="463" type="line"/>
      <point x="107" y="463" type="line"/>
      <point x="70" y="201" type="line"/>
      <point x="87" y="188" type="line"/>
      <point x="117" y="202"/>
      <point x="163" y="213"/>
      <point x="196" y="213" type="curve" smooth="yes"/>
      <point x="265" y="213"/>
      <point x="312" y="177"/>
      <point x="312" y="84" type="curve" smooth="yes"/>
      <point x="312" y="-19"/>
      <point x="225" y="-88"/>
      <point x="116" y="-88" type="curve" smooth="yes"/>
      <point x="103" y="-88"/>
      <point x="86" y="-87"/>
    </contour>
  </outline>
</glyph>
<glyph name="six" format="1">
  <advance width="488"/>
  <unicode hex="0036"/>
  <outline>
    <contour>
      <point x="247" y="-8" type="curve" smooth="yes"/>
      <point x="364" y="-8"/>
      <point x="431" y="89"/>
      <point x="431" y="193" type="curve" smooth="yes"/>
      <point x="431" y="297"/>
      <point x="378" y="364"/>
      <point x="271" y="364" type="curve" smooth="yes"/>
      <point x="205" y="364"/>
      <point x="159" y="333"/>
      <point x="137" y="306" type="curve"/>
      <point x="165" y="415"/>
      <point x="250" y="515"/>
      <point x="376" y="555" type="curve"/>
      <point x="362" y="582" type="line"/>
      <point x="216" y="555"/>
      <point x="60" y="407"/>
      <point x="60" y="214" type="curve" smooth="yes"/>
      <point x="60" y="95"/>
      <point x="124" y="-8"/>
    </contour>
    <contour>
      <point x="257" y="324" type="curve" smooth="yes"/>
      <point x="320" y="324"/>
      <point x="366" y="284"/>
      <point x="366" y="178" type="curve" smooth="yes"/>
      <point x="366" y="107"/>
      <point x="331" y="25"/>
      <point x="251" y="25" type="curve" smooth="yes"/>
      <point x="151" y="25"/>
      <point x="125" y="133"/>
      <point x="127" y="237" type="curve" smooth="yes"/>
      <point x="127" y="244"/>
      <point x="128" y="251"/>
      <point x="129" y="258" type="curve"/>
      <point x="141" y="283"/>
      <point x="189" y="324"/>
    </contour>
  </outline>
</glyph>
<glyph name="seven" format="1">
  <advance width="433"/>
  <unicode hex="0037"/>
  <outline>
    <contour>
      <point x="125" y="-107" type="curve"/>
      <point x="190" y="-124" type="line"/>
      <point x="394" y="447" type="line"/>
      <point x="381" y="463" type="line"/>
      <point x="54" y="463" type="line"/>
      <point x="39" y="327" type="line"/>
      <point x="79" y="321" type="line"/>
      <point x="104" y="413" type="line"/>
      <point x="339" y="416" type="line"/>
      <point x="270" y="244"/>
      <point x="198" y="55"/>
    </contour>
  </outline>
</glyph>
<glyph name="eight" format="1">
  <advance width="464"/>
  <unicode hex="0038"/>
  <outline>
    <contour>
      <point x="53" y="136" type="curve" smooth="yes"/>
      <point x="53" y="33"/>
      <point x="149" y="-7"/>
      <point x="232" y="-7" type="curve" smooth="yes"/>
      <point x="324" y="-7"/>
      <point x="415" y="50"/>
      <point x="415" y="142" type="curve" smooth="yes"/>
      <point x="415" y="215"/>
      <point x="356" y="256"/>
      <point x="291" y="291" type="curve"/>
      <point x="354" y="328"/>
      <point x="392" y="383"/>
      <point x="392" y="441" type="curve" smooth="yes"/>
      <point x="392" y="517"/>
      <point x="327" y="564"/>
      <point x="238" y="564" type="curve" smooth="yes"/>
      <point x="157" y="564"/>
      <point x="76" y="517"/>
      <point x="76" y="427" type="curve" smooth="yes"/>
      <point x="76" y="358"/>
      <point x="119" y="317"/>
      <point x="170" y="286" type="curve"/>
      <point x="90" y="249"/>
      <point x="53" y="193"/>
    </contour>
    <contour>
      <point x="354" y="129" type="curve" smooth="yes"/>
      <point x="354" y="67"/>
      <point x="295" y="26"/>
      <point x="239" y="26" type="curve" smooth="yes"/>
      <point x="161" y="26"/>
      <point x="112" y="73"/>
      <point x="112" y="149" type="curve" smooth="yes"/>
      <point x="112" y="201"/>
      <point x="150" y="245"/>
      <point x="200" y="269" type="curve"/>
      <point x="274" y="229"/>
      <point x="354" y="199"/>
    </contour>
    <contour>
      <point x="129" y="440" type="curve" smooth="yes"/>
      <point x="129" y="498"/>
      <point x="177" y="533"/>
      <point x="235" y="533" type="curve" smooth="yes"/>
      <point x="297" y="533"/>
      <point x="339" y="493"/>
      <point x="339" y="424" type="curve" smooth="yes"/>
      <point x="339" y="376"/>
      <point x="307" y="333"/>
      <point x="259" y="309" type="curve"/>
      <point x="192" y="344"/>
      <point x="129" y="379"/>
    </contour>
  </outline>
</glyph>
<glyph name="nine" format="1">
  <advance width="488"/>
  <unicode hex="0039"/>
  <outline>
    <contour>
      <point x="249" y="469" type="curve" smooth="yes"/>
      <point x="131" y="469"/>
      <point x="61" y="377"/>
      <point x="61" y="276" type="curve" smooth="yes"/>
      <point x="61" y="168"/>
      <point x="125" y="97"/>
      <point x="233" y="97" type="curve" smooth="yes"/>
      <point x="287" y="97"/>
      <point x="335" y="127"/>
      <point x="357" y="156" type="curve"/>
      <point x="333" y="44"/>
      <point x="259" y="-53"/>
      <point x="134" y="-95" type="curve"/>
      <point x="148" y="-123" type="line"/>
      <point x="295" y="-94"/>
      <point x="434" y="52"/>
      <point x="434" y="254" type="curve" smooth="yes"/>
      <point x="434" y="371"/>
      <point x="376" y="469"/>
    </contour>
    <contour>
      <point x="239" y="136" type="curve" smooth="yes"/>
      <point x="175" y="136"/>
      <point x="127" y="178"/>
      <point x="127" y="289" type="curve" smooth="yes"/>
      <point x="127" y="357"/>
      <point x="164" y="436"/>
      <point x="244" y="436" type="curve" smooth="yes"/>
      <point x="347" y="436"/>
      <point x="370" y="333"/>
      <point x="367" y="231" type="curve" smooth="yes"/>
      <point x="367" y="222"/>
      <point x="366" y="214"/>
      <point x="365" y="205" type="curve"/>
      <point x="353" y="178"/>
      <point x="305" y="136"/>
    </contour>
  </outline>
</glyph>
<glyph name="colon" format="1">
  <advance width="256"/>
  <unicode hex="003A"/>
  <outline>
    <contour>
      <point x="84" y="342" type="curve" smooth="yes"/>
      <point x="84" y="318"/>
      <point x="102" y="300"/>
      <point x="126" y="300" type="curve" smooth="yes"/>
      <point x="151" y="300"/>
      <point x="170" y="318"/>
      <point x="170" y="342" type="curve" smooth="yes"/>
      <point x="170" y="367"/>
      <point x="151" y="386"/>
      <point x="126" y="386" type="curve" smooth="yes"/>
      <point x="102" y="386"/>
      <point x="84" y="367"/>
    </contour>
    <contour>
      <point x="84" y="34" type="curve" smooth="yes"/>
      <point x="84" y="10"/>
      <point x="102" y="-8"/>
      <point x="126" y="-8" type="curve" smooth="yes"/>
      <point x="151" y="-8"/>
      <point x="170" y="10"/>
      <point x="170" y="34" type="curve" smooth="yes"/>
      <point x="170" y="59"/>
      <point x="151" y="78"/>
      <point x="126" y="78" type="curve" smooth="yes"/>
      <point x="102" y="78"/>
      <point x="84" y="59"/>
    </contour>
  </outline>
</glyph>
<glyph name="semicolon" format="1">
  <advance width="256"/>
  <unicode hex="003B"/>
  <outline>
    <contour>
      <point x="126" y="93" type="curve" smooth="yes"/>
      <point x="107" y="93"/>
      <point x="90" y="80"/>
      <point x="90" y="56" type="curve" smooth="yes"/>
      <point x="90" y="21"/>
      <point x="125" y="21"/>
      <point x="125" y="-35" type="curve" smooth="yes"/>
      <point x="125" y="-80"/>
      <point x="102" y="-106"/>
      <point x="89" y="-117" type="curve"/>
      <point x="89" y="-124" type="line"/>
      <point x="108" y="-139" type="line"/>
      <point x="109" y="-139" type="line"/>
      <point x="141" y="-120"/>
      <point x="176" y="-63"/>
      <point x="176" y="11" type="curve" smooth="yes"/>
      <point x="176" y="62"/>
      <point x="159" y="93"/>
    </contour>
    <contour>
      <point x="86" y="342" type="curve" smooth="yes"/>
      <point x="86" y="318"/>
      <point x="104" y="300"/>
      <point x="128" y="300" type="curve" smooth="yes"/>
      <point x="153" y="300"/>
      <point x="172" y="318"/>
      <point x="172" y="342" type="curve" smooth="yes"/>
      <point x="172" y="367"/>
      <point x="153" y="386"/>
      <point x="128" y="386" type="curve" smooth="yes"/>
      <point x="104" y="386"/>
      <point x="86" y="367"/>
    </contour>
  </outline>
</glyph>
<glyph name="less" format="1">
  <advance width="496"/>
  <unicode hex="003C"/>
  <outline>
    <contour>
      <point x="61" y="203" type="line"/>
      <point x="411" y="20" type="line"/>
      <point x="411" y="76" type="line"/>
      <point x="115" y="223" type="line"/>
      <point x="411" y="370" type="line"/>
      <point x="411" y="426" type="line"/>
      <point x="61" y="242" type="line"/>
    </contour>
  </outline>
</glyph>
<glyph name="equal" format="1">
  <advance width="484"/>
  <unicode hex="003D"/>
  <outline>
    <contour>
      <point x="76" y="97" type="line"/>
      <point x="407" y="97" type="line"/>
      <point x="407" y="143" type="line"/>
      <point x="76" y="143" type="line"/>
    </contour>
    <contour>
      <point x="76" y="302" type="line"/>
      <point x="407" y="302" type="line"/>
      <point x="407" y="348" type="line"/>
      <point x="76" y="348" type="line"/>
    </contour>
  </outline>
</glyph>
<glyph name="greater" format="1">
  <advance width="496"/>
  <unicode hex="003E"/>
  <outline>
    <contour>
      <point x="435" y="203" type="line"/>
      <point x="85" y="20" type="line"/>
      <point x="85" y="76" type="line"/>
      <point x="381" y="223" type="line"/>
      <point x="85" y="370" type="line"/>
      <point x="85" y="426" type="line"/>
      <point x="435" y="242" type="line"/>
    </contour>
  </outline>
</glyph>
<glyph name="question" format="1">
  <advance width="356"/>
  <unicode hex="003F"/>
  <outline>
    <contour>
      <point x="136" y="143" type="curve"/>
      <point x="169" y="154" type="line"/>
      <point x="159" y="186"/>
      <point x="152" y="218"/>
      <point x="152" y="232" type="curve" smooth="yes"/>
      <point x="152" y="293"/>
      <point x="316" y="294"/>
      <point x="316" y="404" type="curve" smooth="yes"/>
      <point x="316" y="468"/>
      <point x="267" y="550"/>
      <point x="165" y="550" type="curve" smooth="yes"/>
      <point x="124" y="550"/>
      <point x="86" y="537"/>
      <point x="60" y="521" type="curve"/>
      <point x="82" y="472" type="line"/>
      <point x="113" y="487"/>
      <point x="145" y="498"/>
      <point x="177" y="498" type="curve" smooth="yes"/>
      <point x="237" y="498"/>
      <point x="277" y="461"/>
      <point x="277" y="418" type="curve" smooth="yes"/>
      <point x="277" y="333"/>
      <point x="103" y="341"/>
      <point x="103" y="247" type="curve" smooth="yes"/>
      <point x="103" y="215"/>
      <point x="120" y="173"/>
    </contour>
    <contour>
      <point x="125" y="34" type="curve" smooth="yes"/>
      <point x="125" y="10"/>
      <point x="143" y="-8"/>
      <point x="167" y="-8" type="curve" smooth="yes"/>
      <point x="192" y="-8"/>
      <point x="211" y="10"/>
      <point x="211" y="34" type="curve" smooth="yes"/>
      <point x="211" y="59"/>
      <point x="192" y="78"/>
      <point x="167" y="78" type="curve" smooth="yes"/>
      <point x="143" y="78"/>
      <point x="125" y="59"/>
    </contour>
  </outline>
</glyph>
<glyph name="at" format="1">
  <advance width="796"/>
  <unicode hex="0040"/>
  <outline>
    <contour>
      <point x="74" y="134" type="curve" smooth="yes"/>
      <point x="74" y="-60"/>
      <point x="170" y="-185"/>
      <point x="346" y="-185" type="curve" smooth="yes"/>
      <point x="416" y="-185"/>
      <point x="483" y="-162"/>
      <point x="519" y="-133" type="curve"/>
      <point x="507" y="-107" type="line"/>
      <point x="478" y="-127"/>
      <point x="409" y="-143"/>
      <point x="356" y="-143" type="curve" smooth="yes"/>
      <point x="220" y="-143"/>
      <point x="121" y="-44"/>
      <point x="121" y="145" type="curve" smooth="yes"/>
      <point x="121" y="374"/>
      <point x="272" y="515"/>
      <point x="435" y="515" type="curve" smooth="yes"/>
      <point x="558" y="515"/>
      <point x="670" y="446"/>
      <point x="670" y="272" type="curve" smooth="yes"/>
      <point x="670" y="127"/>
      <point x="582" y="38"/>
      <point x="530" y="38" type="curve" smooth="yes"/>
      <point x="517" y="38"/>
      <point x="509" y="59"/>
      <point x="513" y="121" type="curve"/>
      <point x="519" y="194"/>
      <point x="541" y="313"/>
      <point x="551" y="360" type="curve"/>
      <point x="538" y="365"/>
      <point x="527" y="370"/>
      <point x="516" y="373" type="curve"/>
      <point x="507" y="375"/>
      <point x="504" y="364"/>
      <point x="501" y="355" type="curve"/>
      <point x="476" y="369"/>
      <point x="440" y="376"/>
      <point x="414" y="376" type="curve" smooth="yes"/>
      <point x="297" y="376"/>
      <point x="227" y="236"/>
      <point x="227" y="136" type="curve" smooth="yes"/>
      <point x="227" y="44"/>
      <point x="279" y="-10"/>
      <point x="327" y="-10" type="curve" smooth="yes"/>
      <point x="383" y="-10"/>
      <point x="439" y="76"/>
      <point x="470" y="161" type="curve"/>
      <point x="461" y="112"/>
      <point x="459" y="78"/>
      <point x="461" y="55" type="curve"/>
      <point x="463" y="13"/>
      <point x="490" y="-10"/>
      <point x="516" y="-10" type="curve" smooth="yes"/>
      <point x="576" y="-10"/>
      <point x="713" y="90"/>
      <point x="713" y="286" type="curve" smooth="yes"/>
      <point x="713" y="468"/>
      <point x="604" y="557"/>
      <point x="456" y="557" type="curve" smooth="yes"/>
      <point x="256" y="557"/>
      <point x="74" y="391"/>
    </contour>
    <contour>
      <point x="284" y="150" type="curve" smooth="yes"/>
      <point x="284" y="240"/>
      <point x="325" y="333"/>
      <point x="399" y="333" type="curve" smooth="yes"/>
      <point x="424" y="333"/>
      <point x="471" y="321"/>
      <point x="486" y="306" type="curve"/>
      <point x="481" y="279"/>
      <point x="473" y="250"/>
      <point x="463" y="221" type="curve" smooth="yes"/>
      <point x="430" y="126"/>
      <point x="376" y="44"/>
      <point x="339" y="44" type="curve" smooth="yes"/>
      <point x="298" y="44"/>
      <point x="284" y="103"/>
    </contour>
  </outline>
</glyph>
<glyph name="B" format="1">
  <advance width="498"/>
  <unicode hex="0042"/>
  <outline>
    <contour>
      <point x="37" y="0" type="line"/>
      <point x="128" y="0" type="line" smooth="yes"/>
      <point x="185" y="0"/>
      <point x="210" y="-4"/>
      <point x="246" y="-4" type="curve" smooth="yes"/>
      <point x="417" y="-4"/>
      <point x="469" y="78"/>
      <point x="469" y="164" type="curve" smooth="yes"/>
      <point x="469" y="243"/>
      <point x="414" y="296"/>
      <point x="320" y="293" type="curve"/>
      <point x="392" y="307"/>
      <point x="430" y="365"/>
      <point x="430" y="432" type="curve" smooth="yes"/>
      <point x="430" y="510"/>
      <point x="379" y="556"/>
      <point x="247" y="556" type="curve" smooth="yes"/>
      <point x="210" y="556"/>
      <point x="176" y="550"/>
      <point x="131" y="550" type="curve" smooth="yes"/>
      <point x="39" y="550" type="line"/>
      <point x="39" y="519" type="line"/>
      <point x="101" y="510" type="line"/>
      <point x="101" y="39" type="line"/>
      <point x="37" y="32" type="line"/>
    </contour>
    <contour>
      <point x="161" y="266" type="line"/>
      <point x="184" y="267"/>
      <point x="241" y="267"/>
      <point x="267" y="267" type="curve" smooth="yes"/>
      <point x="363" y="267"/>
      <point x="402" y="232"/>
      <point x="402" y="153" type="curve" smooth="yes"/>
      <point x="402" y="78"/>
      <point x="360" y="31"/>
      <point x="245" y="31" type="curve" smooth="yes"/>
      <point x="220" y="31"/>
      <point x="181" y="31"/>
      <point x="161" y="37" type="curve"/>
    </contour>
    <contour>
      <point x="161" y="518" type="line"/>
      <point x="176" y="518"/>
      <point x="202" y="522"/>
      <point x="239" y="522" type="curve" smooth="yes"/>
      <point x="337" y="522"/>
      <point x="368" y="487"/>
      <point x="368" y="418" type="curve" smooth="yes"/>
      <point x="368" y="345"/>
      <point x="327" y="305"/>
      <point x="253" y="305" type="curve" smooth="yes"/>
      <point x="233" y="305"/>
      <point x="184" y="304"/>
      <point x="161" y="306" type="curve"/>
    </contour>
  </outline>
</glyph>
<glyph name="C" format="1">
  <advance width="481"/>
  <unicode hex="0043"/>
  <outline>
    <contour>
      <point x="279" y="-8" type="curve" smooth="yes"/>
      <point x="368" y="-8"/>
      <point x="396" y="19"/>
      <point x="434" y="20" type="curve"/>
      <point x="453" y="119" type="line"/>
      <point x="416" y="124" type="line"/>
      <point x="387" y="55" type="line"/>
      <point x="367" y="39"/>
      <point x="342" y="27"/>
      <point x="281" y="27" type="curve" smooth="yes"/>
      <point x="154" y="27"/>
      <point x="96" y="150"/>
      <point x="96" y="284" type="curve" smooth="yes"/>
      <point x="96" y="436"/>
      <point x="175" y="521"/>
      <point x="276" y="521" type="curve" smooth="yes"/>
      <point x="334" y="521"/>
      <point x="373" y="510"/>
      <point x="386" y="498" type="curve"/>
      <point x="402" y="412" type="line"/>
      <point x="441" y="412" type="line"/>
      <point x="447" y="533" type="line"/>
      <point x="421" y="539"/>
      <point x="356" y="556"/>
      <point x="290" y="556" type="curve" smooth="yes"/>
      <point x="141" y="556"/>
      <point x="27" y="443"/>
      <point x="27" y="278" type="curve" smooth="yes"/>
      <point x="27" y="106"/>
      <point x="118" y="-8"/>
    </contour>
  </outline>
</glyph>
<glyph name="E" format="1">
  <advance width="481"/>
  <unicode hex="0045"/>
  <outline>
    <contour>
      <point x="37" y="0" type="line"/>
      <point x="439" y="0" type="line"/>
      <point x="461" y="125" type="line"/>
      <point x="426" y="136" type="line"/>
      <point x="388" y="44" type="line"/>
      <point x="161" y="38" type="line"/>
      <point x="161" y="266" type="line"/>
      <point x="298" y="264" type="line"/>
      <point x="307" y="201" type="line"/>
      <point x="344" y="201" type="line"/>
      <point x="344" y="364" type="line"/>
      <point x="307" y="364" type="line"/>
      <point x="298" y="303" type="line"/>
      <point x="161" y="301" type="line"/>
      <point x="161" y="516" type="line"/>
      <point x="360" y="513" type="line"/>
      <point x="380" y="441" type="line"/>
      <point x="416" y="441" type="line"/>
      <point x="405" y="550" type="line"/>
      <point x="39" y="550" type="line"/>
      <point x="39" y="519" type="line"/>
      <point x="101" y="510" type="line"/>
      <point x="101" y="39" type="line"/>
      <point x="37" y="32" type="line"/>
    </contour>
  </outline>
</glyph>
<glyph name="F" format="1">
  <advance width="457"/>
  <unicode hex="0046"/>
  <outline>
    <contour>
      <point x="40" y="0" type="line"/>
      <point x="278" y="0" type="line"/>
      <point x="278" y="32" type="line"/>
      <point x="161" y="39" type="line"/>
      <point x="161" y="261" type="line"/>
      <point x="310" y="259" type="line"/>
      <point x="322" y="196" type="line"/>
      <point x="356" y="196" type="line"/>
      <point x="356" y="359" type="line"/>
      <point x="322" y="359" type="line"/>
      <point x="310" y="299" type="line"/>
      <point x="161" y="297" type="line"/>
      <point x="161" y="516" type="line"/>
      <point x="370" y="513" type="line"/>
      <point x="390" y="429" type="line"/>
      <point x="431" y="429" type="line"/>
      <point x="424" y="550" type="line"/>
      <point x="36" y="550" type="line"/>
      <point x="36" y="519" type="line"/>
      <point x="101" y="510" type="line"/>
      <point x="101" y="39" type="line"/>
      <point x="40" y="32" type="line"/>
    </contour>
  </outline>
</glyph>
<glyph name="G" format="1">
  <advance width="547"/>
  <unicode hex="0047"/>
  <outline>
    <contour>
      <point x="290" y="-8" type="curve" smooth="yes"/>
      <point x="390" y="-8"/>
      <point x="447" y="28"/>
      <point x="487" y="30" type="curve"/>
      <point x="487" y="230" type="line"/>
      <point x="532" y="238" type="line"/>
      <point x="532" y="277" type="line"/>
      <point x="321" y="277" type="line"/>
      <point x="321" y="238" type="line"/>
      <point x="424" y="230" type="line"/>
      <point x="424" y="61" type="line"/>
      <point x="398" y="41"/>
      <point x="347" y="27"/>
      <point x="295" y="27" type="curve" smooth="yes"/>
      <point x="166" y="27"/>
      <point x="105" y="155"/>
      <point x="105" y="285" type="curve" smooth="yes"/>
      <point x="105" y="441"/>
      <point x="192" y="521"/>
      <point x="307" y="521" type="curve" smooth="yes"/>
      <point x="376" y="521"/>
      <point x="409" y="504"/>
      <point x="420" y="496" type="curve"/>
      <point x="436" y="410" type="line"/>
      <point x="475" y="410" type="line"/>
      <point x="481" y="533" type="line"/>
      <point x="456" y="539"/>
      <point x="390" y="556"/>
      <point x="313" y="556" type="curve" smooth="yes"/>
      <point x="159" y="556"/>
      <point x="36" y="452"/>
      <point x="36" y="266" type="curve" smooth="yes"/>
      <point x="36" y="110"/>
      <point x="130" y="-8"/>
    </contour>
  </outline>
</glyph>
<glyph name="H" format="1">
  <advance width="610"/>
  <unicode hex="0048"/>
  <outline>
    <contour>
      <point x="40" y="0" type="line"/>
      <point x="229" y="0" type="line"/>
      <point x="229" y="32" type="line"/>
      <point x="164" y="39" type="line"/>
      <point x="164" y="263" type="line"/>
      <point x="447" y="263" type="line"/>
      <point x="447" y="39" type="line"/>
      <point x="384" y="32" type="line"/>
      <point x="384" y="0" type="line"/>
      <point x="569" y="0" type="line"/>
      <point x="569" y="32" type="line"/>
      <point x="508" y="39" type="line"/>
      <point x="508" y="510" type="line"/>
      <point x="569" y="519" type="line"/>
      <point x="569" y="550" type="line"/>
      <point x="385" y="550" type="line"/>
      <point x="385" y="519" type="line"/>
      <point x="447" y="510" type="line"/>
      <point x="447" y="302" type="line"/>
      <point x="164" y="302" type="line"/>
      <point x="164" y="510" type="line"/>
      <point x="228" y="519" type="line"/>
      <point x="228" y="550" type="line"/>
      <point x="42" y="550" type="line"/>
      <point x="42" y="519" type="line"/>
      <point x="103" y="510" type="line"/>
      <point x="103" y="39" type="line"/>
      <point x="40" y="32" type="line"/>
    </contour>
  </outline>
</glyph>
<glyph name="I" format="1">
  <advance width="294"/>
  <unicode hex="0049"/>
  <outline>
    <contour>
      <point x="44" y="0" type="line"/>
      <point x="250" y="0" type="line"/>
      <point x="250" y="31" type="line"/>
      <point x="178" y="39" type="line"/>
      <point x="178" y="510" type="line"/>
      <point x="250" y="519" type="line"/>
      <point x="250" y="550" type="line"/>
      <point x="44" y="550" type="line"/>
      <point x="44" y="519" type="line"/>
      <point x="116" y="510" type="line"/>
      <point x="116" y="39" type="line"/>
      <point x="44" y="32" type="line"/>
    </contour>
  </outline>
</glyph>
<glyph name="J" format="1">
  <advance width="278"/>
  <unicode hex="004A"/>
  <outline>
    <contour>
      <point x="16" y="-128" type="line"/>
      <point x="79" y="-116"/>
      <point x="150" y="-70"/>
      <point x="167" y="16" type="curve" smooth="yes"/>
      <point x="176" y="61"/>
      <point x="174" y="121"/>
      <point x="174" y="204" type="curve" smooth="yes"/>
      <point x="174" y="510" type="line"/>
      <point x="245" y="519" type="line"/>
      <point x="245" y="550" type="line"/>
      <point x="39" y="550" type="line"/>
      <point x="39" y="519" type="line"/>
      <point x="113" y="510" type="line"/>
      <point x="113" y="187" type="line" smooth="yes"/>
      <point x="113" y="77"/>
      <point x="111" y="36"/>
      <point x="98" y="-7" type="curve" smooth="yes"/>
      <point x="82" y="-56"/>
      <point x="43" y="-90"/>
      <point x="-1" y="-101" type="curve"/>
    </contour>
  </outline>
</glyph>
<glyph name="K" format="1">
  <advance width="529"/>
  <unicode hex="004B"/>
  <outline>
    <contour>
      <point x="528" y="0" type="line"/>
      <point x="528" y="31" type="line"/>
      <point x="493" y="39" type="line"/>
      <point x="463" y="43"/>
      <point x="355" y="256"/>
      <point x="280" y="320" type="curve"/>
      <point x="450" y="510" type="line"/>
      <point x="504" y="519" type="line"/>
      <point x="504" y="550" type="line"/>
      <point x="333" y="550" type="line"/>
      <point x="333" y="519" type="line"/>
      <point x="396" y="510" type="line"/>
      <point x="164" y="241" type="line"/>
      <point x="164" y="510" type="line"/>
      <point x="227" y="519" type="line"/>
      <point x="227" y="550" type="line"/>
      <point x="41" y="550" type="line"/>
      <point x="41" y="519" type="line"/>
      <point x="103" y="510" type="line"/>
      <point x="103" y="39" type="line"/>
      <point x="39" y="32" type="line"/>
      <point x="39" y="0" type="line"/>
      <point x="233" y="0" type="line"/>
      <point x="233" y="31" type="line"/>
      <point x="164" y="39" type="line"/>
      <point x="164" y="188" type="line"/>
      <point x="244" y="279" type="line"/>
      <point x="313" y="209"/>
      <point x="401" y="0"/>
      <point x="439" y="0" type="curve" smooth="yes"/>
    </contour>
  </outline>
</glyph>
<glyph name="L" format="1">
  <advance width="467"/>
  <unicode hex="004C"/>
  <outline>
    <contour>
      <point x="39" y="0" type="line"/>
      <point x="424" y="0" type="line"/>
      <point x="452" y="154" type="line"/>
      <point x="416" y="160" type="line"/>
      <point x="375" y="44" type="line"/>
      <point x="164" y="39" type="line"/>
      <point x="164" y="510" type="line"/>
      <point x="238" y="519" type="line"/>
      <point x="238" y="550" type="line"/>
      <point x="41" y="550" type="line"/>
      <point x="41" y="519" type="line"/>
      <point x="103" y="510" type="line"/>
      <point x="103" y="39" type="line"/>
      <point x="39" y="32" type="line"/>
    </contour>
  </outline>
</glyph>
<glyph name="M" format="1">
  <advance width="731"/>
  <unicode hex="004D"/>
  <outline>
    <contour>
      <point x="1" y="0" type="line"/>
      <point x="188" y="0" type="line"/>
      <point x="188" y="32" type="line"/>
      <point x="116" y="39" type="line"/>
      <point x="149" y="376" type="line"/>
      <point x="164" y="524" type="line"/>
      <point x="211" y="381" type="line"/>
      <point x="350" y="27" type="line"/>
      <point x="376" y="27" type="line"/>
      <point x="498" y="422" type="line"/>
      <point x="528" y="524" type="line"/>
      <point x="547" y="376" type="line"/>
      <point x="601" y="39" type="line"/>
      <point x="532" y="32" type="line"/>
      <point x="532" y="0" type="line"/>
      <point x="730" y="0" type="line"/>
      <point x="730" y="32" type="line"/>
      <point x="664" y="39" type="line"/>
      <point x="584" y="510" type="line"/>
      <point x="669" y="519" type="line"/>
      <point x="669" y="550" type="line"/>
      <point x="497" y="550" type="line"/>
      <point x="390" y="208" type="line"/>
      <point x="367" y="109" type="line"/>
      <point x="339" y="208" type="line"/>
      <point x="214" y="550" type="line"/>
      <point x="41" y="550" type="line"/>
      <point x="41" y="519" type="line"/>
      <point x="124" y="510" type="line"/>
      <point x="66" y="39" type="line"/>
      <point x="1" y="32" type="line"/>
    </contour>
  </outline>
</glyph>
<glyph name="N" format="1">
  <advance width="590"/>
  <unicode hex="004E"/>
  <outline>
    <contour>
      <point x="41" y="0" type="line"/>
      <point x="211" y="0" type="line"/>
      <point x="211" y="32" type="line"/>
      <point x="144" y="39" type="line"/>
      <point x="144" y="480" type="line"/>
      <point x="204" y="381" type="line"/>
      <point x="470" y="0" type="line"/>
      <point x="508" y="0" type="line"/>
      <point x="508" y="510" type="line"/>
      <point x="569" y="519" type="line"/>
      <point x="569" y="550" type="line"/>
      <point x="400" y="550" type="line"/>
      <point x="400" y="519" type="line"/>
      <point x="465" y="510" type="line"/>
      <point x="465" y="96" type="line"/>
      <point x="423" y="170" type="line"/>
      <point x="161" y="550" type="line"/>
      <point x="41" y="550" type="line"/>
      <point x="41" y="519" type="line"/>
      <point x="101" y="510" type="line"/>
      <point x="101" y="39" type="line"/>
      <point x="41" y="32" type="line"/>
    </contour>
  </outline>
</glyph>
<glyph name="P" format="1">
  <advance width="475"/>
  <unicode hex="0050"/>
  <outline>
    <contour>
      <point x="39" y="0" type="line"/>
      <point x="267" y="0" type="line"/>
      <point x="267" y="32" type="line"/>
      <point x="164" y="39" type="line"/>
      <point x="164" y="213" type="line"/>
      <point x="170" y="212"/>
      <point x="213" y="210"/>
      <point x="242" y="210" type="curve" smooth="yes"/>
      <point x="360" y="210"/>
      <point x="454" y="280"/>
      <point x="454" y="400" type="curve" smooth="yes"/>
      <point x="454" y="498"/>
      <point x="408" y="556"/>
      <point x="263" y="556" type="curve" smooth="yes"/>
      <point x="199" y="556"/>
      <point x="182" y="550"/>
      <point x="133" y="550" type="curve" smooth="yes"/>
      <point x="44" y="550" type="line"/>
      <point x="44" y="519" type="line"/>
      <point x="103" y="510" type="line"/>
      <point x="103" y="39" type="line"/>
      <point x="39" y="32" type="line"/>
    </contour>
    <contour>
      <point x="164" y="250" type="curve"/>
      <point x="164" y="516" type="line"/>
      <point x="184" y="516"/>
      <point x="209" y="520"/>
      <point x="244" y="520" type="curve" smooth="yes"/>
      <point x="342" y="520"/>
      <point x="389" y="488"/>
      <point x="389" y="400" type="curve" smooth="yes"/>
      <point x="389" y="282"/>
      <point x="319" y="247"/>
      <point x="244" y="247" type="curve" smooth="yes"/>
      <point x="207" y="247"/>
      <point x="178" y="247"/>
    </contour>
  </outline>
</glyph>
<glyph name="Q" format="1">
  <advance width="537"/>
  <unicode hex="0051"/>
  <outline>
    <contour>
      <point x="263" y="-8" type="curve" smooth="yes"/>
      <point x="279" y="-8"/>
      <point x="296" y="-6"/>
      <point x="311" y="-2" type="curve"/>
      <point x="407" y="-19"/>
      <point x="476" y="-150"/>
      <point x="603" y="-150" type="curve" smooth="yes"/>
      <point x="607" y="-150" type="line" smooth="yes"/>
      <point x="633" y="-150"/>
      <point x="656" y="-134"/>
      <point x="664" y="-127" type="curve"/>
      <point x="656" y="-97" type="line"/>
      <point x="651" y="-97"/>
      <point x="647" y="-98"/>
      <point x="640" y="-98" type="curve" smooth="yes"/>
      <point x="639" y="-98" type="line" smooth="yes"/>
      <point x="543" y="-98"/>
      <point x="464" y="4"/>
      <point x="356" y="12" type="curve"/>
      <point x="446" y="52"/>
      <point x="508" y="147"/>
      <point x="508" y="280" type="curve" smooth="yes"/>
      <point x="508" y="447"/>
      <point x="426" y="556"/>
      <point x="276" y="556" type="curve" smooth="yes"/>
      <point x="139" y="556"/>
      <point x="30" y="446"/>
      <point x="30" y="271" type="curve" smooth="yes"/>
      <point x="30" y="104"/>
      <point x="113" y="-11"/>
    </contour>
    <contour>
      <point x="270" y="521" type="curve" smooth="yes"/>
      <point x="379" y="521"/>
      <point x="439" y="422"/>
      <point x="439" y="280" type="curve" smooth="yes"/>
      <point x="439" y="112"/>
      <point x="370" y="27"/>
      <point x="267" y="27" type="curve" smooth="yes"/>
      <point x="159" y="27"/>
      <point x="97" y="130"/>
      <point x="97" y="271" type="curve" smooth="yes"/>
      <point x="97" y="439"/>
      <point x="167" y="521"/>
    </contour>
  </outline>
</glyph>
<glyph name="S" format="1">
  <advance width="436"/>
  <unicode hex="0053"/>
  <outline>
    <contour>
      <point x="212" y="-8" type="curve" smooth="yes"/>
      <point x="334" y="-8"/>
      <point x="404" y="71"/>
      <point x="404" y="147" type="curve" smooth="yes"/>
      <point x="404" y="236"/>
      <point x="318" y="274"/>
      <point x="245" y="309" type="curve" smooth="yes"/>
      <point x="167" y="345"/>
      <point x="114" y="368"/>
      <point x="114" y="432" type="curve" smooth="yes"/>
      <point x="114" y="492"/>
      <point x="154" y="521"/>
      <point x="227" y="521" type="curve" smooth="yes"/>
      <point x="269" y="521"/>
      <point x="305" y="509"/>
      <point x="316" y="500" type="curve"/>
      <point x="329" y="408" type="line"/>
      <point x="366" y="408" type="line"/>
      <point x="370" y="530" type="line"/>
      <point x="349" y="533"/>
      <point x="296" y="556"/>
      <point x="230" y="556" type="curve" smooth="yes"/>
      <point x="127" y="556"/>
      <point x="56" y="500"/>
      <point x="56" y="416" type="curve" smooth="yes"/>
      <point x="56" y="321"/>
      <point x="145" y="281"/>
      <point x="207" y="255" type="curve" smooth="yes"/>
      <point x="281" y="223"/>
      <point x="339" y="196"/>
      <point x="339" y="131" type="curve" smooth="yes"/>
      <point x="339" y="68"/>
      <point x="297" y="28"/>
      <point x="216" y="28" type="curve" smooth="yes"/>
      <point x="164" y="28"/>
      <point x="121" y="44"/>
      <point x="104" y="61" type="curve"/>
      <point x="93" y="158" type="line"/>
      <point x="54" y="158" type="line"/>
      <point x="48" y="26" type="line"/>
      <point x="71" y="24"/>
      <point x="128" y="-8"/>
    </contour>
  </outline>
</glyph>
<glyph name="T" format="1">
  <advance width="503"/>
  <unicode hex="0054"/>
  <outline>
    <contour>
      <point x="121" y="0" type="line"/>
      <point x="388" y="0" type="line"/>
      <point x="388" y="32" type="line"/>
      <point x="282" y="39" type="line"/>
      <point x="282" y="517" type="line"/>
      <point x="425" y="513" type="line"/>
      <point x="446" y="362" type="line"/>
      <point x="485" y="362" type="line"/>
      <point x="477" y="550" type="line"/>
      <point x="26" y="550" type="line"/>
      <point x="13" y="362" type="line"/>
      <point x="54" y="362" type="line"/>
      <point x="78" y="513" type="line"/>
      <point x="219" y="517" type="line"/>
      <point x="219" y="39" type="line"/>
      <point x="121" y="32" type="line"/>
    </contour>
  </outline>
</glyph>
<glyph name="V" format="1">
  <advance width="489"/>
  <unicode hex="0056"/>
  <outline>
    <contour>
      <point x="229" y="-6" type="line"/>
      <point x="278" y="-6" type="line"/>
      <point x="454" y="510" type="line"/>
      <point x="501" y="519" type="line"/>
      <point x="501" y="550" type="line"/>
      <point x="345" y="550" type="line"/>
      <point x="345" y="519" type="line"/>
      <point x="404" y="510" type="line"/>
      <point x="291" y="155" type="line"/>
      <point x="263" y="53" type="line"/>
      <point x="232" y="153" type="line"/>
      <point x="101" y="510" type="line"/>
      <point x="169" y="519" type="line"/>
      <point x="169" y="550" type="line"/>
      <point x="-11" y="550" type="line"/>
      <point x="-11" y="519" type="line"/>
      <point x="35" y="510" type="line"/>
    </contour>
  </outline>
</glyph>
<glyph name="X" format="1">
  <advance width="524"/>
  <unicode hex="0058"/>
  <outline>
    <contour>
      <point x="5" y="0" type="line"/>
      <point x="200" y="0" type="line"/>
      <point x="200" y="32" type="line"/>
      <point x="124" y="39" type="line"/>
      <point x="253" y="253" type="line"/>
      <point x="388" y="39" type="line"/>
      <point x="316" y="32" type="line"/>
      <point x="316" y="0" type="line"/>
      <point x="522" y="0" type="line"/>
      <point x="522" y="32" type="line"/>
      <point x="463" y="39" type="line"/>
      <point x="295" y="286" type="line"/>
      <point x="450" y="510" type="line"/>
      <point x="508" y="519" type="line"/>
      <point x="508" y="550" type="line"/>
      <point x="331" y="550" type="line"/>
      <point x="331" y="519" type="line"/>
      <point x="398" y="510" type="line"/>
      <point x="275" y="310" type="line"/>
      <point x="150" y="510" type="line"/>
      <point x="226" y="519" type="line"/>
      <point x="226" y="550" type="line"/>
      <point x="19" y="550" type="line"/>
      <point x="19" y="519" type="line"/>
      <point x="76" y="510" type="line"/>
      <point x="232" y="279" type="line"/>
      <point x="70" y="39" type="line"/>
      <point x="5" y="32" type="line"/>
    </contour>
  </outline>
</glyph>
<glyph name="Y" format="1">
  <advance width="474"/>
  <unicode hex="0059"/>
  <outline>
    <contour>
      <point x="128" y="0" type="line"/>
      <point x="357" y="0" type="line"/>
      <point x="357" y="32" type="line"/>
      <point x="273" y="39" type="line"/>
      <point x="273" y="213" type="line"/>
      <point x="433" y="510" type="line"/>
      <point x="481" y="519" type="line"/>
      <point x="481" y="550" type="line"/>
      <point x="321" y="550" type="line"/>
      <point x="321" y="519" type="line"/>
      <point x="383" y="510" type="line"/>
      <point x="276" y="301" type="line"/>
      <point x="247" y="241" type="line"/>
      <point x="220" y="301" type="line"/>
      <point x="108" y="510" type="line"/>
      <point x="170" y="519" type="line"/>
      <point x="170" y="550" type="line"/>
      <point x="-7" y="550" type="line"/>
      <point x="-7" y="519" type="line"/>
      <point x="39" y="510" type="line"/>
      <point x="210" y="212" type="line"/>
      <point x="210" y="39" type="line"/>
      <point x="128" y="32" type="line"/>
    </contour>
  </outline>
</glyph>
<glyph name="Z" format="1">
  <advance width="484"/>
  <unicode hex="005A"/>
  <outline>
    <contour>
      <point x="49" y="0" type="line"/>
      <point x="434" y="0" type="line"/>
      <point x="452" y="156" type="line"/>
      <point x="416" y="164" type="line"/>
      <point x="379" y="47" type="line"/>
      <point x="105" y="35" type="line"/>
      <point x="153" y="93" type="line"/>
      <point x="444" y="525" type="line"/>
      <point x="427" y="553" type="line"/>
      <point x="79" y="553" type="line"/>
      <point x="63" y="419" type="line"/>
      <point x="97" y="415" type="line"/>
      <point x="133" y="511" type="line"/>
      <point x="369" y="519" type="line"/>
      <point x="327" y="465" type="line"/>
      <point x="31" y="29" type="line"/>
    </contour>
  </outline>
</glyph>
<glyph name="bracketleft" format="1">
  <advance width="316"/>
  <unicode hex="005B"/>
  <outline>
    <contour>
      <point x="73" y="-33" type="line"/>
      <point x="73" y="-91"/>
      <point x="88" y="-101"/>
      <point x="134" y="-101" type="curve" smooth="yes"/>
      <point x="173" y="-101"/>
      <point x="214" y="-96"/>
      <point x="245" y="-88" type="curve"/>
      <point x="245" y="-61" type="line"/>
      <point x="127" y="-61" type="line"/>
      <point x="127" y="556" type="line"/>
      <point x="245" y="556" type="line"/>
      <point x="245" y="583" type="line"/>
      <point x="216" y="589"/>
      <point x="176" y="596"/>
      <point x="134" y="596" type="curve" smooth="yes"/>
      <point x="88" y="596"/>
      <point x="73" y="585"/>
      <point x="73" y="527" type="curve" smooth="yes"/>
    </contour>
  </outline>
</glyph>
<glyph name="backslash" format="1">
  <advance width="319"/>
  <unicode hex="005C"/>
  <outline>
    <contour>
      <point x="289" y="-131" type="line"/>
      <point x="233" y="-131" type="line"/>
      <point x="26" y="579" type="line"/>
      <point x="81" y="579" type="line"/>
    </contour>
  </outline>
</glyph>
<glyph name="bracketright" format="1">
  <advance width="316"/>
  <unicode hex="005D"/>
  <outline>
    <contour>
      <point x="243" y="-33" type="line"/>
      <point x="243" y="-91"/>
      <point x="228" y="-101"/>
      <point x="182" y="-101" type="curve" smooth="yes"/>
      <point x="143" y="-101"/>
      <point x="102" y="-96"/>
      <point x="71" y="-88" type="curve"/>
      <point x="71" y="-61" type="line"/>
      <point x="189" y="-61" type="line"/>
      <point x="189" y="556" type="line"/>
      <point x="71" y="556" type="line"/>
      <point x="71" y="583" type="line"/>
      <point x="100" y="589"/>
      <point x="140" y="596"/>
      <point x="182" y="596" type="curve" smooth="yes"/>
      <point x="228" y="596"/>
      <point x="243" y="585"/>
      <point x="243" y="527" type="curve" smooth="yes"/>
    </contour>
  </outline>
</glyph>
<glyph name="asciicircum" format="1">
  <advance width="493"/>
  <unicode hex="005E"/>
  <outline>
    <contour>
      <point x="67" y="99" type="line"/>
      <point x="115" y="99" type="line"/>
      <point x="246" y="490" type="line"/>
      <point x="378" y="99" type="line"/>
      <point x="426" y="99" type="line"/>
      <point x="276" y="554" type="line"/>
      <point x="216" y="554" type="line"/>
    </contour>
  </outline>
</glyph>
<glyph name="grave" format="1">
  <advance width="247"/>
  <unicode hex="0060"/>
  <outline>
    <contour>
      <point x="140" y="488" type="curve"/>
      <point x="141" y="488" type="line"/>
      <point x="162" y="508" type="line"/>
      <point x="47" y="650" type="line"/>
      <point x="46" y="650" type="line"/>
      <point x="0" y="610" type="line"/>
      <point x="19" y="581"/>
      <point x="113" y="499"/>
    </contour>
  </outline>
</glyph>
<glyph name="a" format="1">
  <advance width="413"/>
  <unicode hex="0061"/>
  <outline>
    <contour>
      <point x="38" y="108" type="curve" smooth="yes"/>
      <point x="38" y="27"/>
      <point x="96" y="-8"/>
      <point x="161" y="-8" type="curve" smooth="yes"/>
      <point x="224" y="-8"/>
      <point x="273" y="36"/>
      <point x="291" y="52" type="curve"/>
      <point x="291" y="24" type="line" smooth="yes"/>
      <point x="291" y="-4"/>
      <point x="301" y="-7"/>
      <point x="322" y="-7" type="curve" smooth="yes"/>
      <point x="344" y="-7"/>
      <point x="375" y="0"/>
      <point x="391" y="4" type="curve"/>
      <point x="391" y="32" type="line"/>
      <point x="345" y="32" type="line"/>
      <point x="345" y="276" type="line" smooth="yes"/>
      <point x="345" y="380"/>
      <point x="310" y="419"/>
      <point x="210" y="419" type="curve" smooth="yes"/>
      <point x="142" y="419"/>
      <point x="64" y="377"/>
      <point x="50" y="364" type="curve"/>
      <point x="67" y="332" type="line"/>
      <point x="90" y="345"/>
      <point x="139" y="371"/>
      <point x="197" y="371" type="curve" smooth="yes"/>
      <point x="267" y="371"/>
      <point x="286" y="343"/>
      <point x="286" y="270" type="curve" smooth="yes"/>
      <point x="286" y="247" type="line"/>
      <point x="164" y="244"/>
      <point x="38" y="212"/>
    </contour>
    <contour>
      <point x="184" y="36" type="curve" smooth="yes"/>
      <point x="139" y="36"/>
      <point x="104" y="56"/>
      <point x="104" y="116" type="curve" smooth="yes"/>
      <point x="104" y="172"/>
      <point x="163" y="211"/>
      <point x="286" y="212" type="curve"/>
      <point x="286" y="81" type="line"/>
      <point x="256" y="58"/>
      <point x="213" y="36"/>
    </contour>
  </outline>
</glyph>
<glyph name="c" format="1">
  <advance width="377"/>
  <unicode hex="0063"/>
  <outline>
    <contour>
      <point x="25" y="201" type="curve" smooth="yes"/>
      <point x="26" y="84"/>
      <point x="89" y="-8"/>
      <point x="209" y="-8" type="curve" smooth="yes"/>
      <point x="260" y="-8"/>
      <point x="316" y="17"/>
      <point x="343" y="44" type="curve"/>
      <point x="331" y="69" type="line"/>
      <point x="309" y="53"/>
      <point x="267" y="35"/>
      <point x="222" y="35" type="curve" smooth="yes"/>
      <point x="147" y="35"/>
      <point x="88" y="95"/>
      <point x="89" y="224" type="curve" smooth="yes"/>
      <point x="90" y="325"/>
      <point x="139" y="387"/>
      <point x="216" y="387" type="curve" smooth="yes"/>
      <point x="246" y="387"/>
      <point x="276" y="383"/>
      <point x="279" y="365" type="curve" smooth="yes"/>
      <point x="295" y="294" type="line"/>
      <point x="332" y="294" type="line"/>
      <point x="335" y="400" type="line"/>
      <point x="316" y="408"/>
      <point x="274" y="422"/>
      <point x="231" y="422" type="curve" smooth="yes"/>
      <point x="92" y="422"/>
      <point x="24" y="318"/>
    </contour>
  </outline>
</glyph>
<glyph name="d" format="1">
  <advance width="458"/>
  <unicode hex="0064"/>
  <outline>
    <contour>
      <point x="196" y="-8" type="curve" smooth="yes"/>
      <point x="256" y="-8"/>
      <point x="301" y="22"/>
      <point x="327" y="51" type="curve"/>
      <point x="327" y="25" type="line" smooth="yes"/>
      <point x="327" y="-4"/>
      <point x="338" y="-7"/>
      <point x="358" y="-7" type="curve" smooth="yes"/>
      <point x="386" y="-7"/>
      <point x="410" y="0"/>
      <point x="429" y="4" type="curve"/>
      <point x="429" y="33" type="line"/>
      <point x="384" y="33" type="line"/>
      <point x="384" y="596" type="line"/>
      <point x="370" y="607" type="line"/>
      <point x="368" y="607" type="line"/>
      <point x="247" y="594" type="line"/>
      <point x="247" y="567" type="line"/>
      <point x="324" y="560" type="line"/>
      <point x="324" y="413" type="line"/>
      <point x="301" y="419"/>
      <point x="274" y="422"/>
      <point x="245" y="422" type="curve" smooth="yes"/>
      <point x="115" y="422"/>
      <point x="34" y="322"/>
      <point x="34" y="196" type="curve" smooth="yes"/>
      <point x="34" y="56"/>
      <point x="112" y="-8"/>
    </contour>
    <contour>
      <point x="221" y="39" type="curve" smooth="yes"/>
      <point x="155" y="39"/>
      <point x="98" y="86"/>
      <point x="99" y="206" type="curve"/>
      <point x="101" y="332"/>
      <point x="161" y="385"/>
      <point x="240" y="385" type="curve" smooth="yes"/>
      <point x="278" y="385"/>
      <point x="316" y="373"/>
      <point x="324" y="360" type="curve"/>
      <point x="324" y="87" type="line"/>
      <point x="307" y="66"/>
      <point x="267" y="39"/>
    </contour>
  </outline>
</glyph>
<glyph name="e" format="1">
  <advance width="400"/>
  <unicode hex="0065"/>
  <outline>
    <contour>
      <point x="213" y="-8" type="curve" smooth="yes"/>
      <point x="270" y="-8"/>
      <point x="330" y="16"/>
      <point x="359" y="44" type="curve"/>
      <point x="347" y="72" type="line"/>
      <point x="324" y="52"/>
      <point x="275" y="34"/>
      <point x="233" y="34" type="curve" smooth="yes"/>
      <point x="144" y="34"/>
      <point x="99" y="110"/>
      <point x="99" y="210" type="curve"/>
      <point x="362" y="210" type="line"/>
      <point x="366" y="227"/>
      <point x="367" y="247"/>
      <point x="367" y="276" type="curve"/>
      <point x="363" y="371"/>
      <point x="312" y="422"/>
      <point x="224" y="422" type="curve" smooth="yes"/>
      <point x="116" y="422"/>
      <point x="35" y="335"/>
      <point x="35" y="207" type="curve" smooth="yes"/>
      <point x="35" y="81"/>
      <point x="96" y="-8"/>
    </contour>
    <contour>
      <point x="210" y="384" type="curve" smooth="yes"/>
      <point x="276" y="384"/>
      <point x="301" y="339"/>
      <point x="302" y="278" type="curve" smooth="yes"/>
      <point x="302" y="267"/>
      <point x="301" y="256"/>
      <point x="300" y="245" type="curve"/>
      <point x="99" y="245" type="line"/>
      <point x="106" y="348"/>
      <point x="150" y="384"/>
    </contour>
  </outline>
</glyph>
<glyph name="g" format="1">
  <advance width="442"/>
  <unicode hex="0067"/>
  <outline>
    <contour>
      <point x="371" y="296" type="curve" smooth="yes"/>
      <point x="371" y="324"/>
      <point x="363" y="349"/>
      <point x="350" y="367" type="curve"/>
      <point x="434" y="367" type="line"/>
      <point x="434" y="422" type="line"/>
      <point x="410" y="422" type="line" smooth="yes"/>
      <point x="370" y="422"/>
      <point x="336" y="401"/>
      <point x="325" y="392" type="curve"/>
      <point x="297" y="413"/>
      <point x="258" y="422"/>
      <point x="215" y="422" type="curve"/>
      <point x="133" y="422"/>
      <point x="50" y="371"/>
      <point x="50" y="281" type="curve" smooth="yes"/>
      <point x="50" y="226"/>
      <point x="79" y="186"/>
      <point x="124" y="164" type="curve"/>
      <point x="93" y="148"/>
      <point x="68" y="114"/>
      <point x="68" y="76" type="curve" smooth="yes"/>
      <point x="68" y="46"/>
      <point x="81" y="27"/>
      <point x="103" y="15" type="curve"/>
      <point x="70" y="-3"/>
      <point x="34" y="-41"/>
      <point x="34" y="-89" type="curve" smooth="yes"/>
      <point x="34" y="-154"/>
      <point x="80" y="-200"/>
      <point x="209" y="-200" type="curve"/>
      <point x="210" y="-200" type="line"/>
      <point x="330" y="-200"/>
      <point x="426" y="-130"/>
      <point x="426" y="-50" type="curve" smooth="yes"/>
      <point x="426" y="12"/>
      <point x="386" y="52"/>
      <point x="291" y="52" type="curve" smooth="yes"/>
      <point x="204" y="52" type="line" smooth="yes"/>
      <point x="144" y="52"/>
      <point x="122" y="64"/>
      <point x="122" y="102" type="curve" smooth="yes"/>
      <point x="122" y="121"/>
      <point x="133" y="140"/>
      <point x="151" y="154" type="curve"/>
      <point x="168" y="150"/>
      <point x="187" y="147"/>
      <point x="207" y="147" type="curve"/>
      <point x="296" y="147"/>
      <point x="371" y="206"/>
    </contour>
    <contour>
      <point x="184" y="0" type="curve"/>
      <point x="276" y="0" type="line" smooth="yes"/>
      <point x="356" y="0"/>
      <point x="370" y="-25"/>
      <point x="370" y="-67" type="curve" smooth="yes"/>
      <point x="370" y="-127"/>
      <point x="291" y="-162"/>
      <point x="213" y="-162" type="curve" smooth="yes"/>
      <point x="213" y="-162" type="line" smooth="yes"/>
      <point x="121" y="-162"/>
      <point x="94" y="-130"/>
      <point x="94" y="-77" type="curve" smooth="yes"/>
      <point x="94" y="-42"/>
      <point x="110" y="-15"/>
      <point x="130" y="4" type="curve"/>
      <point x="146" y="1"/>
      <point x="164" y="0"/>
    </contour>
    <contour>
      <point x="308" y="287" type="curve" smooth="yes"/>
      <point x="308" y="220"/>
      <point x="279" y="184"/>
      <point x="214" y="184" type="curve"/>
      <point x="142" y="184"/>
      <point x="113" y="230"/>
      <point x="113" y="289" type="curve" smooth="yes"/>
      <point x="113" y="364"/>
      <point x="156" y="386"/>
      <point x="210" y="386" type="curve"/>
      <point x="273" y="386"/>
      <point x="308" y="356"/>
    </contour>
  </outline>
</glyph>
<glyph name="h" format="1">
  <advance width="483"/>
  <unicode hex="0068"/>
  <outline>
    <contour>
      <point x="30" y="0" type="line"/>
      <point x="190" y="0" type="line"/>
      <point x="190" y="32" type="line"/>
      <point x="136" y="38" type="line"/>
      <point x="136" y="326" type="line"/>
      <point x="167" y="350"/>
      <point x="217" y="375"/>
      <point x="259" y="375" type="curve" smooth="yes"/>
      <point x="333" y="375"/>
      <point x="344" y="334"/>
      <point x="344" y="247" type="curve" smooth="yes"/>
      <point x="344" y="38" type="line"/>
      <point x="293" y="32" type="line"/>
      <point x="293" y="0" type="line"/>
      <point x="459" y="0" type="line"/>
      <point x="459" y="32" type="line"/>
      <point x="404" y="38" type="line"/>
      <point x="404" y="247" type="line" smooth="yes"/>
      <point x="404" y="369"/>
      <point x="379" y="421"/>
      <point x="285" y="421" type="curve" smooth="yes"/>
      <point x="224" y="421"/>
      <point x="159" y="381"/>
      <point x="134" y="359" type="curve"/>
      <point x="136" y="421" type="line"/>
      <point x="136" y="597" type="line"/>
      <point x="121" y="607" type="line"/>
      <point x="120" y="607" type="line"/>
      <point x="10" y="594" type="line"/>
      <point x="10" y="567" type="line"/>
      <point x="76" y="560" type="line"/>
      <point x="76" y="37" type="line"/>
      <point x="30" y="32" type="line"/>
    </contour>
  </outline>
</glyph>
<glyph name="i" format="1">
  <advance width="240"/>
  <unicode hex="0069"/>
  <outline>
    <contour>
      <point x="31" y="0" type="line"/>
      <point x="221" y="0" type="line"/>
      <point x="221" y="32" type="line"/>
      <point x="156" y="37" type="line"/>
      <point x="156" y="408" type="line"/>
      <point x="141" y="420" type="line"/>
      <point x="140" y="420" type="line"/>
      <point x="39" y="408" type="line"/>
      <point x="39" y="375" type="line"/>
      <point x="96" y="362" type="line"/>
      <point x="96" y="38" type="line"/>
      <point x="31" y="32" type="line"/>
    </contour>
    <contour>
      <point x="114" y="496" type="curve"/>
      <point x="146" y="496"/>
      <point x="160" y="519"/>
      <point x="160" y="545" type="curve" smooth="yes"/>
      <point x="160" y="566"/>
      <point x="146" y="587"/>
      <point x="121" y="587" type="curve"/>
      <point x="92" y="587"/>
      <point x="77" y="563"/>
      <point x="77" y="539" type="curve" smooth="yes"/>
      <point x="77" y="516"/>
      <point x="92" y="496"/>
    </contour>
  </outline>
</glyph>
<glyph name="j" format="1">
  <advance width="218"/>
  <unicode hex="006A"/>
  <outline>
    <contour>
      <point x="92" y="19" type="line"/>
      <point x="92" y="-61"/>
      <point x="80" y="-125"/>
      <point x="35" y="-139" type="curve" smooth="yes"/>
      <point x="17" y="-145"/>
      <point x="0" y="-147"/>
      <point x="-7" y="-147" type="curve"/>
      <point x="-4" y="-177" type="line"/>
      <point x="0" y="-180"/>
      <point x="30" y="-181"/>
      <point x="38" y="-180" type="curve" smooth="yes"/>
      <point x="109" y="-173"/>
      <point x="151" y="-119"/>
      <point x="151" y="4" type="curve" smooth="yes"/>
      <point x="151" y="408" type="line"/>
      <point x="137" y="420" type="line"/>
      <point x="136" y="420" type="line"/>
      <point x="33" y="408" type="line"/>
      <point x="33" y="373" type="line"/>
      <point x="91" y="359" type="line"/>
    </contour>
    <contour>
      <point x="116" y="496" type="curve"/>
      <point x="148" y="496"/>
      <point x="162" y="519"/>
      <point x="162" y="545" type="curve" smooth="yes"/>
      <point x="162" y="566"/>
      <point x="148" y="587"/>
      <point x="123" y="587" type="curve"/>
      <point x="94" y="587"/>
      <point x="79" y="563"/>
      <point x="79" y="539" type="curve" smooth="yes"/>
      <point x="79" y="516"/>
      <point x="94" y="496"/>
    </contour>
  </outline>
</glyph>
<glyph name="k" format="1">
  <advance width="430"/>
  <unicode hex="006B"/>
  <outline>
    <contour>
      <point x="27" y="0" type="line"/>
      <point x="193" y="0" type="line"/>
      <point x="193" y="32" type="line"/>
      <point x="136" y="38" type="line"/>
      <point x="136" y="101" type="line"/>
      <point x="134" y="139" type="line"/>
      <point x="217" y="220" type="line"/>
      <point x="333" y="38" type="line"/>
      <point x="282" y="32" type="line"/>
      <point x="282" y="0" type="line"/>
      <point x="452" y="0" type="line"/>
      <point x="452" y="32" type="line"/>
      <point x="403" y="37" type="line"/>
      <point x="256" y="253" type="line"/>
      <point x="376" y="371" type="line"/>
      <point x="433" y="381" type="line"/>
      <point x="433" y="411" type="line"/>
      <point x="262" y="411" type="line"/>
      <point x="262" y="381" type="line"/>
      <point x="318" y="371" type="line"/>
      <point x="134" y="182" type="line"/>
      <point x="136" y="229" type="line"/>
      <point x="136" y="597" type="line"/>
      <point x="122" y="607" type="line"/>
      <point x="121" y="607" type="line"/>
      <point x="15" y="594" type="line"/>
      <point x="15" y="567" type="line"/>
      <point x="76" y="560" type="line"/>
      <point x="76" y="38" type="line"/>
      <point x="27" y="32" type="line"/>
    </contour>
  </outline>
</glyph>
<glyph name="l" format="1">
  <advance width="244"/>
  <unicode hex="006C"/>
  <outline>
    <contour>
      <point x="29" y="0" type="line"/>
      <point x="224" y="0" type="line"/>
      <point x="224" y="32" type="line"/>
      <point x="154" y="37" type="line"/>
      <point x="154" y="597" type="line"/>
      <point x="140" y="607" type="line"/>
      <point x="139" y="607" type="line"/>
      <point x="31" y="594" type="line"/>
      <point x="31" y="567" type="line"/>
      <point x="94" y="560" type="line"/>
      <point x="94" y="38" type="line"/>
      <point x="29" y="32" type="line"/>
    </contour>
  </outline>
</glyph>
<glyph name="m" format="1">
  <advance width="729"/>
  <unicode hex="006D"/>
  <outline>
    <contour>
      <point x="33" y="0" type="line"/>
      <point x="193" y="0" type="line"/>
      <point x="193" y="32" type="line"/>
      <point x="140" y="38" type="line"/>
      <point x="140" y="326" type="line"/>
      <point x="170" y="350"/>
      <point x="220" y="375"/>
      <point x="261" y="375" type="curve" smooth="yes"/>
      <point x="333" y="375"/>
      <point x="343" y="333"/>
      <point x="343" y="247" type="curve" smooth="yes"/>
      <point x="343" y="38" type="line"/>
      <point x="290" y="32" type="line"/>
      <point x="290" y="0" type="line"/>
      <point x="459" y="0" type="line"/>
      <point x="459" y="32" type="line"/>
      <point x="403" y="38" type="line"/>
      <point x="403" y="247" type="line" smooth="yes"/>
      <point x="403" y="282"/>
      <point x="401" y="312"/>
      <point x="396" y="336" type="curve"/>
      <point x="421" y="354"/>
      <point x="465" y="376"/>
      <point x="504" y="376" type="curve" smooth="yes"/>
      <point x="580" y="376"/>
      <point x="593" y="331"/>
      <point x="593" y="246" type="curve" smooth="yes"/>
      <point x="593" y="38" type="line"/>
      <point x="543" y="32" type="line"/>
      <point x="543" y="0" type="line"/>
      <point x="709" y="0" type="line"/>
      <point x="709" y="32" type="line"/>
      <point x="653" y="38" type="line"/>
      <point x="653" y="248" type="line" smooth="yes"/>
      <point x="653" y="368"/>
      <point x="628" y="421"/>
      <point x="534" y="421" type="curve" smooth="yes"/>
      <point x="481" y="421"/>
      <point x="413" y="388"/>
      <point x="386" y="366" type="curve"/>
      <point x="369" y="404"/>
      <point x="339" y="421"/>
      <point x="285" y="421" type="curve" smooth="yes"/>
      <point x="233" y="421"/>
      <point x="165" y="385"/>
      <point x="133" y="357" type="curve"/>
      <point x="133" y="376" type="line"/>
      <point x="133" y="408" type="line"/>
      <point x="119" y="420" type="line"/>
      <point x="117" y="420" type="line"/>
      <point x="23" y="408" type="line"/>
      <point x="23" y="375" type="line"/>
      <point x="80" y="362" type="line"/>
      <point x="80" y="38" type="line"/>
      <point x="33" y="32" type="line"/>
    </contour>
  </outline>
</glyph>
<glyph name="n" format="1">
  <advance width="484"/>
  <unicode hex="006E"/>
  <outline>
    <contour>
      <point x="30" y="0" type="line"/>
      <point x="194" y="0" type="line"/>
      <point x="194" y="32" type="line"/>
      <point x="140" y="38" type="line"/>
      <point x="140" y="325" type="line"/>
      <point x="170" y="349"/>
      <point x="221" y="375"/>
      <point x="264" y="375" type="curve" smooth="yes"/>
      <point x="336" y="375"/>
      <point x="347" y="333"/>
      <point x="347" y="247" type="curve" smooth="yes"/>
      <point x="347" y="37" type="line"/>
      <point x="296" y="32" type="line"/>
      <point x="296" y="0" type="line"/>
      <point x="463" y="0" type="line"/>
      <point x="463" y="32" type="line"/>
      <point x="407" y="37" type="line"/>
      <point x="407" y="247" type="line" smooth="yes"/>
      <point x="407" y="366"/>
      <point x="385" y="421"/>
      <point x="289" y="421" type="curve" smooth="yes"/>
      <point x="233" y="421"/>
      <point x="165" y="385"/>
      <point x="133" y="357" type="curve"/>
      <point x="133" y="376" type="line"/>
      <point x="133" y="408" type="line"/>
      <point x="119" y="420" type="line"/>
      <point x="117" y="420" type="line"/>
      <point x="23" y="408" type="line"/>
      <point x="23" y="375" type="line"/>
      <point x="80" y="362" type="line"/>
      <point x="80" y="38" type="line"/>
      <point x="30" y="32" type="line"/>
    </contour>
  </outline>
</glyph>
<glyph name="o" format="1">
  <advance width="441"/>
  <unicode hex="006F"/>
  <outline>
    <contour>
      <point x="220" y="30" type="curve" smooth="yes"/>
      <point x="134" y="30"/>
      <point x="101" y="113"/>
      <point x="101" y="213" type="curve" smooth="yes"/>
      <point x="101" y="326"/>
      <point x="145" y="384"/>
      <point x="221" y="384" type="curve" smooth="yes"/>
      <point x="307" y="384"/>
      <point x="339" y="299"/>
      <point x="339" y="201" type="curve" smooth="yes"/>
      <point x="339" y="89"/>
      <point x="295" y="30"/>
    </contour>
    <contour>
      <point x="33" y="208" type="curve" smooth="yes"/>
      <point x="33" y="92"/>
      <point x="84" y="-8"/>
      <point x="216" y="-8" type="curve" smooth="yes"/>
      <point x="311" y="-8"/>
      <point x="407" y="71"/>
      <point x="407" y="206" type="curve" smooth="yes"/>
      <point x="407" y="322"/>
      <point x="356" y="422"/>
      <point x="224" y="422" type="curve" smooth="yes"/>
      <point x="129" y="422"/>
      <point x="33" y="343"/>
    </contour>
  </outline>
</glyph>
<glyph name="p" format="1">
  <advance width="462"/>
  <unicode hex="0070"/>
  <outline>
    <contour>
      <point x="428" y="221" type="curve" smooth="yes"/>
      <point x="428" y="363"/>
      <point x="348" y="422"/>
      <point x="266" y="422" type="curve" smooth="yes"/>
      <point x="204" y="422"/>
      <point x="158" y="390"/>
      <point x="132" y="363" type="curve"/>
      <point x="132" y="408" type="line"/>
      <point x="119" y="420" type="line"/>
      <point x="117" y="420" type="line"/>
      <point x="22" y="408" type="line"/>
      <point x="22" y="375" type="line"/>
      <point x="80" y="362" type="line"/>
      <point x="80" y="-139" type="line"/>
      <point x="23" y="-147" type="line"/>
      <point x="23" y="-179" type="line"/>
      <point x="221" y="-179" type="line"/>
      <point x="221" y="-147" type="line"/>
      <point x="139" y="-139" type="line"/>
      <point x="139" y="-59" type="line"/>
      <point x="138" y="4" type="line"/>
      <point x="158" y="-4"/>
      <point x="193" y="-8"/>
      <point x="219" y="-8" type="curve" smooth="yes"/>
      <point x="346" y="-8"/>
      <point x="428" y="93"/>
    </contour>
    <contour>
      <point x="241" y="377" type="curve" smooth="yes"/>
      <point x="307" y="377"/>
      <point x="364" y="328"/>
      <point x="364" y="210" type="curve"/>
      <point x="361" y="84"/>
      <point x="301" y="27"/>
      <point x="222" y="27" type="curve" smooth="yes"/>
      <point x="181" y="27"/>
      <point x="147" y="40"/>
      <point x="139" y="52" type="curve"/>
      <point x="139" y="334" type="line"/>
      <point x="156" y="353"/>
      <point x="195" y="377"/>
    </contour>
  </outline>
</glyph>
<glyph name="q" format="1">
  <advance width="448"/>
  <unicode hex="0071"/>
  <outline>
    <contour>
      <point x="197" y="-8" type="curve" smooth="yes"/>
      <point x="256" y="-8"/>
      <point x="299" y="21"/>
      <point x="325" y="47" type="curve"/>
      <point x="323" y="-17" type="line"/>
      <point x="323" y="-141" type="line"/>
      <point x="240" y="-149" type="line"/>
      <point x="240" y="-179" type="line"/>
      <point x="435" y="-179" type="line"/>
      <point x="435" y="-149" type="line"/>
      <point x="383" y="-141" type="line"/>
      <point x="383" y="408" type="line"/>
      <point x="371" y="420" type="line"/>
      <point x="370" y="420" type="line"/>
      <point x="337" y="410" type="line"/>
      <point x="312" y="416"/>
      <point x="279" y="422"/>
      <point x="245" y="422" type="curve" smooth="yes"/>
      <point x="115" y="422"/>
      <point x="34" y="324"/>
      <point x="34" y="198" type="curve" smooth="yes"/>
      <point x="34" y="56"/>
      <point x="114" y="-8"/>
    </contour>
    <contour>
      <point x="221" y="35" type="curve" smooth="yes"/>
      <point x="154" y="35"/>
      <point x="98" y="90"/>
      <point x="99" y="208" type="curve"/>
      <point x="101" y="334"/>
      <point x="161" y="390"/>
      <point x="239" y="390" type="curve" smooth="yes"/>
      <point x="279" y="390"/>
      <point x="317" y="376"/>
      <point x="323" y="364" type="curve"/>
      <point x="323" y="79" type="line"/>
      <point x="307" y="62"/>
      <point x="270" y="35"/>
    </contour>
  </outline>
</glyph>
<glyph name="r" format="1">
  <advance width="333"/>
  <unicode hex="0072"/>
  <outline>
    <contour>
      <point x="36" y="0" type="line"/>
      <point x="254" y="0" type="line"/>
      <point x="254" y="30" type="line"/>
      <point x="156" y="36" type="line"/>
      <point x="156" y="317" type="line"/>
      <point x="179" y="334"/>
      <point x="219" y="361"/>
      <point x="282" y="361" type="curve" smooth="yes"/>
      <point x="299" y="361"/>
      <point x="313" y="356"/>
      <point x="316" y="354" type="curve"/>
      <point x="316" y="419" type="line"/>
      <point x="311" y="421"/>
      <point x="304" y="422"/>
      <point x="294" y="422" type="curve" smooth="yes"/>
      <point x="213" y="422"/>
      <point x="158" y="350"/>
      <point x="149" y="340" type="curve"/>
      <point x="148" y="340" type="line"/>
      <point x="148" y="382" type="line"/>
      <point x="148" y="408" type="line"/>
      <point x="134" y="420" type="line"/>
      <point x="133" y="420" type="line"/>
      <point x="39" y="408" type="line"/>
      <point x="39" y="375" type="line"/>
      <point x="96" y="362" type="line"/>
      <point x="96" y="36" type="line"/>
      <point x="36" y="31" type="line"/>
    </contour>
  </outline>
</glyph>
<glyph name="s" format="1">
  <advance width="367"/>
  <unicode hex="0073"/>
  <outline>
    <contour>
      <point x="43" y="23" type="line"/>
      <point x="67" y="10"/>
      <point x="130" y="-8"/>
      <point x="176" y="-8" type="curve" smooth="yes"/>
      <point x="267" y="-8"/>
      <point x="330" y="36"/>
      <point x="330" y="110" type="curve" smooth="yes"/>
      <point x="330" y="184"/>
      <point x="267" y="210"/>
      <point x="201" y="236" type="curve" smooth="yes"/>
      <point x="153" y="257"/>
      <point x="104" y="271"/>
      <point x="104" y="327" type="curve" smooth="yes"/>
      <point x="104" y="364"/>
      <point x="138" y="387"/>
      <point x="186" y="386" type="curve" smooth="yes"/>
      <point x="219" y="386"/>
      <point x="250" y="376"/>
      <point x="256" y="363" type="curve"/>
      <point x="270" y="309" type="line"/>
      <point x="306" y="309" type="line"/>
      <point x="306" y="397" type="line"/>
      <point x="290" y="403"/>
      <point x="250" y="420"/>
      <point x="192" y="420" type="curve" smooth="yes"/>
      <point x="115" y="420"/>
      <point x="48" y="380"/>
      <point x="48" y="315" type="curve" smooth="yes"/>
      <point x="48" y="247"/>
      <point x="85" y="212"/>
      <point x="163" y="184" type="curve" smooth="yes"/>
      <point x="236" y="157"/>
      <point x="274" y="137"/>
      <point x="274" y="93" type="curve" smooth="yes"/>
      <point x="274" y="53"/>
      <point x="250" y="27"/>
      <point x="184" y="27" type="curve" smooth="yes"/>
      <point x="143" y="27"/>
      <point x="104" y="43"/>
      <point x="94" y="59" type="curve"/>
      <point x="83" y="116" type="line"/>
      <point x="43" y="116" type="line"/>
    </contour>
  </outline>
</glyph>
<glyph name="t" format="1">
  <advance width="301"/>
  <unicode hex="0074"/>
  <outline>
    <contour>
      <point x="82" y="75" type="line"/>
      <point x="82" y="10"/>
      <point x="113" y="-8"/>
      <point x="161" y="-8" type="curve"/>
      <point x="202" y="-8"/>
      <point x="264" y="13"/>
      <point x="286" y="30" type="curve"/>
      <point x="277" y="58" type="line"/>
      <point x="276" y="58" type="line"/>
      <point x="260" y="50"/>
      <point x="219" y="39"/>
      <point x="188" y="39" type="curve"/>
      <point x="147" y="39"/>
      <point x="142" y="45"/>
      <point x="142" y="127" type="curve" smooth="yes"/>
      <point x="142" y="367" type="line"/>
      <point x="273" y="367" type="line"/>
      <point x="273" y="411" type="line"/>
      <point x="142" y="411" type="line"/>
      <point x="142" y="516" type="line"/>
      <point x="108" y="516" type="line"/>
      <point x="105" y="503"/>
      <point x="92" y="448"/>
      <point x="85" y="431" type="curve" smooth="yes"/>
      <point x="81" y="419"/>
      <point x="77" y="413"/>
      <point x="69" y="408" type="curve"/>
      <point x="63" y="404"/>
      <point x="39" y="399"/>
      <point x="26" y="396" type="curve"/>
      <point x="26" y="367" type="line"/>
      <point x="82" y="367" type="line"/>
    </contour>
  </outline>
</glyph>
<glyph name="u" format="1">
  <advance width="465"/>
  <unicode hex="0075"/>
  <outline>
    <contour>
      <point x="373" y="-7" type="curve" smooth="yes"/>
      <point x="399" y="-7"/>
      <point x="418" y="0"/>
      <point x="434" y="4" type="curve"/>
      <point x="435" y="33" type="line"/>
      <point x="389" y="33" type="line"/>
      <point x="389" y="411" type="line"/>
      <point x="372" y="420" type="line"/>
      <point x="273" y="410" type="line"/>
      <point x="273" y="383" type="line"/>
      <point x="329" y="370" type="line"/>
      <point x="329" y="84" type="line"/>
      <point x="306" y="64"/>
      <point x="264" y="37"/>
      <point x="216" y="37" type="curve" smooth="yes"/>
      <point x="147" y="37"/>
      <point x="133" y="73"/>
      <point x="133" y="161" type="curve" smooth="yes"/>
      <point x="133" y="411" type="line"/>
      <point x="119" y="420" type="line"/>
      <point x="29" y="410" type="line"/>
      <point x="29" y="383" type="line"/>
      <point x="73" y="370" type="line"/>
      <point x="73" y="153" type="line"/>
      <point x="73" y="40"/>
      <point x="106" y="-8"/>
      <point x="197" y="-8" type="curve" smooth="yes"/>
      <point x="252" y="-8"/>
      <point x="306" y="27"/>
      <point x="336" y="53" type="curve"/>
      <point x="336" y="24" type="line"/>
      <point x="336" y="-1"/>
      <point x="349" y="-7"/>
    </contour>
  </outline>
</glyph>
<glyph name="v" format="1">
  <advance width="419"/>
  <unicode hex="0076"/>
  <outline>
    <contour>
      <point x="186" y="-6" type="line"/>
      <point x="236" y="-6" type="line"/>
      <point x="381" y="371" type="line"/>
      <point x="419" y="381" type="line"/>
      <point x="419" y="411" type="line"/>
      <point x="278" y="411" type="line"/>
      <point x="278" y="381" type="line"/>
      <point x="330" y="371" type="line"/>
      <point x="250" y="147" type="line"/>
      <point x="219" y="46" type="line"/>
      <point x="183" y="151" type="line"/>
      <point x="104" y="371" type="line"/>
      <point x="159" y="381" type="line"/>
      <point x="159" y="411" type="line"/>
      <point x="1" y="411" type="line"/>
      <point x="1" y="381" type="line"/>
      <point x="36" y="371" type="line"/>
    </contour>
  </outline>
</glyph>
<glyph name="w" format="1">
  <advance width="621"/>
  <unicode hex="0077"/>
  <outline>
    <contour>
      <point x="156" y="-6" type="line"/>
      <point x="214" y="-6" type="line"/>
      <point x="292" y="270" type="line"/>
      <point x="310" y="363" type="line"/>
      <point x="330" y="270" type="line"/>
      <point x="411" y="-6" type="line"/>
      <point x="471" y="-6" type="line"/>
      <point x="587" y="371" type="line"/>
      <point x="627" y="381" type="line"/>
      <point x="627" y="411" type="line"/>
      <point x="482" y="411" type="line"/>
      <point x="482" y="381" type="line"/>
      <point x="539" y="371" type="line"/>
      <point x="474" y="141" type="line"/>
      <point x="447" y="38" type="line"/>
      <point x="424" y="142" type="line"/>
      <point x="350" y="411" type="line"/>
      <point x="288" y="411" type="line"/>
      <point x="214" y="142" type="line"/>
      <point x="190" y="39" type="line"/>
      <point x="165" y="141" type="line"/>
      <point x="99" y="372" type="line"/>
      <point x="159" y="381" type="line"/>
      <point x="159" y="411" type="line"/>
      <point x="-2" y="411" type="line"/>
      <point x="-2" y="381" type="line"/>
      <point x="37" y="372" type="line"/>
    </contour>
  </outline>
</glyph>
<glyph name="x" format="1">
  <advance width="436"/>
  <unicode hex="0078"/>
  <outline>
    <contour>
      <point x="6" y="0" type="line"/>
      <point x="176" y="0" type="line"/>
      <point x="176" y="31" type="line"/>
      <point x="110" y="38" type="line"/>
      <point x="189" y="147" type="line"/>
      <point x="210" y="180" type="line"/>
      <point x="233" y="147" type="line"/>
      <point x="307" y="38" type="line"/>
      <point x="254" y="31" type="line"/>
      <point x="254" y="0" type="line"/>
      <point x="430" y="0" type="line"/>
      <point x="430" y="31" type="line"/>
      <point x="385" y="37" type="line"/>
      <point x="252" y="213" type="line"/>
      <point x="379" y="372" type="line"/>
      <point x="424" y="381" type="line"/>
      <point x="424" y="411" type="line"/>
      <point x="271" y="411" type="line"/>
      <point x="271" y="381" type="line"/>
      <point x="328" y="372" type="line"/>
      <point x="250" y="267" type="line"/>
      <point x="230" y="236" type="line"/>
      <point x="208" y="268" type="line"/>
      <point x="135" y="372" type="line"/>
      <point x="189" y="381" type="line"/>
      <point x="189" y="411" type="line"/>
      <point x="18" y="411" type="line"/>
      <point x="18" y="381" type="line"/>
      <point x="61" y="372" type="line"/>
      <point x="188" y="207" type="line"/>
      <point x="57" y="38" type="line"/>
      <point x="6" y="31" type="line"/>
    </contour>
  </outline>
</glyph>
<glyph name="y" format="1">
  <advance width="424"/>
  <unicode hex="0079"/>
  <outline>
    <contour>
      <point x="89" y="-184" type="curve" smooth="yes"/>
      <point x="175" y="-184"/>
      <point x="205" y="-126"/>
      <point x="251" y="-12" type="curve"/>
      <point x="264" y="17"/>
      <point x="292" y="101"/>
      <point x="380" y="372" type="curve"/>
      <point x="419" y="381" type="line"/>
      <point x="419" y="411" type="line"/>
      <point x="276" y="411" type="line"/>
      <point x="276" y="381" type="line"/>
      <point x="328" y="372" type="line"/>
      <point x="259" y="146" type="line"/>
      <point x="221" y="24" type="line"/>
      <point x="183" y="145" type="line"/>
      <point x="105" y="372" type="line"/>
      <point x="165" y="381" type="line"/>
      <point x="165" y="411" type="line"/>
      <point x="1" y="411" type="line"/>
      <point x="1" y="381" type="line"/>
      <point x="36" y="371" type="line"/>
      <point x="178" y="0" type="line"/>
      <point x="210" y="0" type="line"/>
      <point x="170" y="-114"/>
      <point x="130" y="-129"/>
      <point x="90" y="-129" type="curve" smooth="yes"/>
      <point x="77" y="-129"/>
      <point x="59" y="-127"/>
      <point x="53" y="-124" type="curve"/>
      <point x="53" y="-179" type="line"/>
      <point x="59" y="-182"/>
      <point x="76" y="-184"/>
    </contour>
  </outline>
</glyph>
<glyph name="z" format="1">
  <advance width="408"/>
  <unicode hex="007A"/>
  <outline>
    <contour>
      <point x="23" y="28" type="line"/>
      <point x="36" y="0" type="line"/>
      <point x="364" y="0" type="line"/>
      <point x="376" y="121" type="line"/>
      <point x="338" y="125" type="line"/>
      <point x="314" y="44" type="line"/>
      <point x="93" y="38" type="line"/>
      <point x="140" y="80" type="line"/>
      <point x="372" y="384" type="line"/>
      <point x="359" y="411" type="line"/>
      <point x="51" y="411" type="line"/>
      <point x="51" y="298" type="line"/>
      <point x="92" y="298" type="line"/>
      <point x="102" y="367" type="line"/>
      <point x="304" y="373" type="line"/>
      <point x="258" y="330" type="line"/>
    </contour>
  </outline>
</glyph>
<glyph name="braceleft" format="1">
  <advance width="371"/>
  <unicode hex="007B"/>
  <outline>
    <contour>
      <point x="110" y="-9" type="curve" smooth="yes"/>
      <point x="110" y="-68"/>
      <point x="135" y="-101"/>
      <point x="221" y="-101" type="curve" smooth="yes"/>
      <point x="255" y="-101"/>
      <point x="284" y="-96"/>
      <point x="311" y="-88" type="curve"/>
      <point x="311" y="-59" type="line"/>
      <point x="246" y="-61" type="line"/>
      <point x="199" y="-61"/>
      <point x="170" y="-50"/>
      <point x="170" y="2" type="curve" smooth="yes"/>
      <point x="170" y="50"/>
      <point x="208" y="116"/>
      <point x="208" y="170" type="curve" smooth="yes"/>
      <point x="208" y="217"/>
      <point x="173" y="242"/>
      <point x="124" y="249" type="curve"/>
      <point x="173" y="256"/>
      <point x="208" y="278"/>
      <point x="208" y="325" type="curve" smooth="yes"/>
      <point x="208" y="379"/>
      <point x="170" y="445"/>
      <point x="170" y="493" type="curve" smooth="yes"/>
      <point x="170" y="544"/>
      <point x="200" y="556"/>
      <point x="246" y="556" type="curve"/>
      <point x="311" y="554" type="line"/>
      <point x="311" y="584" type="line"/>
      <point x="284" y="591"/>
      <point x="255" y="596"/>
      <point x="221" y="596" type="curve" smooth="yes"/>
      <point x="135" y="596"/>
      <point x="110" y="564"/>
      <point x="110" y="504" type="curve" smooth="yes"/>
      <point x="110" y="435"/>
      <point x="158" y="385"/>
      <point x="158" y="329" type="curve" smooth="yes"/>
      <point x="158" y="293"/>
      <point x="147" y="276"/>
      <point x="60" y="277" type="curve"/>
      <point x="60" y="225" type="line"/>
      <point x="147" y="226"/>
      <point x="158" y="202"/>
      <point x="158" y="167" type="curve" smooth="yes"/>
      <point x="158" y="110"/>
      <point x="110" y="61"/>
    </contour>
  </outline>
</glyph>
<glyph name="bar" format="1">
  <advance width="313"/>
  <unicode hex="007C"/>
  <outline>
    <contour>
      <point x="130" y="-67" type="line"/>
      <point x="183" y="-67" type="line"/>
      <point x="183" y="644" type="line"/>
      <point x="130" y="644" type="line"/>
    </contour>
  </outline>
</glyph>
<glyph name="braceright" format="1">
  <advance width="371"/>
  <unicode hex="007D"/>
  <outline>
    <contour>
      <point x="261" y="-9" type="curve" smooth="yes"/>
      <point x="261" y="-68"/>
      <point x="236" y="-101"/>
      <point x="150" y="-101" type="curve" smooth="yes"/>
      <point x="116" y="-101"/>
      <point x="87" y="-96"/>
      <point x="60" y="-88" type="curve"/>
      <point x="60" y="-59" type="line"/>
      <point x="125" y="-61" type="line"/>
      <point x="172" y="-61"/>
      <point x="201" y="-50"/>
      <point x="201" y="2" type="curve" smooth="yes"/>
      <point x="201" y="50"/>
      <point x="163" y="116"/>
      <point x="163" y="170" type="curve" smooth="yes"/>
      <point x="163" y="217"/>
      <point x="198" y="242"/>
      <point x="247" y="249" type="curve"/>
      <point x="198" y="256"/>
      <point x="163" y="278"/>
      <point x="163" y="325" type="curve" smooth="yes"/>
      <point x="163" y="379"/>
      <point x="201" y="445"/>
      <point x="201" y="493" type="curve" smooth="yes"/>
      <point x="201" y="544"/>
      <point x="171" y="556"/>
      <point x="125" y="556" type="curve"/>
      <point x="60" y="554" type="line"/>
      <point x="60" y="584" type="line"/>
      <point x="87" y="591"/>
      <point x="116" y="596"/>
      <point x="150" y="596" type="curve" smooth="yes"/>
      <point x="236" y="596"/>
      <point x="261" y="564"/>
      <point x="261" y="504" type="curve" smooth="yes"/>
      <point x="261" y="435"/>
      <point x="213" y="385"/>
      <point x="213" y="329" type="curve" smooth="yes"/>
      <point x="213" y="293"/>
      <point x="224" y="276"/>
      <point x="311" y="277" type="curve"/>
      <point x="311" y="225" type="line"/>
      <point x="224" y="226"/>
      <point x="213" y="202"/>
      <point x="213" y="167" type="curve" smooth="yes"/>
      <point x="213" y="110"/>
      <point x="261" y="61"/>
    </contour>
  </outline>
</glyph>
<glyph name="asciitilde" format="1">
  <advance width="510"/>
  <unicode hex="007E"/>
  <outline>
    <contour>
      <point x="107" y="185" type="line"/>
      <point x="122" y="206"/>
      <point x="148" y="229"/>
      <point x="184" y="229" type="curve" smooth="yes"/>
      <point x="233" y="229"/>
      <point x="255" y="168"/>
      <point x="319" y="168" type="curve" smooth="yes"/>
      <point x="369" y="168"/>
      <point x="410" y="200"/>
      <point x="429" y="232" type="curve"/>
      <point x="404" y="259" type="line"/>
      <point x="388" y="239"/>
      <point x="362" y="216"/>
      <point x="327" y="216" type="curve" smooth="yes"/>
      <point x="279" y="216"/>
      <point x="256" y="277"/>
      <point x="193" y="277" type="curve" smooth="yes"/>
      <point x="141" y="277"/>
      <point x="99" y="244"/>
      <point x="81" y="213" type="curve"/>
    </contour>
  </outline>
</glyph>
<glyph name="exclamdown" format="1">
  <advance width="263"/>
  <unicode hex="00A1"/>
  <outline>
    <contour>
      <point x="146" y="352" type="line"/>
      <point x="108" y="352" type="line"/>
      <point x="98" y="-38" type="line"/>
      <point x="159" y="-38" type="line"/>
    </contour>
    <contour>
      <point x="169" y="478" type="curve" smooth="yes"/>
      <point x="169" y="502"/>
      <point x="151" y="520"/>
      <point x="127" y="520" type="curve" smooth="yes"/>
      <point x="102" y="520"/>
      <point x="83" y="502"/>
      <point x="83" y="478" type="curve" smooth="yes"/>
      <point x="83" y="453"/>
      <point x="102" y="434"/>
      <point x="127" y="434" type="curve" smooth="yes"/>
      <point x="151" y="434"/>
      <point x="169" y="453"/>
    </contour>
  </outline>
</glyph>
<glyph name="cent" format="1">
  <advance width="431"/>
  <unicode hex="00A2"/>
  <outline>
    <contour>
      <point x="43" y="201" type="curve" smooth="yes"/>
      <point x="44" y="94"/>
      <point x="96" y="8"/>
      <point x="196" y="-6" type="curve"/>
      <point x="192" y="-88" type="line"/>
      <point x="233" y="-88" type="line"/>
      <point x="238" y="-8" type="line"/>
      <point x="286" y="-4"/>
      <point x="336" y="19"/>
      <point x="361" y="44" type="curve"/>
      <point x="349" y="69" type="line"/>
      <point x="327" y="53"/>
      <point x="285" y="35"/>
      <point x="240" y="35" type="curve" smooth="yes"/>
      <point x="165" y="35"/>
      <point x="107" y="95"/>
      <point x="107" y="224" type="curve" smooth="yes"/>
      <point x="107" y="325"/>
      <point x="158" y="387"/>
      <point x="233" y="387" type="curve" smooth="yes"/>
      <point x="264" y="387"/>
      <point x="293" y="383"/>
      <point x="297" y="365" type="curve" smooth="yes"/>
      <point x="313" y="294" type="line"/>
      <point x="350" y="294" type="line"/>
      <point x="353" y="400" type="line"/>
      <point x="337" y="407"/>
      <point x="305" y="418"/>
      <point x="270" y="421" type="curve"/>
      <point x="274" y="497" type="line"/>
      <point x="232" y="497" type="line"/>
      <point x="228" y="421" type="line"/>
      <point x="103" y="412"/>
      <point x="42" y="311"/>
    </contour>
  </outline>
</glyph>
<glyph name="sterling" format="1">
  <advance width="539"/>
  <unicode hex="00A3"/>
  <outline>
    <contour>
      <point x="70" y="283" type="line"/>
      <point x="146" y="283" type="line"/>
      <point x="146" y="194" type="line" smooth="yes"/>
      <point x="146" y="154"/>
      <point x="136" y="97"/>
      <point x="124" y="79" type="curve"/>
      <point x="77" y="81"/>
      <point x="39" y="53"/>
      <point x="39" y="27" type="curve" smooth="yes"/>
      <point x="39" y="6"/>
      <point x="59" y="0"/>
      <point x="72" y="0" type="curve" smooth="yes"/>
      <point x="99" y="0"/>
      <point x="121" y="20"/>
      <point x="140" y="42" type="curve"/>
      <point x="213" y="41"/>
      <point x="268" y="-5"/>
      <point x="354" y="-5" type="curve" smooth="yes"/>
      <point x="435" y="-5"/>
      <point x="494" y="58"/>
      <point x="494" y="125" type="curve" smooth="yes"/>
      <point x="494" y="156"/>
      <point x="487" y="175"/>
      <point x="481" y="184" type="curve"/>
      <point x="416" y="184" type="line"/>
      <point x="425" y="174"/>
      <point x="433" y="144"/>
      <point x="433" y="116" type="curve" smooth="yes"/>
      <point x="433" y="65"/>
      <point x="415" y="43"/>
      <point x="355" y="43" type="curve" smooth="yes"/>
      <point x="291" y="43"/>
      <point x="230" y="67"/>
      <point x="164" y="72" type="curve"/>
      <point x="187" y="100"/>
      <point x="209" y="139"/>
      <point x="209" y="201" type="curve" smooth="yes"/>
      <point x="209" y="283" type="line"/>
      <point x="326" y="283" type="line"/>
      <point x="326" y="319" type="line"/>
      <point x="209" y="319" type="line"/>
      <point x="209" y="384" type="line" smooth="yes"/>
      <point x="209" y="495"/>
      <point x="258" y="516"/>
      <point x="300" y="516" type="curve" smooth="yes"/>
      <point x="353" y="516"/>
      <point x="393" y="486"/>
      <point x="400" y="473" type="curve"/>
      <point x="433" y="521" type="line"/>
      <point x="407" y="544"/>
      <point x="365" y="556"/>
      <point x="321" y="556" type="curve" smooth="yes"/>
      <point x="227" y="556"/>
      <point x="146" y="483"/>
      <point x="146" y="370" type="curve" smooth="yes"/>
      <point x="146" y="319" type="line"/>
      <point x="70" y="319" type="line"/>
    </contour>
  </outline>
</glyph>
<glyph name="currency" format="1">
  <advance width="559"/>
  <unicode hex="00A4"/>
  <outline>
    <contour>
      <point x="78" y="107" type="line"/>
      <point x="115" y="69" type="line"/>
      <point x="191" y="144" type="line"/>
      <point x="216" y="129"/>
      <point x="246" y="119"/>
      <point x="279" y="119" type="curve" smooth="yes"/>
      <point x="311" y="119"/>
      <point x="341" y="130"/>
      <point x="367" y="147" type="curve"/>
      <point x="443" y="70" type="line"/>
      <point x="480" y="108" type="line"/>
      <point x="404" y="184" type="line"/>
      <point x="425" y="211"/>
      <point x="438" y="246"/>
      <point x="438" y="283" type="curve" smooth="yes"/>
      <point x="438" y="319"/>
      <point x="426" y="352"/>
      <point x="407" y="378" type="curve"/>
      <point x="481" y="453" type="line"/>
      <point x="444" y="490" type="line"/>
      <point x="367" y="414" type="line"/>
      <point x="342" y="430"/>
      <point x="311" y="440"/>
      <point x="279" y="440" type="curve" smooth="yes"/>
      <point x="246" y="440"/>
      <point x="216" y="430"/>
      <point x="192" y="413" type="curve"/>
      <point x="115" y="490" type="line"/>
      <point x="78" y="452" type="line"/>
      <point x="154" y="375" type="line"/>
      <point x="135" y="347"/>
      <point x="124" y="313"/>
      <point x="124" y="276" type="curve" smooth="yes"/>
      <point x="124" y="240"/>
      <point x="134" y="207"/>
      <point x="153" y="181" type="curve"/>
    </contour>
    <contour>
      <point x="279" y="164" type="curve" smooth="yes"/>
      <point x="219" y="164"/>
      <point x="171" y="214"/>
      <point x="171" y="277" type="curve" smooth="yes"/>
      <point x="171" y="339"/>
      <point x="207" y="395"/>
      <point x="277" y="395" type="curve" smooth="yes"/>
      <point x="337" y="395"/>
      <point x="387" y="341"/>
      <point x="387" y="279" type="curve" smooth="yes"/>
      <point x="387" y="216"/>
      <point x="352" y="164"/>
    </contour>
  </outline>
</glyph>
<glyph name="yen" format="1">
  <advance width="567"/>
  <unicode hex="00A5"/>
  <outline>
    <contour>
      <point x="91" y="272" type="line"/>
      <point x="260" y="272" type="line"/>
      <point x="260" y="169" type="line"/>
      <point x="91" y="169" type="line"/>
      <point x="91" y="133" type="line"/>
      <point x="260" y="133" type="line"/>
      <point x="260" y="36" type="line"/>
      <point x="174" y="28" type="line"/>
      <point x="174" y="0" type="line"/>
      <point x="399" y="0" type="line"/>
      <point x="399" y="28" type="line"/>
      <point x="312" y="36" type="line"/>
      <point x="312" y="133" type="line"/>
      <point x="481" y="133" type="line"/>
      <point x="481" y="169" type="line"/>
      <point x="312" y="169" type="line"/>
      <point x="312" y="272" type="line"/>
      <point x="481" y="272" type="line"/>
      <point x="481" y="307" type="line"/>
      <point x="330" y="307" type="line"/>
      <point x="466" y="514" type="line"/>
      <point x="518" y="523" type="line"/>
      <point x="518" y="550" type="line"/>
      <point x="356" y="550" type="line"/>
      <point x="356" y="523" type="line"/>
      <point x="412" y="516" type="line"/>
      <point x="322" y="356" type="line"/>
      <point x="292" y="310" type="line"/>
      <point x="270" y="355" type="line"/>
      <point x="169" y="516" type="line"/>
      <point x="224" y="523" type="line"/>
      <point x="224" y="550" type="line"/>
      <point x="47" y="550" type="line"/>
      <point x="47" y="523" type="line"/>
      <point x="94" y="514" type="line"/>
      <point x="236" y="307" type="line"/>
      <point x="91" y="307" type="line"/>
    </contour>
  </outline>
</glyph>
<glyph name="brokenbar" format="1">
  <advance width="313"/>
  <unicode hex="00A6"/>
  <outline>
    <contour>
      <point x="130" y="-67" type="line"/>
      <point x="183" y="-67" type="line"/>
      <point x="183" y="232" type="line"/>
      <point x="130" y="232" type="line"/>
    </contour>
    <contour>
      <point x="130" y="344" type="line"/>
      <point x="183" y="344" type="line"/>
      <point x="183" y="644" type="line"/>
      <point x="130" y="644" type="line"/>
    </contour>
  </outline>
</glyph>
<glyph name="section" format="1">
  <advance width="493"/>
  <unicode hex="00A7"/>
  <outline>
    <contour>
      <point x="69" y="-39" type="line"/>
      <point x="92" y="-41"/>
      <point x="152" y="-73"/>
      <point x="236" y="-73" type="curve" smooth="yes"/>
      <point x="366" y="-73"/>
      <point x="421" y="-10"/>
      <point x="421" y="52" type="curve" smooth="yes"/>
      <point x="421" y="85"/>
      <point x="401" y="111"/>
      <point x="375" y="133" type="curve"/>
      <point x="407" y="160"/>
      <point x="427" y="193"/>
      <point x="427" y="233" type="curve" smooth="yes"/>
      <point x="427" y="321"/>
      <point x="331" y="364"/>
      <point x="270" y="389" type="curve" smooth="yes"/>
      <point x="200" y="418"/>
      <point x="139" y="437"/>
      <point x="139" y="502" type="curve" smooth="yes"/>
      <point x="139" y="547"/>
      <point x="180" y="571"/>
      <point x="254" y="571" type="curve" smooth="yes"/>
      <point x="299" y="571"/>
      <point x="332" y="559"/>
      <point x="339" y="553" type="curve"/>
      <point x="356" y="464" type="line"/>
      <point x="392" y="464" type="line"/>
      <point x="396" y="582" type="line"/>
      <point x="374" y="586"/>
      <point x="324" y="609"/>
      <point x="256" y="609" type="curve" smooth="yes"/>
      <point x="149" y="609"/>
      <point x="81" y="561"/>
      <point x="81" y="490" type="curve" smooth="yes"/>
      <point x="81" y="453"/>
      <point x="98" y="426"/>
      <point x="121" y="403" type="curve"/>
      <point x="88" y="379"/>
      <point x="69" y="351"/>
      <point x="69" y="308" type="curve" smooth="yes"/>
      <point x="69" y="216"/>
      <point x="150" y="173"/>
      <point x="219" y="147" type="curve" smooth="yes"/>
      <point x="294" y="119"/>
      <point x="363" y="94"/>
      <point x="363" y="36" type="curve" smooth="yes"/>
      <point x="363" y="-4"/>
      <point x="325" y="-36"/>
      <point x="239" y="-36" type="curve" smooth="yes"/>
      <point x="190" y="-36"/>
      <point x="144" y="-21"/>
      <point x="127" y="-4" type="curve"/>
      <point x="116" y="89" type="line"/>
      <point x="77" y="89" type="line"/>
    </contour>
    <contour>
      <point x="253" y="196" type="curve" smooth="yes"/>
      <point x="177" y="227"/>
      <point x="123" y="256"/>
      <point x="123" y="321" type="curve" smooth="yes"/>
      <point x="123" y="347"/>
      <point x="133" y="364"/>
      <point x="152" y="380" type="curve"/>
      <point x="180" y="361"/>
      <point x="211" y="349"/>
      <point x="237" y="339" type="curve" smooth="yes"/>
      <point x="313" y="310"/>
      <point x="368" y="280"/>
      <point x="368" y="220" type="curve" smooth="yes"/>
      <point x="368" y="193"/>
      <point x="358" y="173"/>
      <point x="340" y="156" type="curve"/>
      <point x="310" y="173"/>
      <point x="278" y="185"/>
    </contour>
  </outline>
</glyph>
<glyph name="dieresis" format="1">
  <advance width="370"/>
  <unicode hex="00A8"/>
  <outline>
    <contour>
      <point x="101" y="496" type="curve"/>
      <point x="131" y="496"/>
      <point x="146" y="519"/>
      <point x="146" y="544" type="curve" smooth="yes"/>
      <point x="146" y="566"/>
      <point x="132" y="587"/>
      <point x="107" y="587" type="curve"/>
      <point x="77" y="587"/>
      <point x="63" y="563"/>
      <point x="63" y="539" type="curve" smooth="yes"/>
      <point x="63" y="515"/>
      <point x="77" y="496"/>
    </contour>
    <contour>
      <point x="262" y="496" type="curve"/>
      <point x="293" y="496"/>
      <point x="308" y="519"/>
      <point x="308" y="544" type="curve" smooth="yes"/>
      <point x="308" y="566"/>
      <point x="294" y="587"/>
      <point x="269" y="587" type="curve"/>
      <point x="240" y="587"/>
      <point x="225" y="563"/>
      <point x="225" y="539" type="curve" smooth="yes"/>
      <point x="225" y="515"/>
      <point x="240" y="496"/>
    </contour>
  </outline>
</glyph>
<glyph name="copyright" format="1">
  <advance width="770"/>
  <unicode hex="00A9"/>
  <outline>
    <contour>
      <point x="70" y="363" type="curve" smooth="yes"/>
      <point x="70" y="187"/>
      <point x="209" y="44"/>
      <point x="385" y="44" type="curve" smooth="yes"/>
      <point x="561" y="44"/>
      <point x="700" y="187"/>
      <point x="700" y="363" type="curve" smooth="yes"/>
      <point x="700" y="539"/>
      <point x="561" y="680"/>
      <point x="385" y="680" type="curve" smooth="yes"/>
      <point x="209" y="680"/>
      <point x="70" y="539"/>
    </contour>
    <contour>
      <point x="110" y="363" type="curve" smooth="yes"/>
      <point x="110" y="516"/>
      <point x="230" y="645"/>
      <point x="385" y="645" type="curve" smooth="yes"/>
      <point x="540" y="645"/>
      <point x="659" y="516"/>
      <point x="659" y="363" type="curve" smooth="yes"/>
      <point x="659" y="209"/>
      <point x="540" y="80"/>
      <point x="385" y="80" type="curve" smooth="yes"/>
      <point x="230" y="80"/>
      <point x="110" y="209"/>
    </contour>
    <contour>
      <point x="387" y="187" type="curve" smooth="yes"/>
      <point x="439" y="187"/>
      <point x="484" y="216"/>
      <point x="504" y="241" type="curve"/>
      <point x="490" y="267" type="line"/>
      <point x="470" y="247"/>
      <point x="441" y="233"/>
      <point x="407" y="233" type="curve" smooth="yes"/>
      <point x="333" y="233"/>
      <point x="283" y="287"/>
      <point x="283" y="371" type="curve" smooth="yes"/>
      <point x="283" y="452"/>
      <point x="322" y="502"/>
      <point x="386" y="502" type="curve" smooth="yes"/>
      <point x="424" y="502"/>
      <point x="440" y="497"/>
      <point x="451" y="489" type="curve"/>
      <point x="465" y="441" type="line"/>
      <point x="501" y="441" type="line"/>
      <point x="501" y="519" type="line"/>
      <point x="487" y="533"/>
      <point x="440" y="541"/>
      <point x="408" y="541" type="curve" smooth="yes"/>
      <point x="303" y="541"/>
      <point x="225" y="461"/>
      <point x="225" y="359" type="curve" smooth="yes"/>
      <point x="225" y="259"/>
      <point x="280" y="187"/>
    </contour>
  </outline>
</glyph>
<glyph name="ordfeminine" format="1">
  <advance width="373"/>
  <unicode hex="00AA"/>
  <outline>
    <contour>
      <point x="148" y="242" type="curve" smooth="yes"/>
      <point x="201" y="242"/>
      <point x="240" y="271"/>
      <point x="262" y="293" type="curve"/>
      <point x="262" y="267" type="line" smooth="yes"/>
      <point x="262" y="244"/>
      <point x="276" y="243"/>
      <point x="297" y="243" type="curve" smooth="yes"/>
      <point x="318" y="243"/>
      <point x="341" y="248"/>
      <point x="356" y="252" type="curve"/>
      <point x="356" y="278" type="line"/>
      <point x="315" y="278" type="line"/>
      <point x="315" y="461" type="line" smooth="yes"/>
      <point x="315" y="550"/>
      <point x="276" y="581"/>
      <point x="192" y="581" type="curve" smooth="yes"/>
      <point x="146" y="581"/>
      <point x="81" y="558"/>
      <point x="53" y="540" type="curve"/>
      <point x="71" y="509" type="line"/>
      <point x="96" y="521"/>
      <point x="139" y="538"/>
      <point x="180" y="538" type="curve" smooth="yes"/>
      <point x="240" y="538"/>
      <point x="259" y="521"/>
      <point x="259" y="453" type="curve" smooth="yes"/>
      <point x="259" y="443" type="line"/>
      <point x="121" y="439"/>
      <point x="47" y="406"/>
      <point x="47" y="333" type="curve" smooth="yes"/>
      <point x="47" y="279"/>
      <point x="90" y="242"/>
    </contour>
    <contour>
      <point x="172" y="281" type="curve" smooth="yes"/>
      <point x="130" y="281"/>
      <point x="107" y="305"/>
      <point x="107" y="338" type="curve" smooth="yes"/>
      <point x="107" y="387"/>
      <point x="148" y="409"/>
      <point x="259" y="412" type="curve"/>
      <point x="259" y="319" type="line"/>
      <point x="259" y="320" type="line"/>
      <point x="248" y="307"/>
      <point x="206" y="281"/>
    </contour>
  </outline>
</glyph>
<glyph name="guillemotleft" format="1">
  <advance width="687"/>
  <unicode hex="00AB"/>
  <outline>
    <contour>
      <point x="353" y="197" type="line"/>
      <point x="590" y="42" type="line"/>
      <point x="611" y="75" type="line"/>
      <point x="424" y="222" type="line"/>
      <point x="609" y="373" type="line"/>
      <point x="590" y="405" type="line"/>
      <point x="353" y="246" type="line"/>
    </contour>
    <contour>
      <point x="88" y="197" type="line"/>
      <point x="325" y="42" type="line"/>
      <point x="346" y="75" type="line"/>
      <point x="159" y="222" type="line"/>
      <point x="344" y="373" type="line"/>
      <point x="325" y="405" type="line"/>
      <point x="88" y="246" type="line"/>
    </contour>
  </outline>
</glyph>
<glyph name="logicalnot" format="1">
  <advance width="510"/>
  <unicode hex="00AC"/>
  <outline>
    <contour>
      <point x="76" y="210" type="line"/>
      <point x="384" y="210" type="line"/>
      <point x="384" y="58" type="line"/>
      <point x="434" y="58" type="line"/>
      <point x="434" y="250" type="line"/>
      <point x="76" y="250" type="line"/>
    </contour>
  </outline>
</glyph>
<glyph name="uni00AD" format="1">
  <advance width="487"/>
  <unicode hex="00AD"/>
  <outline>
    <contour>
      <point x="83" y="201" type="line"/>
      <point x="403" y="201" type="line"/>
      <point x="403" y="245" type="line"/>
      <point x="83" y="245" type="line"/>
    </contour>
  </outline>
</glyph>
<glyph name="registered" format="1">
  <advance width="770"/>
  <unicode hex="00AE"/>
  <outline>
    <contour>
      <point x="70" y="363" type="curve" smooth="yes"/>
      <point x="70" y="187"/>
      <point x="209" y="44"/>
      <point x="385" y="44" type="curve" smooth="yes"/>
      <point x="561" y="44"/>
      <point x="700" y="187"/>
      <point x="700" y="363" type="curve" smooth="yes"/>
      <point x="700" y="539"/>
      <point x="561" y="680"/>
      <point x="385" y="680" type="curve" smooth="yes"/>
      <point x="209" y="680"/>
      <point x="70" y="539"/>
    </contour>
    <contour>
      <point x="110" y="363" type="curve" smooth="yes"/>
      <point x="110" y="516"/>
      <point x="230" y="645"/>
      <point x="385" y="645" type="curve" smooth="yes"/>
      <point x="540" y="645"/>
      <point x="659" y="516"/>
      <point x="659" y="363" type="curve" smooth="yes"/>
      <point x="659" y="209"/>
      <point x="540" y="80"/>
      <point x="385" y="80" type="curve" smooth="yes"/>
      <point x="230" y="80"/>
      <point x="110" y="209"/>
    </contour>
    <contour>
      <point x="243" y="187" type="line"/>
      <point x="367" y="187" type="line"/>
      <point x="367" y="215" type="line"/>
      <point x="327" y="221" type="line"/>
      <point x="327" y="332" type="line"/>
      <point x="391" y="331" type="line"/>
      <point x="464" y="302"/>
      <point x="431" y="187"/>
      <point x="502" y="187" type="curve" smooth="yes"/>
      <point x="550" y="187" type="line"/>
      <point x="550" y="219" type="line"/>
      <point x="484" y="224"/>
      <point x="508" y="308"/>
      <point x="441" y="341" type="curve"/>
      <point x="490" y="352"/>
      <point x="523" y="390"/>
      <point x="523" y="448" type="curve" smooth="yes"/>
      <point x="523" y="504"/>
      <point x="477" y="538"/>
      <point x="391" y="538" type="curve" smooth="yes"/>
      <point x="353" y="537"/>
      <point x="336" y="536"/>
      <point x="298" y="536" type="curve"/>
      <point x="243" y="536" type="line"/>
      <point x="243" y="505" type="line"/>
      <point x="278" y="498" type="line"/>
      <point x="278" y="223" type="line"/>
      <point x="243" y="215" type="line"/>
    </contour>
    <contour>
      <point x="327" y="370" type="curve"/>
      <point x="327" y="500" type="line"/>
      <point x="349" y="504"/>
      <point x="365" y="504"/>
      <point x="381" y="504" type="curve" smooth="yes"/>
      <point x="436" y="504"/>
      <point x="466" y="487"/>
      <point x="466" y="439" type="curve" smooth="yes"/>
      <point x="466" y="399"/>
      <point x="433" y="368"/>
      <point x="393" y="368" type="curve" smooth="yes"/>
      <point x="377" y="368"/>
      <point x="339" y="368"/>
    </contour>
  </outline>
</glyph>
<glyph name="macron" format="1">
  <advance width="247"/>
  <unicode hex="00AF"/>
  <outline>
    <contour>
      <point x="26" y="518" type="line"/>
      <point x="219" y="518" type="line"/>
      <point x="219" y="563" type="line"/>
      <point x="26" y="563" type="line"/>
    </contour>
  </outline>
</glyph>
<glyph name="degree" format="1">
  <advance width="331"/>
  <unicode hex="00B0"/>
  <outline>
    <contour>
      <point x="165" y="344" type="curve" smooth="yes"/>
      <point x="234" y="344"/>
      <point x="290" y="396"/>
      <point x="290" y="467" type="curve" smooth="yes"/>
      <point x="290" y="535"/>
      <point x="238" y="591"/>
      <point x="165" y="591" type="curve" smooth="yes"/>
      <point x="98" y="591"/>
      <point x="41" y="539"/>
      <point x="41" y="467" type="curve" smooth="yes"/>
      <point x="41" y="400"/>
      <point x="98" y="344"/>
    </contour>
    <contour>
      <point x="166" y="385" type="curve" smooth="yes"/>
      <point x="121" y="385"/>
      <point x="84" y="422"/>
      <point x="84" y="467" type="curve" smooth="yes"/>
      <point x="84" y="515"/>
      <point x="119" y="550"/>
      <point x="165" y="550" type="curve" smooth="yes"/>
      <point x="211" y="550"/>
      <point x="247" y="513"/>
      <point x="247" y="467" type="curve" smooth="yes"/>
      <point x="247" y="419"/>
      <point x="213" y="385"/>
    </contour>
  </outline>
</glyph>
<glyph name="plusminus" format="1">
  <advance width="490"/>
  <unicode hex="00B1"/>
  <outline>
    <contour>
      <point x="79" y="219" type="line"/>
      <point x="159" y="219" type="line"/>
      <point x="222" y="221" type="line"/>
      <point x="221" y="157" type="line"/>
      <point x="221" y="74" type="line"/>
      <point x="269" y="74" type="line"/>
      <point x="269" y="157" type="line"/>
      <point x="266" y="221" type="line"/>
      <point x="321" y="219" type="line"/>
      <point x="410" y="219" type="line"/>
      <point x="410" y="267" type="line"/>
      <point x="321" y="267" type="line"/>
      <point x="266" y="263" type="line"/>
      <point x="269" y="328" type="line"/>
      <point x="269" y="410" type="line"/>
      <point x="221" y="410" type="line"/>
      <point x="221" y="328" type="line"/>
      <point x="222" y="263" type="line"/>
      <point x="159" y="267" type="line"/>
      <point x="79" y="267" type="line"/>
    </contour>
    <contour>
      <point x="84" y="0" type="line"/>
      <point x="404" y="0" type="line"/>
      <point x="404" y="45" type="line"/>
      <point x="84" y="45" type="line"/>
    </contour>
  </outline>
</glyph>
<glyph name="twosuperior" format="1">
  <advance width="365"/>
  <unicode hex="00B2"/>
  <outline>
    <contour>
      <point x="63" y="199" type="line"/>
      <point x="310" y="199" type="line"/>
      <point x="329" y="293" type="line"/>
      <point x="297" y="300" type="line"/>
      <point x="270" y="243" type="line"/>
      <point x="110" y="233" type="line"/>
      <point x="204" y="293"/>
      <point x="299" y="389"/>
      <point x="299" y="462" type="curve" smooth="yes"/>
      <point x="299" y="521"/>
      <point x="259" y="570"/>
      <point x="179" y="570" type="curve" smooth="yes"/>
      <point x="118" y="570"/>
      <point x="64" y="533"/>
      <point x="47" y="508" type="curve"/>
      <point x="67" y="486" type="line"/>
      <point x="84" y="504"/>
      <point x="124" y="529"/>
      <point x="169" y="529" type="curve" smooth="yes"/>
      <point x="219" y="529"/>
      <point x="244" y="497"/>
      <point x="244" y="452" type="curve" smooth="yes"/>
      <point x="244" y="364"/>
      <point x="99" y="258"/>
      <point x="52" y="227" type="curve"/>
    </contour>
  </outline>
</glyph>
<glyph name="threesuperior" format="1">
  <advance width="360"/>
  <unicode hex="00B3"/>
  <outline>
    <contour>
      <point x="60" y="212" type="line"/>
      <point x="93" y="197"/>
      <point x="132" y="191"/>
      <point x="160" y="191" type="curve" smooth="yes"/>
      <point x="270" y="191"/>
      <point x="327" y="240"/>
      <point x="327" y="304" type="curve" smooth="yes"/>
      <point x="327" y="340"/>
      <point x="297" y="392"/>
      <point x="210" y="386" type="curve"/>
      <point x="275" y="413"/>
      <point x="293" y="452"/>
      <point x="293" y="488" type="curve" smooth="yes"/>
      <point x="293" y="534"/>
      <point x="250" y="570"/>
      <point x="183" y="570" type="curve" smooth="yes"/>
      <point x="127" y="570"/>
      <point x="79" y="556"/>
      <point x="55" y="531" type="curve"/>
      <point x="73" y="501" type="line"/>
      <point x="94" y="519"/>
      <point x="131" y="530"/>
      <point x="168" y="530" type="curve" smooth="yes"/>
      <point x="216" y="530"/>
      <point x="236" y="509"/>
      <point x="236" y="478" type="curve" smooth="yes"/>
      <point x="237" y="444"/>
      <point x="207" y="420"/>
      <point x="176" y="404" type="curve"/>
      <point x="155" y="394"/>
      <point x="135" y="387"/>
      <point x="124" y="385" type="curve"/>
      <point x="135" y="352" type="line"/>
      <point x="179" y="368" type="line"/>
      <point x="236" y="371"/>
      <point x="270" y="339"/>
      <point x="270" y="304" type="curve" smooth="yes"/>
      <point x="270" y="252"/>
      <point x="229" y="228"/>
      <point x="149" y="228" type="curve" smooth="yes"/>
      <point x="116" y="228"/>
      <point x="86" y="237"/>
      <point x="60" y="247" type="curve"/>
    </contour>
  </outline>
</glyph>
<glyph name="acute" format="1">
  <advance width="247"/>
  <unicode hex="00B4"/>
  <outline>
    <contour>
      <point x="104" y="488" type="line"/>
      <point x="105" y="488" type="line"/>
      <point x="136" y="503"/>
      <point x="227" y="581"/>
      <point x="246" y="610" type="curve"/>
      <point x="200" y="650" type="line"/>
      <point x="199" y="650" type="line"/>
      <point x="84" y="508" type="line"/>
    </contour>
  </outline>
</glyph>
<glyph name="uni00B5" format="1">
  <advance width="506"/>
  <unicode hex="00B5"/>
  <outline>
    <contour>
      <point x="97" y="-135" type="line"/>
      <point x="152" y="-135" type="line"/>
      <point x="152" y="35" type="line"/>
      <point x="173" y="8"/>
      <point x="213" y="-7"/>
      <point x="250" y="-7" type="curve" smooth="yes"/>
      <point x="300" y="-7"/>
      <point x="341" y="22"/>
      <point x="359" y="57" type="curve"/>
      <point x="359" y="18" type="line" smooth="yes"/>
      <point x="359" y="-1"/>
      <point x="371" y="-10"/>
      <point x="391" y="-10" type="curve" smooth="yes"/>
      <point x="414" y="-10"/>
      <point x="445" y="-4"/>
      <point x="459" y="3" type="curve"/>
      <point x="459" y="32" type="line"/>
      <point x="413" y="32" type="line"/>
      <point x="413" y="410" type="line"/>
      <point x="404" y="419" type="line"/>
      <point x="300" y="410" type="line"/>
      <point x="300" y="387" type="line"/>
      <point x="354" y="371" type="line"/>
      <point x="354" y="96" type="line"/>
      <point x="343" y="76"/>
      <point x="312" y="38"/>
      <point x="253" y="38" type="curve" smooth="yes"/>
      <point x="184" y="38"/>
      <point x="156" y="93"/>
      <point x="156" y="118" type="curve" smooth="yes"/>
      <point x="156" y="410" type="line"/>
      <point x="143" y="419" type="line"/>
      <point x="50" y="409" type="line"/>
      <point x="50" y="387" type="line"/>
      <point x="97" y="371" type="line"/>
    </contour>
  </outline>
</glyph>
<glyph name="paragraph" format="1">
  <advance width="516"/>
  <unicode hex="00B6"/>
  <outline>
    <contour>
      <point x="119" y="0" type="line"/>
      <point x="248" y="0" type="line"/>
      <point x="248" y="574" type="line"/>
      <point x="252" y="574"/>
      <point x="257" y="575"/>
      <point x="261" y="575" type="curve" smooth="yes"/>
      <point x="295" y="575"/>
      <point x="330" y="571"/>
      <point x="348" y="570" type="curve"/>
      <point x="348" y="0" type="line"/>
      <point x="460" y="0" type="line"/>
      <point x="460" y="31" type="line"/>
      <point x="404" y="38" type="line"/>
      <point x="404" y="572" type="line"/>
      <point x="469" y="579" type="line"/>
      <point x="469" y="612" type="line"/>
      <point x="400" y="612" type="line"/>
      <point x="325" y="612"/>
      <point x="298" y="619"/>
      <point x="231" y="619" type="curve" smooth="yes"/>
      <point x="101" y="619"/>
      <point x="33" y="551"/>
      <point x="33" y="460" type="curve" smooth="yes"/>
      <point x="33" y="356"/>
      <point x="85" y="297"/>
      <point x="192" y="297" type="curve"/>
      <point x="192" y="38" type="line"/>
      <point x="119" y="31" type="line"/>
    </contour>
  </outline>
</glyph>
<glyph name="periodcentered" format="1">
  <advance width="253"/>
  <unicode hex="00B7"/>
  <outline>
    <contour>
      <point x="84" y="242" type="curve" smooth="yes"/>
      <point x="84" y="218"/>
      <point x="102" y="200"/>
      <point x="126" y="200" type="curve" smooth="yes"/>
      <point x="151" y="200"/>
      <point x="170" y="218"/>
      <point x="170" y="242" type="curve" smooth="yes"/>
      <point x="170" y="267"/>
      <point x="151" y="286"/>
      <point x="126" y="286" type="curve" smooth="yes"/>
      <point x="102" y="286"/>
      <point x="84" y="267"/>
    </contour>
  </outline>
</glyph>
<glyph name="cedilla" format="1">
  <advance width="222"/>
  <unicode hex="00B8"/>
  <outline>
    <contour>
      <point x="66" y="0" type="line"/>
      <point x="73" y="-10"/>
      <point x="91" y="-43"/>
      <point x="91" y="-74" type="curve" smooth="yes"/>
      <point x="91" y="-119"/>
      <point x="71" y="-127"/>
      <point x="35" y="-127" type="curve"/>
      <point x="27" y="-127"/>
      <point x="11" y="-124"/>
      <point x="1" y="-121" type="curve"/>
      <point x="0" y="-164" type="line"/>
      <point x="13" y="-170"/>
      <point x="36" y="-174"/>
      <point x="53" y="-174" type="curve"/>
      <point x="108" y="-174"/>
      <point x="141" y="-156"/>
      <point x="143" y="-106" type="curve" smooth="yes"/>
      <point x="145" y="-59"/>
      <point x="112" y="-14"/>
      <point x="96" y="0" type="curve"/>
      <point x="83" y="4" type="line"/>
    </contour>
  </outline>
</glyph>
<glyph name="onesuperior" format="1">
  <advance width="356"/>
  <unicode hex="00B9"/>
  <outline>
    <contour>
      <point x="76" y="199" type="line"/>
      <point x="304" y="199" type="line"/>
      <point x="304" y="229" type="line"/>
      <point x="223" y="236" type="line"/>
      <point x="223" y="564" type="line"/>
      <point x="192" y="570" type="line"/>
      <point x="190" y="570" type="line"/>
      <point x="149" y="539"/>
      <point x="105" y="524"/>
      <point x="66" y="512" type="curve"/>
      <point x="73" y="479" type="line"/>
      <point x="104" y="485"/>
      <point x="140" y="493"/>
      <point x="170" y="506" type="curve"/>
      <point x="170" y="236" type="line"/>
      <point x="76" y="229" type="line"/>
    </contour>
  </outline>
</glyph>
<glyph name="ordmasculine" format="1">
  <advance width="376"/>
  <unicode hex="00BA"/>
  <outline>
    <contour>
      <point x="188" y="245" type="curve" smooth="yes"/>
      <point x="253" y="245"/>
      <point x="336" y="292"/>
      <point x="337" y="411" type="curve" smooth="yes"/>
      <point x="339" y="520"/>
      <point x="282" y="579"/>
      <point x="192" y="579" type="curve" smooth="yes"/>
      <point x="123" y="579"/>
      <point x="40" y="530"/>
      <point x="39" y="415" type="curve" smooth="yes"/>
      <point x="37" y="299"/>
      <point x="106" y="244"/>
    </contour>
    <contour>
      <point x="187" y="277" type="curve" smooth="yes"/>
      <point x="140" y="277"/>
      <point x="99" y="327"/>
      <point x="99" y="418" type="curve" smooth="yes"/>
      <point x="99" y="509"/>
      <point x="139" y="546"/>
      <point x="189" y="547" type="curve" smooth="yes"/>
      <point x="243" y="547"/>
      <point x="277" y="496"/>
      <point x="277" y="407" type="curve" smooth="yes"/>
      <point x="277" y="302"/>
      <point x="240" y="278"/>
    </contour>
  </outline>
</glyph>
<glyph name="guillemotright" format="1">
  <advance width="686"/>
  <unicode hex="00BB"/>
  <outline>
    <contour>
      <point x="599" y="197" type="line"/>
      <point x="362" y="42" type="line"/>
      <point x="341" y="75" type="line"/>
      <point x="528" y="222" type="line"/>
      <point x="343" y="373" type="line"/>
      <point x="362" y="405" type="line"/>
      <point x="599" y="246" type="line"/>
    </contour>
    <contour>
      <point x="342" y="197" type="line"/>
      <point x="105" y="42" type="line"/>
      <point x="84" y="75" type="line"/>
      <point x="271" y="222" type="line"/>
      <point x="86" y="373" type="line"/>
      <point x="105" y="405" type="line"/>
      <point x="342" y="246" type="line"/>
    </contour>
  </outline>
</glyph>
<glyph name="onequarter" format="1">
  <advance width="861"/>
  <unicode hex="00BC"/>
  <outline>
    <contour>
      <point x="533" y="73" type="line"/>
      <point x="716" y="73" type="line"/>
      <point x="716" y="0" type="line"/>
      <point x="767" y="0" type="line"/>
      <point x="767" y="73" type="line"/>
      <point x="835" y="73" type="line"/>
      <point x="835" y="116" type="line"/>
      <point x="767" y="112" type="line"/>
      <point x="767" y="216" type="line"/>
      <point x="721" y="212" type="line"/>
      <point x="716" y="110" type="line"/>
      <point x="567" y="103" type="line"/>
      <point x="591" y="136" type="line"/>
      <point x="741" y="381" type="line"/>
      <point x="730" y="393" type="line"/>
      <point x="681" y="393" type="line"/>
      <point x="679" y="388"/>
      <point x="515" y="101"/>
      <point x="513" y="98" type="curve"/>
    </contour>
    <contour>
      <point x="76" y="199" type="line"/>
      <point x="304" y="199" type="line"/>
      <point x="304" y="229" type="line"/>
      <point x="223" y="236" type="line"/>
      <point x="223" y="564" type="line"/>
      <point x="192" y="570" type="line"/>
      <point x="190" y="570" type="line"/>
      <point x="149" y="539"/>
      <point x="105" y="524"/>
      <point x="66" y="512" type="curve"/>
      <point x="73" y="479" type="line"/>
      <point x="104" y="485"/>
      <point x="140" y="493"/>
      <point x="170" y="506" type="curve"/>
      <point x="170" y="236" type="line"/>
      <point x="76" y="229" type="line"/>
    </contour>
    <contour>
      <point x="309" y="-53" type="line"/>
      <point x="582" y="599" type="line"/>
      <point x="538" y="604" type="line"/>
      <point x="263" y="-49" type="line"/>
    </contour>
  </outline>
</glyph>
<glyph name="threequarters" format="1">
  <advance width="865"/>
  <unicode hex="00BE"/>
  <outline>
    <contour>
      <point x="537" y="73" type="line"/>
      <point x="720" y="73" type="line"/>
      <point x="720" y="0" type="line"/>
      <point x="772" y="0" type="line"/>
      <point x="772" y="73" type="line"/>
      <point x="839" y="73" type="line"/>
      <point x="839" y="116" type="line"/>
      <point x="772" y="112" type="line"/>
      <point x="772" y="216" type="line"/>
      <point x="725" y="212" type="line"/>
      <point x="721" y="110" type="line"/>
      <point x="571" y="103" type="line"/>
      <point x="596" y="136" type="line"/>
      <point x="745" y="381" type="line"/>
      <point x="735" y="393" type="line"/>
      <point x="685" y="393" type="line"/>
      <point x="684" y="388"/>
      <point x="519" y="101"/>
      <point x="518" y="98" type="curve"/>
    </contour>
    <contour>
      <point x="60" y="212" type="line"/>
      <point x="93" y="197"/>
      <point x="132" y="191"/>
      <point x="160" y="191" type="curve" smooth="yes"/>
      <point x="270" y="191"/>
      <point x="327" y="240"/>
      <point x="327" y="304" type="curve" smooth="yes"/>
      <point x="327" y="340"/>
      <point x="297" y="392"/>
      <point x="210" y="386" type="curve"/>
      <point x="275" y="413"/>
      <point x="293" y="452"/>
      <point x="293" y="488" type="curve" smooth="yes"/>
      <point x="293" y="534"/>
      <point x="250" y="570"/>
      <point x="183" y="570" type="curve" smooth="yes"/>
      <point x="127" y="570"/>
      <point x="79" y="556"/>
      <point x="55" y="531" type="curve"/>
      <point x="73" y="501" type="line"/>
      <point x="94" y="519"/>
      <point x="131" y="530"/>
      <point x="168" y="530" type="curve" smooth="yes"/>
      <point x="216" y="530"/>
      <point x="236" y="509"/>
      <point x="236" y="478" type="curve" smooth="yes"/>
      <point x="237" y="444"/>
      <point x="207" y="420"/>
      <point x="176" y="404" type="curve"/>
      <point x="155" y="394"/>
      <point x="135" y="387"/>
      <point x="124" y="385" type="curve"/>
      <point x="135" y="352" type="line"/>
      <point x="179" y="368" type="line"/>
      <point x="236" y="371"/>
      <point x="270" y="339"/>
      <point x="270" y="304" type="curve" smooth="yes"/>
      <point x="270" y="252"/>
      <point x="229" y="228"/>
      <point x="149" y="228" type="curve" smooth="yes"/>
      <point x="116" y="228"/>
      <point x="86" y="237"/>
      <point x="60" y="247" type="curve"/>
    </contour>
    <contour>
      <point x="313" y="-53" type="line"/>
      <point x="586" y="599" type="line"/>
      <point x="542" y="604" type="line"/>
      <point x="267" y="-49" type="line"/>
    </contour>
  </outline>
</glyph>
<glyph name="questiondown" format="1">
  <advance width="353"/>
  <unicode hex="00BF"/>
  <outline>
    <contour>
      <point x="214" y="371" type="curve"/>
      <point x="181" y="360" type="line"/>
      <point x="191" y="328"/>
      <point x="198" y="296"/>
      <point x="198" y="282" type="curve" smooth="yes"/>
      <point x="198" y="221"/>
      <point x="34" y="220"/>
      <point x="34" y="110" type="curve" smooth="yes"/>
      <point x="34" y="46"/>
      <point x="83" y="-36"/>
      <point x="185" y="-36" type="curve" smooth="yes"/>
      <point x="226" y="-36"/>
      <point x="264" y="-23"/>
      <point x="290" y="-7" type="curve"/>
      <point x="268" y="42" type="line"/>
      <point x="237" y="27"/>
      <point x="205" y="16"/>
      <point x="173" y="16" type="curve" smooth="yes"/>
      <point x="113" y="16"/>
      <point x="73" y="53"/>
      <point x="73" y="96" type="curve" smooth="yes"/>
      <point x="73" y="181"/>
      <point x="247" y="173"/>
      <point x="247" y="267" type="curve" smooth="yes"/>
      <point x="247" y="299"/>
      <point x="230" y="341"/>
    </contour>
    <contour>
      <point x="225" y="480" type="curve" smooth="yes"/>
      <point x="225" y="504"/>
      <point x="207" y="522"/>
      <point x="183" y="522" type="curve" smooth="yes"/>
      <point x="158" y="522"/>
      <point x="139" y="504"/>
      <point x="139" y="480" type="curve" smooth="yes"/>
      <point x="139" y="455"/>
      <point x="158" y="436"/>
      <point x="183" y="436" type="curve" smooth="yes"/>
      <point x="207" y="436"/>
      <point x="225" y="455"/>
    </contour>
  </outline>
</glyph>
<glyph name="Aacute" format="1">
  <advance width="508"/>
  <unicode hex="00C1"/>
  <outline>
    <contour>
      <point x="225" y="596" type="line"/>
      <point x="226" y="596" type="line"/>
      <point x="259" y="610"/>
      <point x="344" y="656"/>
      <point x="370" y="688" type="curve"/>
      <point x="328" y="726" type="line"/>
      <point x="327" y="726" type="line"/>
      <point x="205" y="615" type="line"/>
    </contour>
    <contour>
      <point x="-8" y="0" type="line"/>
      <point x="159" y="0" type="line"/>
      <point x="159" y="32" type="line"/>
      <point x="93" y="39" type="line"/>
      <point x="132" y="156" type="line"/>
      <point x="363" y="156" type="line"/>
      <point x="402" y="39" type="line"/>
      <point x="337" y="32" type="line"/>
      <point x="337" y="0" type="line"/>
      <point x="518" y="0" type="line"/>
      <point x="518" y="32" type="line"/>
      <point x="470" y="39" type="line"/>
      <point x="284" y="556" type="line"/>
      <point x="224" y="556" type="line"/>
      <point x="39" y="39" type="line"/>
      <point x="-8" y="32" type="line"/>
    </contour>
    <contour>
      <point x="226" y="439" type="line"/>
      <point x="246" y="512" type="line"/>
      <point x="267" y="441" type="line"/>
      <point x="350" y="195" type="line"/>
      <point x="144" y="195" type="line"/>
    </contour>
  </outline>
</glyph>
<glyph name="Atilde" format="1">
  <advance width="508"/>
  <unicode hex="00C3"/>
  <outline>
    <contour>
      <point x="311" y="617" type="curve" smooth="yes"/>
      <point x="359" y="617"/>
      <point x="388" y="653"/>
      <point x="400" y="692" type="curve"/>
      <point x="370" y="709" type="line"/>
      <point x="362" y="694"/>
      <point x="350" y="661"/>
      <point x="316" y="661" type="curve" smooth="yes"/>
      <point x="273" y="661"/>
      <point x="264" y="724"/>
      <point x="204" y="724" type="curve" smooth="yes"/>
      <point x="153" y="724"/>
      <point x="116" y="681"/>
      <point x="108" y="650" type="curve"/>
      <point x="139" y="633" type="line"/>
      <point x="145" y="647"/>
      <point x="160" y="680"/>
      <point x="195" y="680" type="curve" smooth="yes"/>
      <point x="241" y="680"/>
      <point x="252" y="617"/>
    </contour>
    <contour>
      <point x="-8" y="0" type="line"/>
      <point x="159" y="0" type="line"/>
      <point x="159" y="32" type="line"/>
      <point x="93" y="39" type="line"/>
      <point x="132" y="156" type="line"/>
      <point x="363" y="156" type="line"/>
      <point x="402" y="39" type="line"/>
      <point x="337" y="32" type="line"/>
      <point x="337" y="0" type="line"/>
      <point x="518" y="0" type="line"/>
      <point x="518" y="32" type="line"/>
      <point x="470" y="39" type="line"/>
      <point x="284" y="556" type="line"/>
      <point x="224" y="556" type="line"/>
      <point x="39" y="39" type="line"/>
      <point x="-8" y="32" type="line"/>
    </contour>
    <contour>
      <point x="226" y="439" type="line"/>
      <point x="246" y="512" type="line"/>
      <point x="267" y="441" type="line"/>
      <point x="350" y="195" type="line"/>
      <point x="144" y="195" type="line"/>
    </contour>
  </outline>
</glyph>
<glyph name="Adieresis" format="1">
  <advance width="508"/>
  <unicode hex="00C4"/>
  <outline>
    <contour>
      <point x="162" y="618" type="curve"/>
      <point x="193" y="618"/>
      <point x="207" y="640"/>
      <point x="207" y="666" type="curve" smooth="yes"/>
      <point x="207" y="687"/>
      <point x="193" y="710"/>
      <point x="168" y="710" type="curve"/>
      <point x="139" y="710"/>
      <point x="124" y="685"/>
      <point x="124" y="660" type="curve" smooth="yes"/>
      <point x="124" y="637"/>
      <point x="139" y="618"/>
    </contour>
    <contour>
      <point x="339" y="618" type="curve"/>
      <point x="369" y="618"/>
      <point x="383" y="640"/>
      <point x="383" y="666" type="curve" smooth="yes"/>
      <point x="383" y="687"/>
      <point x="370" y="710"/>
      <point x="344" y="710" type="curve"/>
      <point x="315" y="710"/>
      <point x="301" y="685"/>
      <point x="301" y="660" type="curve" smooth="yes"/>
      <point x="301" y="637"/>
      <point x="315" y="618"/>
    </contour>
    <contour>
      <point x="-8" y="0" type="line"/>
      <point x="159" y="0" type="line"/>
      <point x="159" y="32" type="line"/>
      <point x="93" y="39" type="line"/>
      <point x="132" y="156" type="line"/>
      <point x="363" y="156" type="line"/>
      <point x="402" y="39" type="line"/>
      <point x="337" y="32" type="line"/>
      <point x="337" y="0" type="line"/>
      <point x="518" y="0" type="line"/>
      <point x="518" y="32" type="line"/>
      <point x="470" y="39" type="line"/>
      <point x="284" y="556" type="line"/>
      <point x="224" y="556" type="line"/>
      <point x="39" y="39" type="line"/>
      <point x="-8" y="32" type="line"/>
    </contour>
    <contour>
      <point x="226" y="439" type="line"/>
      <point x="246" y="512" type="line"/>
      <point x="267" y="441" type="line"/>
      <point x="350" y="195" type="line"/>
      <point x="144" y="195" type="line"/>
    </contour>
  </outline>
</glyph>
<glyph name="Aring" format="1">
  <advance width="508"/>
  <unicode hex="00C5"/>
  <outline>
    <contour>
      <point x="253" y="548" type="curve"/>
      <point x="253" y="548" type="line"/>
      <point x="315" y="548"/>
      <point x="370" y="579"/>
      <point x="370" y="638" type="curve" smooth="yes"/>
      <point x="370" y="692"/>
      <point x="331" y="728"/>
      <point x="259" y="728" type="curve"/>
      <point x="200" y="728"/>
      <point x="139" y="699"/>
      <point x="138" y="639" type="curve" smooth="yes"/>
      <point x="137" y="587"/>
      <point x="174" y="548"/>
    </contour>
    <contour>
      <point x="256" y="577" type="curve"/>
      <point x="205" y="577"/>
      <point x="184" y="607"/>
      <point x="184" y="640" type="curve" smooth="yes"/>
      <point x="184" y="679"/>
      <point x="210" y="699"/>
      <point x="256" y="699" type="curve"/>
      <point x="305" y="699"/>
      <point x="324" y="671"/>
      <point x="324" y="635" type="curve" smooth="yes"/>
      <point x="324" y="598"/>
      <point x="302" y="577"/>
    </contour>
    <contour>
      <point x="-8" y="0" type="line"/>
      <point x="159" y="0" type="line"/>
      <point x="159" y="32" type="line"/>
      <point x="93" y="39" type="line"/>
      <point x="132" y="156" type="line"/>
      <point x="363" y="156" type="line"/>
      <point x="402" y="39" type="line"/>
      <point x="337" y="32" type="line"/>
      <point x="337" y="0" type="line"/>
      <point x="518" y="0" type="line"/>
      <point x="518" y="32" type="line"/>
      <point x="470" y="39" type="line"/>
      <point x="284" y="556" type="line"/>
      <point x="224" y="556" type="line"/>
      <point x="39" y="39" type="line"/>
      <point x="-8" y="32" type="line"/>
    </contour>
    <contour>
      <point x="226" y="439" type="line"/>
      <point x="246" y="512" type="line"/>
      <point x="267" y="441" type="line"/>
      <point x="350" y="195" type="line"/>
      <point x="144" y="195" type="line"/>
    </contour>
  </outline>
</glyph>
<glyph name="AE" format="1">
  <advance width="675"/>
  <unicode hex="00C6"/>
  <outline>
    <contour>
      <point x="231" y="0" type="line"/>
      <point x="635" y="0" type="line"/>
      <point x="663" y="127" type="line"/>
      <point x="627" y="136" type="line"/>
      <point x="584" y="44" type="line"/>
      <point x="358" y="36" type="line"/>
      <point x="358" y="266" type="line"/>
      <point x="492" y="264" type="line"/>
      <point x="501" y="201" type="line"/>
      <point x="539" y="201" type="line"/>
      <point x="539" y="364" type="line"/>
      <point x="501" y="364" type="line"/>
      <point x="492" y="303" type="line"/>
      <point x="358" y="301" type="line"/>
      <point x="358" y="517" type="line"/>
      <point x="554" y="514" type="line"/>
      <point x="576" y="439" type="line"/>
      <point x="612" y="439" type="line"/>
      <point x="599" y="550" type="line"/>
      <point x="100" y="550" type="line"/>
      <point x="100" y="520" type="line"/>
      <point x="201" y="512" type="line"/>
      <point x="-13" y="39" type="line"/>
      <point x="-67" y="31" type="line"/>
      <point x="-67" y="0" type="line"/>
      <point x="103" y="0" type="line"/>
      <point x="103" y="31" type="line"/>
      <point x="45" y="39" type="line"/>
      <point x="97" y="163" type="line"/>
      <point x="297" y="163" type="line"/>
      <point x="297" y="39" type="line"/>
      <point x="231" y="31" type="line"/>
    </contour>
    <contour>
      <point x="204" y="420" type="line"/>
      <point x="246" y="515" type="line"/>
      <point x="297" y="515" type="line"/>
      <point x="297" y="201" type="line"/>
      <point x="113" y="201" type="line"/>
    </contour>
  </outline>
</glyph>
<glyph name="Egrave" format="1">
  <advance width="481"/>
  <unicode hex="00C8"/>
  <outline>
    <contour>
      <point x="278" y="596" type="curve"/>
      <point x="279" y="596" type="line"/>
      <point x="299" y="615" type="line"/>
      <point x="176" y="726" type="line"/>
      <point x="134" y="688" type="line"/>
      <point x="159" y="656"/>
      <point x="244" y="610"/>
    </contour>
    <contour>
      <point x="37" y="0" type="line"/>
      <point x="439" y="0" type="line"/>
      <point x="461" y="125" type="line"/>
      <point x="426" y="136" type="line"/>
      <point x="388" y="44" type="line"/>
      <point x="161" y="38" type="line"/>
      <point x="161" y="266" type="line"/>
      <point x="298" y="264" type="line"/>
      <point x="307" y="201" type="line"/>
      <point x="344" y="201" type="line"/>
      <point x="344" y="364" type="line"/>
      <point x="307" y="364" type="line"/>
      <point x="298" y="303" type="line"/>
      <point x="161" y="301" type="line"/>
      <point x="161" y="516" type="line"/>
      <point x="360" y="513" type="line"/>
      <point x="380" y="441" type="line"/>
      <point x="416" y="441" type="line"/>
      <point x="405" y="550" type="line"/>
      <point x="39" y="550" type="line"/>
      <point x="39" y="519" type="line"/>
      <point x="101" y="510" type="line"/>
      <point x="101" y="39" type="line"/>
      <point x="37" y="32" type="line"/>
    </contour>
  </outline>
</glyph>
<glyph name="Eacute" format="1">
  <advance width="481"/>
  <unicode hex="00C9"/>
  <outline>
    <contour>
      <point x="223" y="596" type="line"/>
      <point x="224" y="596" type="line"/>
      <point x="257" y="610"/>
      <point x="342" y="656"/>
      <point x="367" y="688" type="curve"/>
      <point x="326" y="726" type="line"/>
      <point x="325" y="726" type="line"/>
      <point x="203" y="615" type="line"/>
    </contour>
    <contour>
      <point x="37" y="0" type="line"/>
      <point x="439" y="0" type="line"/>
      <point x="461" y="125" type="line"/>
      <point x="426" y="136" type="line"/>
      <point x="388" y="44" type="line"/>
      <point x="161" y="38" type="line"/>
      <point x="161" y="266" type="line"/>
      <point x="298" y="264" type="line"/>
      <point x="307" y="201" type="line"/>
      <point x="344" y="201" type="line"/>
      <point x="344" y="364" type="line"/>
      <point x="307" y="364" type="line"/>
      <point x="298" y="303" type="line"/>
      <point x="161" y="301" type="line"/>
      <point x="161" y="516" type="line"/>
      <point x="360" y="513" type="line"/>
      <point x="380" y="441" type="line"/>
      <point x="416" y="441" type="line"/>
      <point x="405" y="550" type="line"/>
      <point x="39" y="550" type="line"/>
      <point x="39" y="519" type="line"/>
      <point x="101" y="510" type="line"/>
      <point x="101" y="39" type="line"/>
      <point x="37" y="32" type="line"/>
    </contour>
  </outline>
</glyph>
<glyph name="Igrave" format="1">
  <advance width="294"/>
  <unicode hex="00CC"/>
  <outline>
    <contour>
      <point x="164" y="596" type="curve"/>
      <point x="165" y="596" type="line"/>
      <point x="185" y="615" type="line"/>
      <point x="62" y="726" type="line"/>
      <point x="21" y="688" type="line"/>
      <point x="46" y="656"/>
      <point x="130" y="610"/>
    </contour>
    <contour>
      <point x="44" y="0" type="line"/>
      <point x="250" y="0" type="line"/>
      <point x="250" y="31" type="line"/>
      <point x="178" y="39" type="line"/>
      <point x="178" y="510" type="line"/>
      <point x="250" y="519" type="line"/>
      <point x="250" y="550" type="line"/>
      <point x="44" y="550" type="line"/>
      <point x="44" y="519" type="line"/>
      <point x="116" y="510" type="line"/>
      <point x="116" y="39" type="line"/>
      <point x="44" y="32" type="line"/>
    </contour>
  </outline>
</glyph>
<glyph name="Iacute" format="1">
  <advance width="294"/>
  <unicode hex="00CD"/>
  <outline>
    <contour>
      <point x="133" y="596" type="line"/>
      <point x="133" y="596" type="line"/>
      <point x="167" y="610"/>
      <point x="252" y="656"/>
      <point x="277" y="688" type="curve"/>
      <point x="236" y="726" type="line"/>
      <point x="235" y="726" type="line"/>
      <point x="113" y="615" type="line"/>
    </contour>
    <contour>
      <point x="44" y="0" type="line"/>
      <point x="250" y="0" type="line"/>
      <point x="250" y="31" type="line"/>
      <point x="178" y="39" type="line"/>
      <point x="178" y="510" type="line"/>
      <point x="250" y="519" type="line"/>
      <point x="250" y="550" type="line"/>
      <point x="44" y="550" type="line"/>
      <point x="44" y="519" type="line"/>
      <point x="116" y="510" type="line"/>
      <point x="116" y="39" type="line"/>
      <point x="44" y="32" type="line"/>
    </contour>
  </outline>
</glyph>
<glyph name="Icircumflex" format="1">
  <advance width="294"/>
  <unicode hex="00CE"/>
  <outline>
    <contour>
      <point x="50" y="605" type="line"/>
      <point x="148" y="684" type="line"/>
      <point x="244" y="605" type="line"/>
      <point x="272" y="621" type="line"/>
      <point x="176" y="728" type="line"/>
      <point x="120" y="728" type="line"/>
      <point x="25" y="621" type="line"/>
    </contour>
    <contour>
      <point x="44" y="0" type="line"/>
      <point x="250" y="0" type="line"/>
      <point x="250" y="31" type="line"/>
      <point x="178" y="39" type="line"/>
      <point x="178" y="510" type="line"/>
      <point x="250" y="519" type="line"/>
      <point x="250" y="550" type="line"/>
      <point x="44" y="550" type="line"/>
      <point x="44" y="519" type="line"/>
      <point x="116" y="510" type="line"/>
      <point x="116" y="39" type="line"/>
      <point x="44" y="32" type="line"/>
    </contour>
  </outline>
</glyph>
<glyph name="Idieresis" format="1">
  <advance width="294"/>
  <unicode hex="00CF"/>
  <outline>
    <contour>
      <point x="57" y="618" type="curve"/>
      <point x="87" y="618"/>
      <point x="102" y="640"/>
      <point x="102" y="666" type="curve" smooth="yes"/>
      <point x="102" y="687"/>
      <point x="88" y="710"/>
      <point x="63" y="710" type="curve"/>
      <point x="33" y="710"/>
      <point x="19" y="685"/>
      <point x="19" y="660" type="curve" smooth="yes"/>
      <point x="19" y="637"/>
      <point x="33" y="618"/>
    </contour>
    <contour>
      <point x="233" y="618" type="curve"/>
      <point x="263" y="618"/>
      <point x="278" y="640"/>
      <point x="278" y="666" type="curve" smooth="yes"/>
      <point x="278" y="687"/>
      <point x="264" y="710"/>
      <point x="239" y="710" type="curve"/>
      <point x="210" y="710"/>
      <point x="196" y="685"/>
      <point x="196" y="660" type="curve" smooth="yes"/>
      <point x="196" y="637"/>
      <point x="210" y="618"/>
    </contour>
    <contour>
      <point x="44" y="0" type="line"/>
      <point x="250" y="0" type="line"/>
      <point x="250" y="31" type="line"/>
      <point x="178" y="39" type="line"/>
      <point x="178" y="510" type="line"/>
      <point x="250" y="519" type="line"/>
      <point x="250" y="550" type="line"/>
      <point x="44" y="550" type="line"/>
      <point x="44" y="519" type="line"/>
      <point x="116" y="510" type="line"/>
      <point x="116" y="39" type="line"/>
      <point x="44" y="32" type="line"/>
    </contour>
  </outline>
</glyph>
<glyph name="Eth" format="1">
  <advance width="560"/>
  <unicode hex="00D0"/>
  <outline>
    <contour>
      <point x="44" y="270" type="line"/>
      <point x="101" y="270" type="line"/>
      <point x="101" y="39" type="line"/>
      <point x="37" y="32" type="line"/>
      <point x="37" y="0" type="line"/>
      <point x="132" y="0" type="line" smooth="yes"/>
      <point x="175" y="0"/>
      <point x="217" y="-5"/>
      <point x="253" y="-6" type="curve" smooth="yes"/>
      <point x="417" y="-10"/>
      <point x="533" y="110"/>
      <point x="533" y="292" type="curve" smooth="yes"/>
      <point x="533" y="450"/>
      <point x="454" y="556"/>
      <point x="262" y="556" type="curve" smooth="yes"/>
      <point x="218" y="556"/>
      <point x="176" y="550"/>
      <point x="131" y="550" type="curve" smooth="yes"/>
      <point x="41" y="550" type="line"/>
      <point x="41" y="519" type="line"/>
      <point x="101" y="510" type="line"/>
      <point x="101" y="304" type="line"/>
      <point x="44" y="304" type="line"/>
    </contour>
    <contour>
      <point x="161" y="516" type="line"/>
      <point x="182" y="517"/>
      <point x="210" y="521"/>
      <point x="243" y="521" type="curve" smooth="yes"/>
      <point x="393" y="521"/>
      <point x="468" y="440"/>
      <point x="468" y="279" type="curve" smooth="yes"/>
      <point x="468" y="118"/>
      <point x="381" y="32"/>
      <point x="261" y="30" type="curve" smooth="yes"/>
      <point x="227" y="30"/>
      <point x="197" y="30"/>
      <point x="161" y="36" type="curve"/>
      <point x="161" y="270" type="line"/>
      <point x="301" y="270" type="line"/>
      <point x="301" y="304" type="line"/>
      <point x="161" y="304" type="line"/>
    </contour>
  </outline>
</glyph>
<glyph name="Ntilde" format="1">
  <advance width="590"/>
  <unicode hex="00D1"/>
  <outline>
    <contour>
      <point x="354" y="617" type="curve" smooth="yes"/>
      <point x="401" y="617"/>
      <point x="431" y="653"/>
      <point x="443" y="692" type="curve"/>
      <point x="412" y="709" type="line"/>
      <point x="405" y="694"/>
      <point x="393" y="661"/>
      <point x="358" y="661" type="curve" smooth="yes"/>
      <point x="316" y="661"/>
      <point x="307" y="724"/>
      <point x="247" y="724" type="curve" smooth="yes"/>
      <point x="196" y="724"/>
      <point x="159" y="681"/>
      <point x="150" y="650" type="curve"/>
      <point x="181" y="633" type="line"/>
      <point x="188" y="647"/>
      <point x="203" y="680"/>
      <point x="238" y="680" type="curve" smooth="yes"/>
      <point x="283" y="680"/>
      <point x="295" y="617"/>
    </contour>
    <contour>
      <point x="41" y="0" type="line"/>
      <point x="211" y="0" type="line"/>
      <point x="211" y="32" type="line"/>
      <point x="144" y="39" type="line"/>
      <point x="144" y="480" type="line"/>
      <point x="204" y="381" type="line"/>
      <point x="470" y="0" type="line"/>
      <point x="508" y="0" type="line"/>
      <point x="508" y="510" type="line"/>
      <point x="569" y="519" type="line"/>
      <point x="569" y="550" type="line"/>
      <point x="400" y="550" type="line"/>
      <point x="400" y="519" type="line"/>
      <point x="465" y="510" type="line"/>
      <point x="465" y="96" type="line"/>
      <point x="423" y="170" type="line"/>
      <point x="161" y="550" type="line"/>
      <point x="41" y="550" type="line"/>
      <point x="41" y="519" type="line"/>
      <point x="101" y="510" type="line"/>
      <point x="101" y="39" type="line"/>
      <point x="41" y="32" type="line"/>
    </contour>
  </outline>
</glyph>
<glyph name="Ograve" format="1">
  <advance width="533"/>
  <unicode hex="00D2"/>
  <outline>
    <contour>
      <point x="306" y="596" type="curve"/>
      <point x="307" y="596" type="line"/>
      <point x="326" y="615" type="line"/>
      <point x="204" y="726" type="line"/>
      <point x="162" y="688" type="line"/>
      <point x="187" y="656"/>
      <point x="272" y="610"/>
    </contour>
    <contour>
      <point x="261" y="-8" type="curve" smooth="yes"/>
      <point x="398" y="-6"/>
      <point x="506" y="106"/>
      <point x="506" y="280" type="curve" smooth="yes"/>
      <point x="506" y="447"/>
      <point x="424" y="556"/>
      <point x="274" y="556" type="curve" smooth="yes"/>
      <point x="136" y="556"/>
      <point x="27" y="446"/>
      <point x="27" y="271" type="curve" smooth="yes"/>
      <point x="27" y="104"/>
      <point x="111" y="-11"/>
    </contour>
    <contour>
      <point x="267" y="521" type="curve" smooth="yes"/>
      <point x="376" y="521"/>
      <point x="437" y="422"/>
      <point x="437" y="280" type="curve" smooth="yes"/>
      <point x="437" y="112"/>
      <point x="367" y="27"/>
      <point x="265" y="27" type="curve" smooth="yes"/>
      <point x="156" y="27"/>
      <point x="95" y="130"/>
      <point x="95" y="271" type="curve" smooth="yes"/>
      <point x="95" y="439"/>
      <point x="165" y="521"/>
    </contour>
  </outline>
</glyph>
<glyph name="Oacute" format="1">
  <advance width="533"/>
  <unicode hex="00D3"/>
  <outline>
    <contour>
      <point x="239" y="596" type="line"/>
      <point x="273" y="610"/>
      <point x="358" y="656"/>
      <point x="383" y="688" type="curve"/>
      <point x="341" y="726" type="line"/>
      <point x="219" y="615" type="line"/>
    </contour>
    <contour>
      <point x="261" y="-8" type="curve" smooth="yes"/>
      <point x="398" y="-6"/>
      <point x="506" y="106"/>
      <point x="506" y="280" type="curve" smooth="yes"/>
      <point x="506" y="447"/>
      <point x="424" y="556"/>
      <point x="274" y="556" type="curve" smooth="yes"/>
      <point x="136" y="556"/>
      <point x="27" y="446"/>
      <point x="27" y="271" type="curve" smooth="yes"/>
      <point x="27" y="104"/>
      <point x="111" y="-11"/>
    </contour>
    <contour>
      <point x="267" y="521" type="curve" smooth="yes"/>
      <point x="376" y="521"/>
      <point x="437" y="422"/>
      <point x="437" y="280" type="curve" smooth="yes"/>
      <point x="437" y="112"/>
      <point x="367" y="27"/>
      <point x="265" y="27" type="curve" smooth="yes"/>
      <point x="156" y="27"/>
      <point x="95" y="130"/>
      <point x="95" y="271" type="curve" smooth="yes"/>
      <point x="95" y="439"/>
      <point x="165" y="521"/>
    </contour>
  </outline>
</glyph>
<glyph name="Otilde" format="1">
  <advance width="533"/>
  <unicode hex="00D5"/>
  <outline>
    <contour>
      <point x="325" y="617" type="curve" smooth="yes"/>
      <point x="373" y="617"/>
      <point x="402" y="653"/>
      <point x="415" y="692" type="curve"/>
      <point x="384" y="709" type="line"/>
      <point x="377" y="694"/>
      <point x="365" y="661"/>
      <point x="330" y="661" type="curve" smooth="yes"/>
      <point x="287" y="661"/>
      <point x="279" y="724"/>
      <point x="219" y="724" type="curve" smooth="yes"/>
      <point x="167" y="724"/>
      <point x="130" y="681"/>
      <point x="122" y="650" type="curve"/>
      <point x="153" y="633" type="line"/>
      <point x="160" y="647"/>
      <point x="175" y="680"/>
      <point x="210" y="680" type="curve" smooth="yes"/>
      <point x="255" y="680"/>
      <point x="267" y="617"/>
    </contour>
    <contour>
      <point x="261" y="-8" type="curve" smooth="yes"/>
      <point x="398" y="-6"/>
      <point x="506" y="106"/>
      <point x="506" y="280" type="curve" smooth="yes"/>
      <point x="506" y="447"/>
      <point x="424" y="556"/>
      <point x="274" y="556" type="curve" smooth="yes"/>
      <point x="136" y="556"/>
      <point x="27" y="446"/>
      <point x="27" y="271" type="curve" smooth="yes"/>
      <point x="27" y="104"/>
      <point x="111" y="-11"/>
    </contour>
    <contour>
      <point x="267" y="521" type="curve" smooth="yes"/>
      <point x="376" y="521"/>
      <point x="437" y="422"/>
      <point x="437" y="280" type="curve" smooth="yes"/>
      <point x="437" y="112"/>
      <point x="367" y="27"/>
      <point x="265" y="27" type="curve" smooth="yes"/>
      <point x="156" y="27"/>
      <point x="95" y="130"/>
      <point x="95" y="271" type="curve" smooth="yes"/>
      <point x="95" y="439"/>
      <point x="165" y="521"/>
    </contour>
  </outline>
</glyph>
<glyph name="Odieresis" format="1">
  <advance width="533"/>
  <unicode hex="00D6"/>
  <outline>
    <contour>
      <point x="176" y="618" type="curve"/>
      <point x="207" y="618"/>
      <point x="221" y="640"/>
      <point x="221" y="666" type="curve" smooth="yes"/>
      <point x="221" y="687"/>
      <point x="207" y="710"/>
      <point x="183" y="710" type="curve"/>
      <point x="153" y="710"/>
      <point x="139" y="685"/>
      <point x="139" y="660" type="curve" smooth="yes"/>
      <point x="139" y="637"/>
      <point x="153" y="618"/>
    </contour>
    <contour>
      <point x="353" y="618" type="curve"/>
      <point x="383" y="618"/>
      <point x="398" y="640"/>
      <point x="398" y="666" type="curve" smooth="yes"/>
      <point x="398" y="687"/>
      <point x="384" y="710"/>
      <point x="359" y="710" type="curve"/>
      <point x="330" y="710"/>
      <point x="315" y="685"/>
      <point x="315" y="660" type="curve" smooth="yes"/>
      <point x="315" y="637"/>
      <point x="329" y="618"/>
    </contour>
    <contour>
      <point x="261" y="-8" type="curve" smooth="yes"/>
      <point x="398" y="-6"/>
      <point x="506" y="106"/>
      <point x="506" y="280" type="curve" smooth="yes"/>
      <point x="506" y="447"/>
      <point x="424" y="556"/>
      <point x="274" y="556" type="curve" smooth="yes"/>
      <point x="136" y="556"/>
      <point x="27" y="446"/>
      <point x="27" y="271" type="curve" smooth="yes"/>
      <point x="27" y="104"/>
      <point x="111" y="-11"/>
    </contour>
    <contour>
      <point x="267" y="521" type="curve" smooth="yes"/>
      <point x="376" y="521"/>
      <point x="437" y="422"/>
      <point x="437" y="280" type="curve" smooth="yes"/>
      <point x="437" y="112"/>
      <point x="367" y="27"/>
      <point x="265" y="27" type="curve" smooth="yes"/>
      <point x="156" y="27"/>
      <point x="95" y="130"/>
      <point x="95" y="271" type="curve" smooth="yes"/>
      <point x="95" y="439"/>
      <point x="165" y="521"/>
    </contour>
  </outline>
</glyph>
<glyph name="multiply" format="1">
  <advance width="448"/>
  <unicode hex="00D7"/>
  <outline>
    <contour>
      <point x="103" y="63" type="line"/>
      <point x="224" y="192" type="line"/>
      <point x="345" y="63" type="line"/>
      <point x="381" y="101" type="line"/>
      <point x="256" y="223" type="line"/>
      <point x="381" y="344" type="line"/>
      <point x="345" y="383" type="line"/>
      <point x="224" y="254" type="line"/>
      <point x="103" y="383" type="line"/>
      <point x="67" y="345" type="line"/>
      <point x="193" y="223" type="line"/>
      <point x="67" y="101" type="line"/>
    </contour>
  </outline>
</glyph>
<glyph name="Oslash" format="1">
  <advance width="533"/>
  <unicode hex="00D8"/>
  <outline>
    <contour>
      <point x="146" y="-73" type="line"/>
      <point x="179" y="4" type="line"/>
      <point x="204" y="-4"/>
      <point x="231" y="-9"/>
      <point x="261" y="-8" type="curve" smooth="yes"/>
      <point x="399" y="-6"/>
      <point x="506" y="106"/>
      <point x="506" y="280" type="curve" smooth="yes"/>
      <point x="506" y="401"/>
      <point x="463" y="492"/>
      <point x="381" y="533" type="curve"/>
      <point x="412" y="607" type="line"/>
      <point x="384" y="617" type="line"/>
      <point x="355" y="544" type="line"/>
      <point x="330" y="552"/>
      <point x="304" y="556"/>
      <point x="274" y="556" type="curve" smooth="yes"/>
      <point x="137" y="556"/>
      <point x="27" y="446"/>
      <point x="27" y="271" type="curve" smooth="yes"/>
      <point x="27" y="151"/>
      <point x="71" y="58"/>
      <point x="152" y="16" type="curve"/>
      <point x="118" y="-64" type="line"/>
    </contour>
    <contour>
      <point x="268" y="521" type="curve" smooth="yes"/>
      <point x="294" y="521"/>
      <point x="318" y="516"/>
      <point x="338" y="505" type="curve"/>
      <point x="171" y="61" type="line"/>
      <point x="121" y="101"/>
      <point x="95" y="178"/>
      <point x="95" y="271" type="curve" smooth="yes"/>
      <point x="95" y="439"/>
      <point x="165" y="521"/>
    </contour>
    <contour>
      <point x="438" y="280" type="curve" smooth="yes"/>
      <point x="438" y="112"/>
      <point x="367" y="27"/>
      <point x="266" y="27" type="curve" smooth="yes"/>
      <point x="239" y="27"/>
      <point x="216" y="33"/>
      <point x="196" y="44" type="curve"/>
      <point x="363" y="488" type="line"/>
      <point x="411" y="447"/>
      <point x="438" y="373"/>
    </contour>
  </outline>
</glyph>
<glyph name="Uacute" format="1">
  <advance width="547"/>
  <unicode hex="00DA"/>
  <outline>
    <contour>
      <point x="259" y="596" type="line"/>
      <point x="293" y="610"/>
      <point x="377" y="656"/>
      <point x="402" y="688" type="curve"/>
      <point x="362" y="726" type="line"/>
      <point x="361" y="726" type="line"/>
      <point x="238" y="615" type="line"/>
    </contour>
    <contour>
      <point x="281" y="-6" type="curve" smooth="yes"/>
      <point x="393" y="-6"/>
      <point x="477" y="65"/>
      <point x="477" y="226" type="curve" smooth="yes"/>
      <point x="477" y="510" type="line"/>
      <point x="533" y="519" type="line"/>
      <point x="533" y="550" type="line"/>
      <point x="369" y="550" type="line"/>
      <point x="369" y="519" type="line"/>
      <point x="430" y="510" type="line"/>
      <point x="430" y="223" type="line" smooth="yes"/>
      <point x="430" y="97"/>
      <point x="381" y="30"/>
      <point x="287" y="30" type="curve" smooth="yes"/>
      <point x="200" y="30"/>
      <point x="138" y="76"/>
      <point x="138" y="229" type="curve" smooth="yes"/>
      <point x="138" y="510" type="line"/>
      <point x="201" y="519" type="line"/>
      <point x="201" y="550" type="line"/>
      <point x="20" y="550" type="line"/>
      <point x="20" y="519" type="line"/>
      <point x="76" y="510" type="line"/>
      <point x="76" y="236" type="line" smooth="yes"/>
      <point x="76" y="72"/>
      <point x="138" y="-6"/>
    </contour>
  </outline>
</glyph>
<glyph name="Ucircumflex" format="1">
  <advance width="547"/>
  <unicode hex="00DB"/>
  <outline>
    <contour>
      <point x="189" y="605" type="line"/>
      <point x="287" y="684" type="line"/>
      <point x="384" y="605" type="line"/>
      <point x="411" y="621" type="line"/>
      <point x="315" y="728" type="line"/>
      <point x="259" y="728" type="line"/>
      <point x="164" y="621" type="line"/>
    </contour>
    <contour>
      <point x="281" y="-6" type="curve" smooth="yes"/>
      <point x="393" y="-6"/>
      <point x="477" y="65"/>
      <point x="477" y="226" type="curve" smooth="yes"/>
      <point x="477" y="510" type="line"/>
      <point x="533" y="519" type="line"/>
      <point x="533" y="550" type="line"/>
      <point x="369" y="550" type="line"/>
      <point x="369" y="519" type="line"/>
      <point x="430" y="510" type="line"/>
      <point x="430" y="223" type="line" smooth="yes"/>
      <point x="430" y="97"/>
      <point x="381" y="30"/>
      <point x="287" y="30" type="curve" smooth="yes"/>
      <point x="200" y="30"/>
      <point x="138" y="76"/>
      <point x="138" y="229" type="curve" smooth="yes"/>
      <point x="138" y="510" type="line"/>
      <point x="201" y="519" type="line"/>
      <point x="201" y="550" type="line"/>
      <point x="20" y="550" type="line"/>
      <point x="20" y="519" type="line"/>
      <point x="76" y="510" type="line"/>
      <point x="76" y="236" type="line" smooth="yes"/>
      <point x="76" y="72"/>
      <point x="138" y="-6"/>
    </contour>
  </outline>
</glyph>
<glyph name="Udieresis" format="1">
  <advance width="547"/>
  <unicode hex="00DC"/>
  <outline>
    <contour>
      <point x="197" y="618" type="curve"/>
      <point x="227" y="618"/>
      <point x="242" y="640"/>
      <point x="242" y="666" type="curve" smooth="yes"/>
      <point x="242" y="687"/>
      <point x="228" y="710"/>
      <point x="202" y="710" type="curve"/>
      <point x="173" y="710"/>
      <point x="159" y="685"/>
      <point x="159" y="660" type="curve" smooth="yes"/>
      <point x="159" y="637"/>
      <point x="173" y="618"/>
    </contour>
    <contour>
      <point x="373" y="618" type="curve"/>
      <point x="403" y="618"/>
      <point x="418" y="640"/>
      <point x="418" y="666" type="curve" smooth="yes"/>
      <point x="418" y="687"/>
      <point x="404" y="710"/>
      <point x="379" y="710" type="curve"/>
      <point x="350" y="710"/>
      <point x="336" y="685"/>
      <point x="336" y="660" type="curve" smooth="yes"/>
      <point x="336" y="637"/>
      <point x="350" y="618"/>
    </contour>
    <contour>
      <point x="281" y="-6" type="curve" smooth="yes"/>
      <point x="393" y="-6"/>
      <point x="477" y="65"/>
      <point x="477" y="226" type="curve" smooth="yes"/>
      <point x="477" y="510" type="line"/>
      <point x="533" y="519" type="line"/>
      <point x="533" y="550" type="line"/>
      <point x="369" y="550" type="line"/>
      <point x="369" y="519" type="line"/>
      <point x="430" y="510" type="line"/>
      <point x="430" y="223" type="line" smooth="yes"/>
      <point x="430" y="97"/>
      <point x="381" y="30"/>
      <point x="287" y="30" type="curve" smooth="yes"/>
      <point x="200" y="30"/>
      <point x="138" y="76"/>
      <point x="138" y="229" type="curve" smooth="yes"/>
      <point x="138" y="510" type="line"/>
      <point x="201" y="519" type="line"/>
      <point x="201" y="550" type="line"/>
      <point x="20" y="550" type="line"/>
      <point x="20" y="519" type="line"/>
      <point x="76" y="510" type="line"/>
      <point x="76" y="236" type="line" smooth="yes"/>
      <point x="76" y="72"/>
      <point x="138" y="-6"/>
    </contour>
  </outline>
</glyph>
<glyph name="Thorn" format="1">
  <advance width="470"/>
  <unicode hex="00DE"/>
  <outline>
    <contour>
      <point x="37" y="0" type="line"/>
      <point x="241" y="0" type="line"/>
      <point x="241" y="31" type="line"/>
      <point x="160" y="39" type="line"/>
      <point x="160" y="124" type="line"/>
      <point x="184" y="122"/>
      <point x="211" y="121"/>
      <point x="253" y="121" type="curve" smooth="yes"/>
      <point x="373" y="121"/>
      <point x="447" y="173"/>
      <point x="447" y="284" type="curve" smooth="yes"/>
      <point x="447" y="381"/>
      <point x="384" y="429"/>
      <point x="278" y="429" type="curve" smooth="yes"/>
      <point x="237" y="429"/>
      <point x="197" y="424"/>
      <point x="160" y="421" type="curve"/>
      <point x="160" y="511" type="line"/>
      <point x="227" y="519" type="line"/>
      <point x="227" y="551" type="line"/>
      <point x="39" y="551" type="line"/>
      <point x="39" y="519" type="line"/>
      <point x="100" y="511" type="line"/>
      <point x="100" y="39" type="line"/>
      <point x="37" y="31" type="line"/>
    </contour>
    <contour>
      <point x="251" y="155" type="curve" smooth="yes"/>
      <point x="224" y="155"/>
      <point x="192" y="154"/>
      <point x="160" y="158" type="curve"/>
      <point x="160" y="386" type="line"/>
      <point x="182" y="389"/>
      <point x="213" y="393"/>
      <point x="247" y="393" type="curve" smooth="yes"/>
      <point x="341" y="396"/>
      <point x="380" y="353"/>
      <point x="380" y="280" type="curve" smooth="yes"/>
      <point x="380" y="187"/>
      <point x="324" y="155"/>
    </contour>
  </outline>
</glyph>
<glyph name="germandbls" format="1">
  <advance width="461"/>
  <unicode hex="00DF"/>
  <outline>
    <contour>
      <point x="19" y="0" type="line"/>
      <point x="133" y="0" type="line"/>
      <point x="133" y="355" type="line"/>
      <point x="133" y="479"/>
      <point x="182" y="541"/>
      <point x="257" y="541" type="curve" smooth="yes"/>
      <point x="309" y="541"/>
      <point x="334" y="515"/>
      <point x="334" y="464" type="curve" smooth="yes"/>
      <point x="334" y="394"/>
      <point x="255" y="360"/>
      <point x="255" y="307" type="curve" smooth="yes"/>
      <point x="255" y="215"/>
      <point x="380" y="194"/>
      <point x="380" y="105" type="curve" smooth="yes"/>
      <point x="380" y="66"/>
      <point x="355" y="36"/>
      <point x="292" y="36" type="curve" smooth="yes"/>
      <point x="264" y="36"/>
      <point x="238" y="41"/>
      <point x="219" y="49" type="curve"/>
      <point x="219" y="0" type="line"/>
      <point x="233" y="-4"/>
      <point x="261" y="-8"/>
      <point x="281" y="-8" type="curve" smooth="yes"/>
      <point x="372" y="-8"/>
      <point x="444" y="33"/>
      <point x="444" y="119" type="curve" smooth="yes"/>
      <point x="444" y="228"/>
      <point x="313" y="255"/>
      <point x="313" y="321" type="curve" smooth="yes"/>
      <point x="313" y="376"/>
      <point x="396" y="396"/>
      <point x="396" y="481" type="curve" smooth="yes"/>
      <point x="396" y="551"/>
      <point x="339" y="580"/>
      <point x="274" y="580" type="curve" smooth="yes"/>
      <point x="169" y="580"/>
      <point x="72" y="499"/>
      <point x="72" y="343" type="curve" smooth="yes"/>
      <point x="72" y="38" type="line"/>
      <point x="19" y="32" type="line"/>
    </contour>
  </outline>
</glyph>
<glyph name="ae" format="1">
  <advance width="644"/>
  <unicode hex="00E6"/>
  <outline>
    <contour>
      <point x="459" y="-8" type="curve" smooth="yes"/>
      <point x="515" y="-8"/>
      <point x="574" y="16"/>
      <point x="602" y="44" type="curve"/>
      <point x="590" y="72" type="line"/>
      <point x="568" y="52"/>
      <point x="519" y="34"/>
      <point x="477" y="34" type="curve" smooth="yes"/>
      <point x="389" y="34"/>
      <point x="343" y="111"/>
      <point x="343" y="210" type="curve"/>
      <point x="607" y="210" type="line"/>
      <point x="610" y="227"/>
      <point x="611" y="247"/>
      <point x="611" y="276" type="curve"/>
      <point x="607" y="371"/>
      <point x="556" y="422"/>
      <point x="469" y="422" type="curve" smooth="yes"/>
      <point x="413" y="422"/>
      <point x="364" y="399"/>
      <point x="330" y="359" type="curve"/>
      <point x="313" y="401"/>
      <point x="276" y="419"/>
      <point x="208" y="419" type="curve" smooth="yes"/>
      <point x="141" y="419"/>
      <point x="59" y="379"/>
      <point x="41" y="362" type="curve"/>
      <point x="56" y="331" type="line"/>
      <point x="85" y="347"/>
      <point x="138" y="373"/>
      <point x="194" y="373" type="curve" smooth="yes"/>
      <point x="264" y="373"/>
      <point x="279" y="347"/>
      <point x="279" y="273" type="curve" smooth="yes"/>
      <point x="279" y="247" type="line"/>
      <point x="161" y="244"/>
      <point x="35" y="211"/>
      <point x="35" y="108" type="curve" smooth="yes"/>
      <point x="35" y="27"/>
      <point x="93" y="-8"/>
      <point x="159" y="-8" type="curve" smooth="yes"/>
      <point x="237" y="-8"/>
      <point x="287" y="41"/>
      <point x="310" y="73" type="curve"/>
      <point x="339" y="22"/>
      <point x="390" y="-8"/>
    </contour>
    <contour>
      <point x="181" y="36" type="curve" smooth="yes"/>
      <point x="136" y="36"/>
      <point x="101" y="56"/>
      <point x="101" y="116" type="curve" smooth="yes"/>
      <point x="101" y="171"/>
      <point x="160" y="214"/>
      <point x="279" y="215" type="curve"/>
      <point x="279" y="207" type="line" smooth="yes"/>
      <point x="279" y="169"/>
      <point x="285" y="133"/>
      <point x="296" y="103" type="curve"/>
      <point x="279" y="73"/>
      <point x="233" y="36"/>
    </contour>
    <contour>
      <point x="454" y="384" type="curve" smooth="yes"/>
      <point x="520" y="384"/>
      <point x="546" y="339"/>
      <point x="546" y="278" type="curve" smooth="yes"/>
      <point x="546" y="267"/>
      <point x="545" y="256"/>
      <point x="544" y="245" type="curve"/>
      <point x="344" y="245" type="line"/>
      <point x="350" y="348"/>
      <point x="395" y="384"/>
    </contour>
  </outline>
</glyph>
<glyph name="eth" format="1">
  <advance width="424"/>
  <unicode hex="00F0"/>
  <outline>
    <contour>
      <point x="116" y="495" type="line"/>
      <point x="169" y="559" type="line"/>
      <point x="230" y="520"/>
      <point x="273" y="460"/>
      <point x="296" y="406" type="curve"/>
      <point x="279" y="415"/>
      <point x="252" y="422"/>
      <point x="221" y="422" type="curve" smooth="yes"/>
      <point x="122" y="422"/>
      <point x="31" y="345"/>
      <point x="31" y="192" type="curve" smooth="yes"/>
      <point x="31" y="77"/>
      <point x="87" y="-8"/>
      <point x="214" y="-8" type="curve" smooth="yes"/>
      <point x="344" y="-8"/>
      <point x="393" y="117"/>
      <point x="393" y="239" type="curve" smooth="yes"/>
      <point x="393" y="395"/>
      <point x="315" y="509"/>
      <point x="197" y="589" type="curve"/>
      <point x="215" y="609"/>
      <point x="242" y="641"/>
      <point x="242" y="641" type="curve"/>
      <point x="215" y="664" type="line"/>
      <point x="215" y="664"/>
      <point x="186" y="630"/>
      <point x="167" y="607" type="curve"/>
      <point x="136" y="624"/>
      <point x="112" y="636"/>
      <point x="72" y="648" type="curve"/>
      <point x="59" y="618" type="line"/>
      <point x="81" y="612"/>
      <point x="116" y="595"/>
      <point x="141" y="579" type="curve"/>
      <point x="86" y="516" type="line"/>
    </contour>
    <contour>
      <point x="216" y="27" type="curve" smooth="yes"/>
      <point x="127" y="27"/>
      <point x="97" y="107"/>
      <point x="97" y="196" type="curve" smooth="yes"/>
      <point x="97" y="317"/>
      <point x="147" y="390"/>
      <point x="219" y="390" type="curve" smooth="yes"/>
      <point x="270" y="390"/>
      <point x="301" y="366"/>
      <point x="311" y="350" type="curve"/>
      <point x="317" y="332"/>
      <point x="327" y="293"/>
      <point x="327" y="235" type="curve" smooth="yes"/>
      <point x="327" y="106"/>
      <point x="294" y="27"/>
    </contour>
  </outline>
</glyph>
<glyph name="divide" format="1">
  <advance width="493"/>
  <unicode hex="00F7"/>
  <outline>
    <contour>
      <point x="201" y="70" type="curve" smooth="yes"/>
      <point x="201" y="44"/>
      <point x="221" y="29"/>
      <point x="243" y="29" type="curve" smooth="yes"/>
      <point x="268" y="29"/>
      <point x="293" y="48"/>
      <point x="293" y="77" type="curve" smooth="yes"/>
      <point x="293" y="99"/>
      <point x="280" y="118"/>
      <point x="251" y="118" type="curve" smooth="yes"/>
      <point x="227" y="118"/>
      <point x="201" y="97"/>
    </contour>
    <contour>
      <point x="79" y="200" type="line"/>
      <point x="414" y="200" type="line"/>
      <point x="414" y="245" type="line"/>
      <point x="79" y="245" type="line"/>
    </contour>
    <contour>
      <point x="250" y="327" type="curve" smooth="yes"/>
      <point x="276" y="327"/>
      <point x="299" y="346"/>
      <point x="299" y="375" type="curve" smooth="yes"/>
      <point x="299" y="397"/>
      <point x="287" y="416"/>
      <point x="258" y="416" type="curve" smooth="yes"/>
      <point x="234" y="416"/>
      <point x="209" y="395"/>
      <point x="209" y="368" type="curve" smooth="yes"/>
      <point x="209" y="343"/>
      <point x="229" y="327"/>
    </contour>
  </outline>
</glyph>
<glyph name="oslash" format="1">
  <advance width="441"/>
  <unicode hex="00F8"/>
  <outline>
    <contour>
      <point x="33" y="208" type="curve" smooth="yes"/>
      <point x="33" y="121"/>
      <point x="61" y="43"/>
      <point x="132" y="9" type="curve"/>
      <point x="104" y="-64" type="line"/>
      <point x="131" y="-71" type="line"/>
      <point x="158" y="-1" type="line"/>
      <point x="176" y="-5"/>
      <point x="195" y="-8"/>
      <point x="216" y="-8" type="curve" smooth="yes"/>
      <point x="311" y="-8"/>
      <point x="407" y="71"/>
      <point x="407" y="206" type="curve" smooth="yes"/>
      <point x="407" y="293"/>
      <point x="379" y="370"/>
      <point x="309" y="404" type="curve"/>
      <point x="333" y="475" type="line"/>
      <point x="308" y="481" type="line"/>
      <point x="283" y="415" type="line"/>
      <point x="265" y="419"/>
      <point x="246" y="422"/>
      <point x="224" y="422" type="curve" smooth="yes"/>
      <point x="129" y="422"/>
      <point x="33" y="343"/>
    </contour>
    <contour>
      <point x="101" y="213" type="curve" smooth="yes"/>
      <point x="101" y="326"/>
      <point x="145" y="384"/>
      <point x="221" y="384" type="curve" smooth="yes"/>
      <point x="239" y="384"/>
      <point x="254" y="380"/>
      <point x="267" y="373" type="curve"/>
      <point x="151" y="56" type="line"/>
      <point x="116" y="87"/>
      <point x="101" y="146"/>
    </contour>
    <contour>
      <point x="220" y="30" type="curve" smooth="yes"/>
      <point x="202" y="30"/>
      <point x="187" y="34"/>
      <point x="173" y="41" type="curve"/>
      <point x="290" y="358" type="line"/>
      <point x="325" y="325"/>
      <point x="339" y="267"/>
      <point x="339" y="201" type="curve" smooth="yes"/>
      <point x="339" y="89"/>
      <point x="295" y="30"/>
    </contour>
  </outline>
</glyph>
<glyph name="thorn" format="1">
  <advance width="444"/>
  <unicode hex="00FE"/>
  <outline>
    <contour>
      <point x="61" y="560" type="line"/>
      <point x="61" y="-142" type="line"/>
      <point x="4" y="-150" type="line"/>
      <point x="4" y="-179" type="line"/>
      <point x="207" y="-179" type="line"/>
      <point x="207" y="-150" type="line"/>
      <point x="121" y="-142" type="line"/>
      <point x="121" y="-49" type="line"/>
      <point x="119" y="0" type="line"/>
      <point x="142" y="-4"/>
      <point x="170" y="-8"/>
      <point x="199" y="-8" type="curve" smooth="yes"/>
      <point x="329" y="-8"/>
      <point x="410" y="94"/>
      <point x="410" y="221" type="curve" smooth="yes"/>
      <point x="410" y="363"/>
      <point x="331" y="422"/>
      <point x="248" y="422" type="curve" smooth="yes"/>
      <point x="190" y="422"/>
      <point x="147" y="396"/>
      <point x="121" y="371" type="curve"/>
      <point x="121" y="596" type="line"/>
      <point x="107" y="607" type="line"/>
      <point x="106" y="607" type="line"/>
      <point x="-2" y="594" type="line"/>
      <point x="-2" y="567" type="line"/>
    </contour>
    <contour>
      <point x="224" y="377" type="curve" smooth="yes"/>
      <point x="290" y="377"/>
      <point x="347" y="328"/>
      <point x="345" y="210" type="curve" smooth="yes"/>
      <point x="343" y="87"/>
      <point x="284" y="30"/>
      <point x="204" y="30" type="curve" smooth="yes"/>
      <point x="167" y="30"/>
      <point x="129" y="39"/>
      <point x="121" y="56" type="curve"/>
      <point x="121" y="330" type="line"/>
      <point x="139" y="348"/>
      <point x="177" y="377"/>
    </contour>
  </outline>
</glyph>
<glyph name="Amacron" format="1">
  <advance width="508"/>
  <unicode hex="0100"/>
  <outline>
    <contour>
      <point x="158" y="636" type="line"/>
      <point x="353" y="636" type="line"/>
      <point x="353" y="681" type="line"/>
      <point x="158" y="681" type="line"/>
    </contour>
    <contour>
      <point x="-8" y="0" type="line"/>
      <point x="159" y="0" type="line"/>
      <point x="159" y="32" type="line"/>
      <point x="93" y="39" type="line"/>
      <point x="132" y="156" type="line"/>
      <point x="363" y="156" type="line"/>
      <point x="402" y="39" type="line"/>
      <point x="337" y="32" type="line"/>
      <point x="337" y="0" type="line"/>
      <point x="518" y="0" type="line"/>
      <point x="518" y="32" type="line"/>
      <point x="470" y="39" type="line"/>
      <point x="284" y="556" type="line"/>
      <point x="224" y="556" type="line"/>
      <point x="39" y="39" type="line"/>
      <point x="-8" y="32" type="line"/>
    </contour>
    <contour>
      <point x="226" y="439" type="line"/>
      <point x="246" y="512" type="line"/>
      <point x="267" y="441" type="line"/>
      <point x="350" y="195" type="line"/>
      <point x="144" y="195" type="line"/>
    </contour>
  </outline>
</glyph>
<glyph name="Abreve" format="1">
  <advance width="508"/>
  <unicode hex="0102"/>
  <outline>
    <contour>
      <point x="255" y="599" type="curve" smooth="yes"/>
      <point x="328" y="599"/>
      <point x="372" y="646"/>
      <point x="372" y="707" type="curve" smooth="yes"/>
      <point x="372" y="712"/>
      <point x="372" y="716"/>
      <point x="371" y="721" type="curve"/>
      <point x="339" y="721" type="line"/>
      <point x="339" y="719"/>
      <point x="339" y="716"/>
      <point x="338" y="712" type="curve" smooth="yes"/>
      <point x="336" y="685"/>
      <point x="316" y="647"/>
      <point x="256" y="647" type="curve" smooth="yes"/>
      <point x="194" y="647"/>
      <point x="173" y="684"/>
      <point x="170" y="711" type="curve" smooth="yes"/>
      <point x="170" y="716"/>
      <point x="170" y="719"/>
      <point x="170" y="721" type="curve"/>
      <point x="136" y="721" type="line"/>
      <point x="136" y="716"/>
      <point x="136" y="712"/>
      <point x="136" y="707" type="curve" smooth="yes"/>
      <point x="136" y="646"/>
      <point x="178" y="599"/>
    </contour>
    <contour>
      <point x="-8" y="0" type="line"/>
      <point x="159" y="0" type="line"/>
      <point x="159" y="32" type="line"/>
      <point x="93" y="39" type="line"/>
      <point x="132" y="156" type="line"/>
      <point x="363" y="156" type="line"/>
      <point x="402" y="39" type="line"/>
      <point x="337" y="32" type="line"/>
      <point x="337" y="0" type="line"/>
      <point x="518" y="0" type="line"/>
      <point x="518" y="32" type="line"/>
      <point x="470" y="39" type="line"/>
      <point x="284" y="556" type="line"/>
      <point x="224" y="556" type="line"/>
      <point x="39" y="39" type="line"/>
      <point x="-8" y="32" type="line"/>
    </contour>
    <contour>
      <point x="226" y="439" type="line"/>
      <point x="246" y="512" type="line"/>
      <point x="267" y="441" type="line"/>
      <point x="350" y="195" type="line"/>
      <point x="144" y="195" type="line"/>
    </contour>
  </outline>
</glyph>
<glyph name="Aogonek" format="1">
  <advance width="502"/>
  <unicode hex="0104"/>
  <outline>
    <contour>
      <point x="-8" y="0" type="line"/>
      <point x="159" y="0" type="line"/>
      <point x="159" y="32" type="line"/>
      <point x="93" y="39" type="line"/>
      <point x="132" y="156" type="line"/>
      <point x="363" y="156" type="line"/>
      <point x="402" y="39" type="line"/>
      <point x="337" y="32" type="line"/>
      <point x="337" y="0" type="line"/>
      <point x="410" y="0" type="line"/>
      <point x="359" y="-22"/>
      <point x="316" y="-75"/>
      <point x="316" y="-115" type="curve" smooth="yes"/>
      <point x="316" y="-167"/>
      <point x="361" y="-184"/>
      <point x="406" y="-184" type="curve" smooth="yes"/>
      <point x="436" y="-184"/>
      <point x="469" y="-175"/>
      <point x="490" y="-159" type="curve"/>
      <point x="490" y="-128" type="line"/>
      <point x="473" y="-137"/>
      <point x="451" y="-143"/>
      <point x="432" y="-143" type="curve" smooth="yes"/>
      <point x="401" y="-143"/>
      <point x="374" y="-130"/>
      <point x="374" y="-96" type="curve" smooth="yes"/>
      <point x="374" y="-64"/>
      <point x="409" y="-21"/>
      <point x="457" y="0" type="curve"/>
      <point x="518" y="0" type="line"/>
      <point x="518" y="32" type="line"/>
      <point x="470" y="39" type="line"/>
      <point x="284" y="556" type="line"/>
      <point x="224" y="556" type="line"/>
      <point x="39" y="39" type="line"/>
      <point x="-8" y="32" type="line"/>
    </contour>
    <contour>
      <point x="226" y="439" type="line"/>
      <point x="246" y="512" type="line"/>
      <point x="267" y="441" type="line"/>
      <point x="350" y="195" type="line"/>
      <point x="144" y="195" type="line"/>
    </contour>
  </outline>
</glyph>
